<svg width="26" height="26" viewBox="0 0 26 26" fill="none" xmlns="http://www.w3.org/2000/svg">
<circle cx="13" cy="13" r="12.75" transform="rotate(-180 13 13)" fill="white" stroke="#B2A5A5" stroke-width="0.5"/>
<path d="M12.734 15.8459L11.1668 17.0953L6.10914 11.0195C5.75506 10.5941 5.81884 9.96963 6.2516 9.62464V9.62464C6.68436 9.27966 7.32222 9.3448 7.6763 9.77016L12.734 15.8459Z" fill="#AEA6A6"/>
<path d="M12.734 15.8459L14.3012 17.0953L19.3589 11.0195C19.713 10.5941 19.6492 9.96963 19.2164 9.62465V9.62465C18.7837 9.27966 18.1458 9.34481 17.7917 9.77016L12.734 15.8459Z" fill="#AEA6A6"/>
<path d="M12.734 15.8459L14.2929 17.0707C13.2991 18.3238 12.066 18.2955 11.1752 17.0707L12.734 15.8459Z" fill="#AEA6A6"/>
</svg>
