<svg width="9" height="19" viewBox="0 0 9 19" fill="none" xmlns="http://www.w3.org/2000/svg">
<path d="M5.04851 0C5.01232 0 4.98016 9.21075e-08 4.948 0.00402041C4.80327 0.0201017 4.68266 0.11659 4.64245 0.25328L3.55295 3.73889C2.1579 3.73487 1.19303 3.68663 0.827179 3.66653C0.815118 3.66653 0.807077 3.66653 0.795016 3.66653C0.541736 3.66653 0.3166 3.83136 0.228153 4.08062L0.0271377 4.66356C-0.021106 4.80427 -0.00502673 4.95303 0.0753795 5.07766C0.127644 5.15806 0.200012 5.22239 0.288459 5.25857L1.24529 17.8261C1.26137 18.011 1.34982 18.1839 1.49857 18.2924C1.65536 18.413 1.92874 18.5819 2.34686 18.7306C2.84538 18.9035 3.42028 18.996 4.05549 19H4.05951H4.06353C4.69874 18.992 5.27365 18.9035 5.77216 18.7306C6.19028 18.5859 6.46366 18.413 6.62045 18.2924C6.76518 18.1799 6.85765 18.011 6.87373 17.8261L7.83458 5.2063C7.91901 5.15806 7.99138 5.08972 8.04364 5.00529C8.14013 4.84448 8.15621 4.64346 8.08384 4.47059L7.91097 4.04443C7.81046 3.79518 7.57728 3.63436 7.31596 3.63436C7.3039 3.63436 7.29184 3.63436 7.27978 3.63436C6.90589 3.65446 5.9973 3.70271 4.91182 3.72281L5.88071 0.627169C5.92494 0.478418 5.87267 0.321626 5.74804 0.229158C5.67568 0.176894 5.58723 0.128651 5.49878 0.0884474C5.48672 0.0844271 5.47466 0.0804065 5.4626 0.0763862L5.30179 0.0241224C5.28972 0.0201021 5.27364 0.0160815 5.26158 0.0120612C5.1852 0.00402059 5.11685 0 5.04851 0Z" fill="white"/>
<path d="M0.565848 4.20146L0.364832 4.78441C0.34071 4.85678 0.380913 4.93316 0.449258 4.93718C0.843249 4.98141 2.08955 5.098 3.85045 5.098C5.50681 5.098 6.98227 4.97739 7.57727 4.91708C7.71397 4.90502 7.79839 4.74421 7.74211 4.60752L7.56924 4.18136C7.52099 4.06477 7.41244 3.98839 7.29183 3.99643C6.78527 4.02457 5.35404 4.10096 3.81426 4.10096C2.27448 4.10096 1.20508 4.04869 0.807069 4.02859C0.69852 4.02055 0.606051 4.09292 0.565848 4.20146Z" fill="#D3D1D0"/>
<path d="M4.98419 0.36175L3.92685 3.73479C3.97107 3.73881 4.04746 3.74283 4.13189 3.74283L5.18923 0.36979C5.09676 0.353709 5.01636 0.35773 4.98419 0.36175Z" fill="#FABB1B"/>
<path d="M4.52185 3.7468L5.53095 0.526533C5.50683 0.510452 5.43848 0.462208 5.35004 0.426025L4.30878 3.75484C4.38114 3.75082 4.45753 3.75082 4.52185 3.7468Z" fill="#DB1F26"/>
<path d="M0.895528 8.51887C0.895528 8.51887 1.57898 7.23237 2.59612 6.93085C2.56396 6.40419 2.51572 5.54384 2.50767 5.42323C1.61114 5.39107 0.992018 5.34282 0.646271 5.30664L1.16087 12.0567L1.59908 17.8018C1.60712 17.8862 1.64733 17.9626 1.71165 18.0108C1.96493 18.2038 2.69663 18.646 4.11178 18.646C4.44144 18.646 4.73091 18.6219 4.98017 18.5817C4.98017 18.5013 4.97615 18.3968 4.98017 18.3244C3.81026 18.449 3.20721 18.1355 3.17907 17.7535C3.15092 17.3435 2.86146 11.6668 2.65241 7.98417C1.88855 8.76009 1.2453 11.6226 1.20509 12.5995L0.895528 8.51887Z" fill="#EAE6E4"/>
<path d="M3.03435 7.78748C3.95098 7.78748 4.73495 11.2731 4.85556 13.7737C4.98421 16.4151 4.98822 18.3127 4.98822 18.582C5.85661 18.4051 6.28277 18.0915 6.43554 17.9549C6.47574 17.9187 6.50388 17.8664 6.5079 17.8101L7.2999 7.16433C6.7853 7.58647 5.96114 10.7022 5.96114 10.7022C5.24553 8.15333 4.26457 6.87085 3.01827 6.87085C1.77198 6.87085 0.899567 8.51918 0.899567 8.51918L1.21315 12.5998C1.25737 11.462 2.11772 7.78748 3.03435 7.78748Z" fill="#FABB1B"/>
</svg>
