<svg width="36" height="46" viewBox="0 0 36 46" fill="none" xmlns="http://www.w3.org/2000/svg">
<path d="M31.0945 0C30.7193 0 30.4306 0.105835 30.3152 0.14432C30.142 0.221289 29.9785 0.327127 29.8534 0.471445L28.9778 1.46243H28.9586C28.949 1.46243 28.9394 1.46243 28.9201 1.46243L27.1787 1.51053C26.6303 1.52977 26.1588 1.89538 26.0145 2.42455C26.0049 2.46303 25.1486 5.63804 24.3693 8.54364C21.2713 8.56288 19.4625 8.73607 18.4715 8.89001C17.4709 9.03432 16.6531 9.87137 16.3741 11.0067L15.056 16.5292C14.5941 16.7986 14.1997 17.222 14.0842 17.8281C14.0265 18.1264 14.0265 18.3669 14.0169 18.5401C14.0169 18.5786 14.0169 18.6363 14.0169 18.6652C14.0072 18.6844 13.988 18.7133 13.9784 18.7325C13.8148 18.9923 13.3819 19.6754 13.7956 20.5028C13.9495 20.8203 14.2766 21.2148 15.3157 21.6093L17.596 41.1211C17.6922 42.0062 18.1925 42.7182 18.991 43.1223C19.982 43.6226 22.0506 44.4596 24.8888 44.4596C27.7367 44.4596 29.9977 43.5841 31.0945 43.0646C31.9412 42.6605 32.4607 41.9293 32.5569 41.0056L34.6736 21.6285C35.3952 21.3302 35.78 20.9839 35.9244 20.5028C36.136 19.8389 35.8474 19.3483 35.7416 19.1655C35.7319 19.1558 35.7223 19.1366 35.7223 19.127C35.7127 19.0692 35.7223 18.9538 35.7223 18.8576C35.7416 18.3861 35.78 17.5202 35.0392 16.8949C34.9045 16.7794 34.7891 16.6928 34.6736 16.6062L33.4517 10.795C33.24 9.76553 32.5088 9.01508 31.5948 8.86114C31.3543 8.82266 31.0945 8.78417 30.8059 8.75531L32.4415 4.48349C32.5569 4.17561 32.5473 3.83886 32.4222 3.54061C32.9033 2.4053 32.9707 1.57788 32.6435 0.933259C32.3741 0.365607 31.7872 0 31.0945 0Z" fill="white"/>
<path d="M31.2965 3.13627C31.3735 2.96309 31.7968 1.97211 31.5755 1.51991C31.3446 1.06771 30.7962 1.289 30.7962 1.289L29.8822 2.3281C29.8822 2.3281 30.2093 2.3762 30.2863 2.65521C30.3632 2.93423 30.0073 3.30946 30.0073 3.30946L28.9682 2.70332L27.2267 2.75142C27.2267 2.75142 26.178 6.64802 25.5623 8.94749C26.3223 8.92825 27.9964 8.909 29.4107 9.03408L31.3157 4.05991L30.9405 3.9637C30.9405 3.97332 31.2195 3.31908 31.2965 3.13627Z" fill="#EAE6E4"/>
<path d="M26.3031 17.9144C26.0337 18.1838 25.9664 18.5687 26.1684 18.7707C26.3705 18.9728 26.7457 18.9054 27.0247 18.636C27.2941 18.3666 27.3615 17.9818 27.1594 17.7798C26.9574 17.5777 26.5725 17.6354 26.3031 17.9144ZM19.0295 15.1435C19.1161 15.2975 18.9814 15.5476 18.7216 15.7016C18.4618 15.8555 18.1732 15.8459 18.0866 15.692C18 15.538 18.1347 15.2879 18.3945 15.1339C18.6543 14.9896 18.9333 14.9896 19.0295 15.1435Z" fill="#DB1F26"/>
<path d="M25.5717 17.1453C25.8411 16.9914 25.9662 16.7028 25.8508 16.5103C25.7353 16.3179 25.4274 16.2794 25.158 16.4334C24.8886 16.5873 24.7636 16.8663 24.879 17.0684C25.0041 17.2704 25.312 17.2993 25.5717 17.1453ZM20.0107 16.4141C20.1839 16.3083 20.4436 16.4237 20.5783 16.6643C20.713 16.9048 20.6842 17.1838 20.511 17.28C20.3378 17.3859 20.078 17.2704 19.9433 17.0299C19.799 16.7894 19.8279 16.5103 20.0107 16.4141Z" fill="#DF8A2D"/>
<path d="M30.1322 15.5384C30.0745 15.2883 30.2766 15.0285 30.5748 14.9612C30.8731 14.8938 31.1617 15.0477 31.2194 15.2979C31.2772 15.5481 31.0751 15.8078 30.7769 15.8752C30.4786 15.9425 30.19 15.7886 30.1322 15.5384Z" fill="#69823D"/>
<path d="M28.9874 17.5874C29.4012 17.6066 29.7571 17.3565 29.7764 17.0294C29.7956 16.7022 29.4685 16.4136 29.0548 16.3944C28.6411 16.3751 28.2851 16.6253 28.2659 16.9524C28.2466 17.2795 28.5641 17.5585 28.9874 17.5874ZM17.7114 17.7702C17.8653 18.0396 18.1443 18.1647 18.3464 18.0492C18.5388 17.9337 18.5773 17.6259 18.4234 17.3565C18.2694 17.0871 17.9808 16.962 17.7884 17.0775C17.5959 17.1929 17.5574 17.5008 17.7114 17.7702ZM20.8671 14.6337C21.0115 14.5471 21.2231 14.6433 21.3386 14.8453C21.454 15.0474 21.4252 15.2687 21.2905 15.3553C21.1462 15.4419 20.9345 15.3456 20.819 15.1436C20.7036 14.9416 20.7228 14.7106 20.8671 14.6337Z" fill="#FABB1B"/>
<path d="M23.2723 17.2224C23.051 17.0588 22.7816 17.0492 22.6758 17.1935C22.57 17.3378 22.6758 17.5784 22.8971 17.7419C23.1184 17.9055 23.3878 17.9151 23.4936 17.7708C23.5994 17.6265 23.5032 17.3763 23.2723 17.2224ZM31.4022 18.0979C31.1906 17.8478 31.2675 17.4244 31.585 17.1454C31.9025 16.8664 32.3355 16.8472 32.5472 17.0973C32.7588 17.3475 32.6819 17.7708 32.3644 18.0498C32.0469 18.3288 31.6139 18.3481 31.4022 18.0979Z" fill="#3F9FCA"/>
<path d="M29.1124 42.555C28.8623 36.1088 28.1407 25.5736 25.5815 25.5736C22.724 25.5736 22.6277 35.9356 23.0896 43.1034C23.6572 43.1804 24.273 43.2285 24.9368 43.2381C27.0824 43.2574 29.1124 42.555 29.1124 42.555ZM16.6049 21.6962C16.6049 21.6962 19.0968 22.3793 25.0427 22.3793C30.9886 22.3793 33.4612 21.677 33.4612 21.677L32.1527 33.6362C31.181 30.49 28.7468 23.8129 25.5141 23.8129C23.3974 23.8129 20.819 26.1412 19.7895 30.7883C19.2892 27.8634 18.0673 23.8418 16.778 23.2356L16.6049 21.6962Z" fill="#3F9FCA"/>
<path d="M25.5237 23.8126C23.407 23.8126 20.8285 26.141 19.799 30.788C19.2987 27.8632 18.0768 23.8415 16.7876 23.2354L18.8658 40.9961C18.9139 41.4387 19.1833 41.8332 19.5874 42.0352C20.2705 42.3816 21.4635 42.8722 23.0799 43.1032C22.6084 35.9354 22.7046 25.5733 25.5718 25.5733C28.1406 25.5733 28.8526 36.1085 29.1027 42.5547C29.7185 42.3527 30.2284 42.141 30.594 41.9582C31.0174 41.7562 31.306 41.3521 31.3541 40.8903L32.1431 33.6263C31.1906 30.4897 28.7564 23.8126 25.5237 23.8126Z" fill="#FABB1B"/>
<path d="M24.7637 16.2983C25.4853 16.2214 26.4282 15.8943 27.3422 15.5479L28.9489 10.7661L25.1293 10.6218L23.6765 16.3657C24.0036 16.3561 24.3596 16.3368 24.7637 16.2983Z" fill="#D3D1D0"/>
<path d="M22.5123 14.2585C22.4546 14.4124 22.647 14.6241 22.9356 14.7203C23.2243 14.8165 23.5033 14.7684 23.5514 14.6145C23.561 14.576 23.561 14.5279 23.5514 14.4894C23.2724 14.3836 22.9453 14.2778 22.5604 14.1912C22.5412 14.2104 22.5219 14.2393 22.5123 14.2585ZM22.4353 19.1942C22.0409 19.175 21.6656 19.1461 21.3193 19.1172C21.1653 18.9056 21.1268 18.6554 21.2423 18.4918C21.4059 18.2609 21.7907 18.2609 22.1082 18.4918C22.3776 18.6843 22.5027 18.9729 22.4353 19.1942Z" fill="#843B22"/>
<path d="M24.5616 19.2523C19.1449 19.2523 16.653 18.2998 16.653 18.2998C16.7396 16.3563 17.2783 14.8266 18.7504 14.3936C21.4636 13.5951 23.1858 14.3263 24.0902 14.7207L23.8977 15.4904C23.3782 15.3269 22.7817 15.1922 22.3776 15.2114C21.1749 15.2788 21.2519 16.366 23.6765 16.3563L25.1293 10.6125L28.9489 10.7568L27.3421 15.5385C28.3812 15.1441 29.3722 14.7304 29.9302 14.6149C31.5947 14.2782 32.653 15.6251 32.8455 16.3371C33.0379 17.0491 33.1822 18.0882 33.1822 18.0882C33.1822 18.0882 30.5075 19.2523 24.5616 19.2523ZM34.5292 19.3197C34.4618 18.829 34.6735 18.2132 34.279 17.8669C33.8749 17.5205 33.6152 17.4435 33.6152 17.4435L32.2778 11.0839C32.172 10.5644 31.8352 10.1892 31.4312 10.1218C30.5652 9.98711 28.718 9.79468 25.1004 9.79468C21.5887 9.79468 19.6452 9.98711 18.6734 10.1314C18.1731 10.2084 17.7594 10.6702 17.6055 11.3052L16.143 17.4435C16.143 17.4435 15.4215 17.5879 15.3349 18.0593C15.2483 18.5307 15.3349 18.8001 15.2098 19.1176C15.0847 19.4351 14.7865 19.6564 14.9308 19.9547C15.1136 20.3203 17.567 21.5518 25.033 21.5518C32.4799 21.5518 34.6927 20.4261 34.7793 20.1567C34.8659 19.8873 34.5869 19.8104 34.5292 19.3197Z" fill="#EAE6E4"/>
<path d="M5.66562 11.6758C5.16895 11.6758 4.72004 11.9309 4.44305 12.3529V12.3627C3.43061 12.3922 2.56143 13.138 2.3513 14.1587L1.9788 16.0233H1.93104C1.44392 16.0233 0.555644 16.2588 0.17359 17.7898C0.0398705 18.3197 0.0016647 18.8398 0.0016647 18.8889C-0.0269894 19.4385 0.316862 19.939 0.832636 20.096C0.86129 20.1058 0.9377 20.1254 1.10007 20.1647C1.6445 24.7183 3.73625 42.0886 3.81266 42.6677C3.94638 43.6785 4.92062 44.4734 6.71628 45.0426C8.15854 45.494 9.92554 45.7394 11.683 45.7296C13.4118 45.7197 15.2647 45.4253 16.7739 44.9248C18.665 44.2967 19.6393 43.5018 19.773 42.491C19.8781 41.6863 21.4636 26.2002 22.0844 20.096C22.285 20.0666 22.3805 20.0469 22.3901 20.0469C22.9154 19.9488 23.307 19.4974 23.3452 18.9478C23.3643 18.565 23.3834 17.2402 22.6671 16.4649C22.371 16.141 21.9889 15.9644 21.5782 15.9546C21.4158 15.4835 21.1961 15.091 21.0051 14.7966C20.7186 14.3648 20.2506 14.0802 19.7443 14.0311L7.39442 12.716L6.64941 12.0487C6.36287 11.8034 6.02858 11.6758 5.66562 11.6758Z" fill="white"/>
<path d="M1.94592 19.4902C1.94592 19.4902 2.04959 17.8129 2.71863 17.8035C3.39711 17.8035 3.68922 17.8035 3.68922 17.8035L4.24519 15.1085C4.34885 14.5996 4.82943 14.2415 5.34771 14.2886L5.78118 14.3263L6.14869 13.7609C6.25234 13.6102 6.46907 13.5725 6.61041 13.695L7.61871 14.5713L20.161 15.8717C20.3306 15.8906 20.4814 15.9848 20.585 16.1262C20.7924 16.4371 21.1316 17.0308 21.1693 17.7375H22.0457C22.4885 17.7375 22.743 18.5856 22.6959 19.4149C22.6959 19.4149 18.7852 20.1028 12.2738 20.131C4.2075 20.1499 1.94592 19.4902 1.94592 19.4902Z" fill="#4E281A"/>
<path d="M3.00134 20.1881C3.00134 20.1881 5.60215 41.249 5.67753 41.8333C5.80004 42.7285 8.86258 43.8027 12.3115 43.7839C15.7604 43.7745 19.0491 42.5212 19.1622 41.6637C19.2752 40.8061 21.4426 20.1316 21.4426 20.1316C21.4426 20.1316 18.6345 20.6876 12.0665 20.7064C6.44081 20.7347 3.00134 20.1881 3.00134 20.1881Z" fill="#FCBA21"/>
</svg>
