<svg width="11" height="15" viewBox="0 0 11 15" fill="none" xmlns="http://www.w3.org/2000/svg">
<path d="M0 2.91842C0 2.91842 0.0515523 2.08427 0.384277 2.07958C0.721687 2.07958 0.866961 2.07958 0.866961 2.07958L1.14345 0.739314C1.195 0.486256 1.434 0.308178 1.69174 0.33161L1.90731 0.350355L2.09007 0.0691785C2.14162 -0.00580167 2.2494 -0.0245466 2.3197 0.0363748L2.82113 0.472197L9.05854 1.1189C9.14289 1.12827 9.21787 1.17514 9.26942 1.24543C9.37252 1.40008 9.54123 1.69531 9.55997 2.04678H9.99579C10.216 2.04678 10.3426 2.46854 10.3191 2.88093C10.3191 2.88093 8.37435 3.22303 5.13614 3.23709C1.12471 3.24646 0 2.91842 0 2.91842Z" fill="#4E281A"/>
<path d="M0.524841 3.26542C0.524841 3.26542 1.81825 13.7392 1.85574 14.0298C1.91666 14.475 3.43969 15.0092 5.15486 14.9998C6.87003 14.9951 8.50554 14.3719 8.56177 13.9454C8.61801 13.519 9.69585 3.2373 9.69585 3.2373C9.69585 3.2373 8.29934 3.51379 5.03302 3.52317C2.23532 3.53723 0.524841 3.26542 0.524841 3.26542Z" fill="#FCBA21"/>
</svg>
