<svg width="14" height="18" viewBox="0 0 14 18" fill="none" xmlns="http://www.w3.org/2000/svg">
<path d="M13.1273 17.9748L14 7.78231L13.0151 4L0.964081 4.02519L0 7.81169L0.910063 18L13.1273 17.9748Z" fill="#EC222C"/>
<path d="M9.75061 0C8.73232 0.00450959 7.6892 1.18602 6.99793 2.66066C6.29838 1.19053 5.25112 0.00901766 4.23284 0.00901766C3.19386 0.0135272 1.91894 1.21308 1 4L3.00345 3.99549C3.21456 2.38106 3.5664 1.38895 4.14177 1.38895C4.74198 1.38895 5.13108 2.38106 5.36702 3.99098L8.63297 3.98196C8.86478 2.37204 9.24974 1.37542 9.84995 1.37542C10.4253 1.37542 10.7854 2.36302 11.0007 3.97745L13 3.97294C12.0686 1.19504 10.7896 0 9.75061 0Z" fill="#FCBA21"/>
<path d="M7.00775 14C5.03488 14.0044 3.35271 12.369 2.74419 10.0829L2.24419 10.3503L2 9.74421L3.37597 9.01783L3.62015 9.62389L3.19767 9.8467C3.61628 11.5579 5.16279 12.828 7.00388 12.8235C8.84496 12.8191 10.3876 11.5446 10.8023 9.82888L10.3798 9.60606L10.6202 9L12 9.72192L11.7597 10.328L11.2558 10.0651C10.6589 12.3467 8.98449 13.9955 7.00775 14Z" fill="#FCBA21"/>
</svg>
