<svg width="120" height="120" viewBox="0 0 120 120" fill="none" xmlns="http://www.w3.org/2000/svg">
<rect width="120" height="120" fill="#FFBC0D"/>
<rect x="39" y="47" width="18" height="18" rx="3" stroke="black" stroke-width="2"/>
<rect x="43" y="51" width="10" height="10" fill="black"/>
<rect x="63" y="47" width="18" height="18" rx="3" stroke="black" stroke-width="2"/>
<rect x="67" y="51" width="10" height="10" fill="black"/>
<rect x="39" y="71" width="18" height="18" rx="3" stroke="black" stroke-width="2"/>
<rect x="43" y="75" width="10" height="10" fill="black"/>
<rect x="62" y="70" width="6" height="6" fill="black"/>
<rect x="62" y="70" width="6" height="6" fill="black"/>
<rect x="68" y="76" width="8" height="8" fill="black"/>
<rect x="68" y="76" width="8" height="8" fill="black"/>
<rect x="62" y="84" width="6" height="6" fill="black"/>
<rect x="62" y="84" width="6" height="6" fill="black"/>
<rect x="76" y="84" width="6" height="6" fill="black"/>
<rect x="76" y="84" width="6" height="6" fill="black"/>
<rect x="76" y="70" width="6" height="6" fill="black"/>
<rect x="76" y="70" width="6" height="6" fill="black"/>
<path d="M32.6156 30.566V34.715H33.3626V30.566H32.6156ZM30.0416 30.962V31.331C30.0416 32.735 28.9076 33.806 26.8016 34.292L27.0626 34.904C29.4386 34.328 30.8516 33.014 30.8516 30.962H30.0416ZM27.2246 30.962V31.574H30.3836V30.962H27.2246ZM30.5636 31.736V32.33H32.7416V31.736H30.5636ZM30.4916 33.293V33.878H32.6966V33.293H30.4916ZM28.1246 35.093V35.696H32.6246V36.515H28.1516V38.387H28.8896V37.091H33.3626V35.093H28.1246ZM28.1516 38.027V38.621H33.6326V38.027H28.1516ZM41.1379 30.566V38.702H41.8579V30.566H41.1379ZM38.1769 33.482V34.103H39.7339V33.482H38.1769ZM39.5089 30.755V38.288H40.2109V30.755H39.5089ZM36.6109 31.826V32.861C36.6109 34.355 35.9809 35.84 34.8469 36.524L35.3059 37.082C36.5029 36.326 37.1869 34.643 37.1869 32.861V31.826H36.6109ZM36.7639 31.826V32.861C36.7639 34.562 37.4209 36.164 38.6089 36.884L39.0679 36.335C37.9519 35.687 37.3399 34.274 37.3399 32.861V31.826H36.7639ZM35.0719 31.511V32.132H38.7889V31.511H35.0719ZM50.0764 32.807V33.419H52.1284V32.807H50.0764ZM51.7054 30.575V36.533H52.4524V30.575H51.7054ZM47.2594 37.91V38.522H52.6774V37.91H47.2594ZM47.2594 36.011V38.225H48.0064V36.011H47.2594ZM47.8354 31.583V32.24C47.8354 33.392 46.9984 34.472 45.7834 34.904L46.1704 35.498C47.5294 34.994 48.4474 33.716 48.4474 32.24V31.583H47.8354ZM47.9794 31.583V32.231C47.9794 33.608 48.8524 34.832 50.1754 35.309L50.5534 34.724C49.3744 34.31 48.5824 33.284 48.5824 32.231V31.583H47.9794ZM46.0174 31.232V31.835H50.3644V31.232H46.0174ZM60.743 32.483V33.104H62.795V32.483H60.743ZM58.61 31.061V32.06C58.61 33.302 57.791 34.454 56.585 34.904L56.972 35.498C58.331 34.949 59.213 33.635 59.213 32.06V31.061H58.61ZM58.754 31.061V32.087C58.754 33.536 59.627 34.796 60.923 35.3L61.328 34.724C60.149 34.292 59.357 33.221 59.357 32.087V31.061H58.754ZM62.516 30.575V36.659H63.263V30.575H62.516ZM58.034 37.91V38.522H63.461V37.91H58.034ZM58.034 35.984V38.198H58.781V35.984H58.034ZM65.1973 34.454V35.075H65.7193C67.0243 35.075 67.7983 35.039 68.7343 34.859L68.6623 34.247C67.7533 34.427 66.9973 34.454 65.7193 34.454H65.1973ZM65.1973 31.16V34.787H65.9173V31.772H68.3473V31.16H65.1973ZM65.6923 32.78V33.365H68.2483V32.78H65.6923ZM70.9933 30.566V35.498H71.7043V30.566H70.9933ZM69.6793 32.69V33.302H71.2183V32.69H69.6793ZM69.2023 30.719V35.453H69.9043V30.719H69.2023ZM66.2503 35.93V36.542H70.9663V38.702H71.7043V35.93H66.2503ZM81.5878 30.566V34.778H82.3438V30.566H81.5878ZM77.0338 35.174V35.768H81.5968V36.578H77.0608V38.36H77.7898V37.136H82.3438V35.174H77.0338ZM77.0608 38.018V38.612H82.6408V38.018H77.0608ZM76.0258 31.115V31.709H80.3908V31.115H76.0258ZM75.8818 34.508C77.3128 34.499 79.2028 34.445 80.8228 34.202L80.7778 33.653C79.1938 33.851 77.2498 33.887 75.8008 33.887L75.8818 34.508ZM76.8268 31.385V34.157H77.5468V31.385H76.8268ZM78.8608 31.385V34.157H79.5898V31.385H78.8608ZM87.2301 30.854V31.304C87.2301 32.465 85.7991 33.437 84.3141 33.662L84.6111 34.265C86.3031 33.977 87.8871 32.861 87.8871 31.304V30.854H87.2301ZM87.3651 30.854V31.304C87.3651 32.843 88.9581 33.977 90.6321 34.265L90.9291 33.662C89.4621 33.437 88.0131 32.438 88.0131 31.304V30.854H87.3651ZM87.2301 35.606V38.702H87.9681V35.606H87.2301ZM83.9451 35.147V35.768H91.2981V35.147H83.9451Z" fill="black"/>
<path d="M9.38095 22.572V23.784H19.401V22.572H9.38095ZM13.617 20.004V23.112H15.105V20.004H13.617ZM10.161 14.904V16.104H18.561V14.904H10.161ZM10.221 19.32V20.508H18.537V19.32H10.221ZM11.709 15.9V19.464H13.209V15.9H11.709ZM15.537 15.9V19.464H17.025V15.9H15.537ZM28.088 13.98V21.96H29.6V13.98H28.088ZM22.268 23.652V24.852H29.888V23.652H22.268ZM22.268 21.156V24.132H23.756V21.156H22.268ZM23.588 14.7C21.896 14.7 20.588 15.852 20.588 17.484C20.588 19.116 21.896 20.292 23.588 20.292C25.268 20.292 26.576 19.116 26.576 17.484C26.576 15.852 25.268 14.7 23.588 14.7ZM23.588 15.984C24.452 15.984 25.112 16.548 25.112 17.484C25.112 18.408 24.452 18.984 23.588 18.984C22.724 18.984 22.052 18.408 22.052 17.484C22.052 16.548 22.724 15.984 23.588 15.984ZM32.6471 19.716V20.904H40.3991V19.716H32.6471ZM31.4591 22.536V23.76H41.4791V22.536H31.4591ZM32.6471 14.808V20.052H34.1711V16.008H40.3151V14.808H32.6471ZM33.7031 17.244V18.408H40.0631V17.244H33.7031ZM42.4981 18.972V20.064H52.5181V18.972H42.4981ZM43.6261 20.676V21.696H49.8421V22.308H43.6501V24.264H45.1261V23.256H51.3181V20.676H43.6261ZM43.6501 23.928V24.948H51.6301V23.928H43.6501ZM43.7341 14.184V15.204H49.8181V15.804H43.7461V17.7H45.2221V16.752H51.2941V14.184H43.7341ZM43.7461 17.388V18.408H51.4861V17.388H43.7461ZM59.0237 15.084V15.816C59.0237 17.232 58.1837 18.684 56.3837 19.284L57.1397 20.472C59.2157 19.776 60.2477 17.892 60.2477 15.816V15.084H59.0237ZM59.3357 15.084V15.816C59.3357 17.76 60.3197 19.572 62.3477 20.256L63.0797 19.08C61.3517 18.492 60.5477 17.136 60.5477 15.816V15.084H59.3357ZM62.4437 16.656V17.88H64.5917V16.656H62.4437ZM56.8037 14.604V15.804H62.7437V14.604H56.8037ZM58.1477 21.084V22.284H64.1597V25.056H65.6717V21.084H58.1477ZM64.1597 13.98V20.568H65.6717V13.98H64.1597ZM75.1388 13.98V20.136H76.6508V13.98H75.1388ZM68.0348 18.744V19.944H68.9948C71.1788 19.944 72.6548 19.896 74.3348 19.62L74.1668 18.42C72.5348 18.696 71.1308 18.744 68.9948 18.744H68.0348ZM68.0228 14.484V15.672H71.6348V16.608H68.0348V19.524H69.5108V17.736H73.1108V14.484H68.0228ZM69.3188 20.616V24.924H76.6508V20.616H75.1628V21.612H70.7948V20.616H69.3188ZM70.7948 22.752H75.1628V23.724H70.7948V22.752ZM85.6619 13.98V25.056H87.1619V13.98H85.6619ZM86.8259 18.336V19.572H88.7819V18.336H86.8259ZM78.4499 15.636V16.824H84.9059V15.636H78.4499ZM81.7019 17.496C80.1059 17.496 78.9179 18.588 78.9179 20.124C78.9179 21.66 80.1059 22.752 81.7019 22.752C83.3099 22.752 84.4979 21.66 84.4979 20.124C84.4979 18.588 83.3099 17.496 81.7019 17.496ZM81.7019 18.72C82.4939 18.72 83.0699 19.248 83.0699 20.124C83.0699 21 82.4939 21.528 81.7019 21.528C80.9219 21.528 80.3459 21 80.3459 20.124C80.3459 19.248 80.9219 18.72 81.7019 18.72ZM80.9459 14.148V16.104H82.4459V14.148H80.9459ZM93.9049 17.736V18.96H95.7889V17.736H93.9049ZM91.5889 14.952V16.848C91.5889 18.732 90.9649 20.712 89.3449 21.684L90.2569 22.812C92.0089 21.744 92.7409 19.32 92.7409 16.848V14.952H91.5889ZM91.9129 14.952V16.776C91.9129 19.14 92.5129 21.504 94.2409 22.572L95.0569 21.396C93.5689 20.436 93.0409 18.588 93.0409 16.776V14.952H91.9129ZM97.6129 13.968V25.044H99.0409V13.968H97.6129ZM95.3569 14.16V24.54H96.7609V14.16H95.3569ZM102.832 19.608V22.752H104.32V19.608H102.832ZM106.864 19.608V22.752H108.352V19.608H106.864ZM100.588 22.524V23.748H110.608V22.524H100.588ZM105.592 14.544C103.216 14.544 101.464 15.696 101.464 17.496C101.464 19.284 103.216 20.448 105.592 20.448C107.968 20.448 109.708 19.284 109.708 17.496C109.708 15.696 107.968 14.544 105.592 14.544ZM105.592 15.708C107.164 15.708 108.232 16.38 108.232 17.496C108.232 18.612 107.164 19.284 105.592 19.284C104.008 19.284 102.94 18.612 102.94 17.496C102.94 16.38 104.008 15.708 105.592 15.708Z" fill="black"/>
<rect x="67.1421" y="101.071" width="10" height="2" transform="rotate(135 67.1421 101.071)" fill="black"/>
<rect x="54.4142" y="99.6571" width="10" height="2" transform="rotate(45 54.4142 99.6571)" fill="black"/>
</svg>
