<svg width="94" height="132" viewBox="0 0 94 132" fill="none" xmlns="http://www.w3.org/2000/svg">
<g filter="url(#filter0_i_16_4)">
<rect y="38" width="94" height="94" fill="#575252" fill-opacity="0.85"/>
</g>
<rect x="13" y="57" width="69" height="7" rx="2" fill="#403636"/>
<rect x="14" y="63" width="67" height="1" fill="white"/>
<rect x="14" y="57" width="67" height="1" fill="white"/>
<path d="M24.0279 6.6V8.3H30.9279V6.6H24.0279ZM24.0279 11.8V13.525H30.9279V11.8H24.0279ZM19.9029 4.675C16.5529 4.675 14.0779 6.925 14.0779 10.05C14.0779 13.2 16.5529 15.425 19.9029 15.425C23.2279 15.425 25.7279 13.2 25.7279 10.05C25.7279 6.925 23.2279 4.675 19.9029 4.675ZM19.9029 6.45C22.1029 6.45 23.7529 7.925 23.7529 10.05C23.7529 12.175 22.1029 13.65 19.9029 13.65C17.7029 13.65 16.0779 12.175 16.0779 10.05C16.0779 7.925 17.7029 6.45 19.9029 6.45ZM30.2529 3.35V16.725H32.3279V3.35H30.2529ZM24.9029 17.25C20.2279 17.25 17.3529 18.85 17.3529 21.575C17.3529 24.325 20.2279 25.9 24.9029 25.9C29.5529 25.9 32.4279 24.325 32.4279 21.575C32.4279 18.85 29.5529 17.25 24.9029 17.25ZM24.9029 18.9C28.3029 18.9 30.3779 19.9 30.3779 21.575C30.3779 23.275 28.3029 24.275 24.9029 24.275C21.4779 24.275 19.4029 23.275 19.4029 21.575C19.4029 19.9 21.4779 18.9 24.9029 18.9ZM45.876 4.15V5.4C45.876 8.625 41.901 11.325 37.776 11.95L38.601 13.625C43.301 12.825 47.701 9.725 47.701 5.4V4.15H45.876ZM46.251 4.15V5.4C46.251 9.675 50.676 12.825 55.326 13.625L56.151 11.95C52.076 11.325 48.051 8.55 48.051 5.4V4.15H46.251ZM45.876 17.35V25.95H47.926V17.35H45.876ZM36.751 16.075V17.8H57.176V16.075H36.751ZM59.724 14.1V15.775H80.149V14.1H59.724ZM69.924 17.725C65.099 17.725 62.174 19.225 62.174 21.825C62.174 24.425 65.099 25.9 69.924 25.9C74.749 25.9 77.674 24.425 77.674 21.825C77.674 19.225 74.749 17.725 69.924 17.725ZM69.924 19.375C73.474 19.375 75.574 20.25 75.574 21.825C75.574 23.375 73.474 24.275 69.924 24.275C66.399 24.275 64.274 23.375 64.274 21.825C64.274 20.25 66.399 19.375 69.924 19.375ZM68.599 5.4V6.075C68.599 8.625 64.924 10.65 60.874 11.1L61.624 12.725C66.299 12.175 70.449 9.7 70.449 6.075V5.4H68.599ZM69.474 5.4V6.075C69.474 9.7 73.599 12.175 78.274 12.725L79.024 11.1C74.974 10.65 71.299 8.625 71.299 6.075V5.4H69.474ZM61.599 4.5V6.175H78.324V4.5H61.599Z" fill="white"/>
<defs>
<filter id="filter0_i_16_4" x="0" y="38" width="94" height="98" filterUnits="userSpaceOnUse" color-interpolation-filters="sRGB">
<feFlood flood-opacity="0" result="BackgroundImageFix"/>
<feBlend mode="normal" in="SourceGraphic" in2="BackgroundImageFix" result="shape"/>
<feColorMatrix in="SourceAlpha" type="matrix" values="0 0 0 0 0 0 0 0 0 0 0 0 0 0 0 0 0 0 127 0" result="hardAlpha"/>
<feOffset dy="4"/>
<feGaussianBlur stdDeviation="2"/>
<feComposite in2="hardAlpha" operator="arithmetic" k2="-1" k3="1"/>
<feColorMatrix type="matrix" values="0 0 0 0 0 0 0 0 0 0 0 0 0 0 0 0 0 0 0.25 0"/>
<feBlend mode="normal" in2="shape" result="effect1_innerShadow_16_4"/>
</filter>
</defs>
</svg>
