<svg width="11" height="18" viewBox="0 0 11 18" fill="none" xmlns="http://www.w3.org/2000/svg">
<path d="M8.68109 0C8.53761 0 8.42725 0.040468 8.3831 0.0551834C8.31688 0.0846143 8.25434 0.125083 8.20652 0.180266L7.87174 0.559188H7.86438C7.8607 0.559188 7.85703 0.559188 7.84967 0.559188L7.1838 0.57758C6.9741 0.584938 6.79384 0.724736 6.73865 0.927073C6.73498 0.941789 6.40756 2.15581 6.10957 3.26683C4.92498 3.27418 4.23335 3.3404 3.85443 3.39927C3.47183 3.45445 3.15913 3.77451 3.05244 4.20861L2.54844 6.32028C2.37185 6.42328 2.22102 6.58516 2.17687 6.81692C2.1548 6.93097 2.1548 7.02294 2.15112 7.08916C2.15112 7.10387 2.15112 7.12595 2.15112 7.13698C2.14744 7.14434 2.14008 7.15538 2.1364 7.16273C2.07386 7.26206 1.90831 7.52326 2.06651 7.83965C2.12537 7.96105 2.25045 8.11188 2.64776 8.26271L3.51965 15.7234C3.55644 16.0619 3.74774 16.3341 4.05309 16.4886C4.43201 16.6799 5.22296 17 6.30823 17C7.39717 17 8.2617 16.6652 8.68109 16.4666C9.00483 16.3121 9.20349 16.0325 9.24028 15.6793L10.0496 8.27007C10.3255 8.15603 10.4727 8.02359 10.5279 7.83965C10.6088 7.5858 10.4984 7.39818 10.458 7.32828C10.4543 7.32461 10.4506 7.31725 10.4506 7.31357C10.4469 7.2915 10.4506 7.24735 10.4506 7.21056C10.458 7.0303 10.4727 6.6992 10.1894 6.46007C10.1379 6.41593 10.0938 6.38282 10.0496 6.34971L9.58241 4.12768C9.50148 3.73404 9.22188 3.44709 8.87239 3.38823C8.78042 3.37351 8.68109 3.3588 8.57072 3.34776L9.19613 1.71435C9.24028 1.59663 9.2366 1.46786 9.18877 1.35382C9.37272 0.919714 9.39847 0.603333 9.27339 0.35685C9.17038 0.139797 8.94597 0 8.68109 0Z" fill="white"/>
<path d="M8.75836 1.19921C8.78779 1.13299 8.94966 0.754067 8.86505 0.581161C8.77676 0.408255 8.56706 0.492869 8.56706 0.492869L8.21757 0.890187C8.21757 0.890187 8.34265 0.908579 8.37208 1.01527C8.40152 1.12195 8.2654 1.26543 8.2654 1.26543L7.86808 1.03366L7.20221 1.05205C7.20221 1.05205 6.80121 2.54199 6.56577 3.42124C6.8564 3.41388 7.49652 3.40652 8.03731 3.45435L8.76572 1.55238L8.62225 1.51559C8.62225 1.51927 8.72893 1.26911 8.75836 1.19921Z" fill="#EAE6E4"/>
<path d="M6.84905 6.84998C6.74604 6.95299 6.72029 7.10014 6.79755 7.1774C6.8748 7.25465 7.01828 7.2289 7.12497 7.12589C7.22797 7.02288 7.25373 6.87573 7.17647 6.79847C7.09921 6.72122 6.95206 6.74329 6.84905 6.84998ZM4.06784 5.79047C4.10095 5.84933 4.04944 5.94498 3.95011 6.00384C3.85078 6.0627 3.74042 6.05902 3.70731 6.00016C3.6742 5.9413 3.7257 5.84565 3.82503 5.78679C3.92436 5.7316 4.03105 5.73161 4.06784 5.79047Z" fill="#DB1F26"/>
<path d="M6.5694 6.55587C6.67241 6.49701 6.72024 6.38664 6.67609 6.31307C6.63195 6.23949 6.51422 6.22477 6.41121 6.28363C6.30821 6.3425 6.26038 6.44918 6.30453 6.52644C6.35235 6.6037 6.47008 6.61473 6.5694 6.55587ZM4.44303 6.27628C4.50924 6.23581 4.60857 6.27995 4.66008 6.37193C4.71158 6.4639 4.70055 6.57059 4.63433 6.60738C4.56811 6.64784 4.46878 6.6037 4.41727 6.51172C4.36209 6.41975 4.37313 6.31307 4.44303 6.27628Z" fill="#DF8A2D"/>
<path d="M8.31319 5.94139C8.29111 5.84574 8.36837 5.74641 8.48241 5.72066C8.59646 5.69491 8.70683 5.75377 8.7289 5.84942C8.75097 5.94507 8.67371 6.0444 8.55967 6.07015C8.44563 6.0959 8.33526 6.03704 8.31319 5.94139Z" fill="#69823D"/>
<path d="M7.87541 6.72485C8.0336 6.73221 8.16972 6.63655 8.17707 6.51147C8.18443 6.38639 8.05935 6.27602 7.90116 6.26867C7.74297 6.26131 7.60685 6.35696 7.59949 6.48204C7.59214 6.60712 7.71354 6.71381 7.87541 6.72485ZM3.56379 6.79474C3.62265 6.89775 3.72933 6.94558 3.80659 6.90143C3.88017 6.85728 3.89488 6.73956 3.83602 6.63655C3.77716 6.53354 3.66679 6.48572 3.59322 6.52987C3.51964 6.57401 3.50492 6.69174 3.56379 6.79474ZM4.77045 5.59544C4.82563 5.56233 4.90657 5.59912 4.95072 5.67637C4.99486 5.75363 4.98383 5.83824 4.93232 5.87135C4.87714 5.90446 4.7962 5.86767 4.75206 5.79042C4.70791 5.71316 4.71527 5.62487 4.77045 5.59544Z" fill="#FABB1B"/>
<path d="M5.69018 6.58527C5.60557 6.52273 5.50256 6.51905 5.46209 6.57423C5.42163 6.62942 5.46209 6.72139 5.54671 6.78393C5.63132 6.84647 5.73433 6.85015 5.7748 6.79496C5.81526 6.73978 5.77848 6.64413 5.69018 6.58527ZM8.79882 6.92005C8.71788 6.8244 8.74731 6.66253 8.86872 6.55584C8.99012 6.44915 9.15567 6.4418 9.2366 6.53745C9.31754 6.6331 9.28811 6.79497 9.1667 6.90165C9.0453 7.00834 8.87975 7.0157 8.79882 6.92005Z" fill="#3F9FCA"/>
<path d="M7.92326 16.2717C7.82761 13.8069 7.5517 9.77851 6.57312 9.77851C5.4805 9.77851 5.44371 13.7406 5.6203 16.4814C5.83735 16.5108 6.0728 16.5292 6.32664 16.5329C7.14702 16.5402 7.92326 16.2717 7.92326 16.2717ZM3.14075 8.29593C3.14075 8.29593 4.09357 8.55713 6.3671 8.55713C8.64064 8.55713 9.5861 8.28857 9.5861 8.28857L9.08578 12.8614C8.71422 11.6584 7.78347 9.10528 6.54737 9.10528C5.73802 9.10528 4.75209 9.99556 4.35845 11.7724C4.16715 10.6541 3.69993 9.11632 3.20697 8.88455L3.14075 8.29593Z" fill="#3F9FCA"/>
<path d="M6.551 9.10525C5.74165 9.10525 4.75572 9.99554 4.36208 11.7724C4.17078 10.6541 3.70357 9.11629 3.2106 8.88452L4.00523 15.6757C4.02363 15.8449 4.12664 15.9958 4.28115 16.073C4.54235 16.2054 4.99853 16.3931 5.61657 16.4814C5.43631 13.7406 5.4731 9.77848 6.5694 9.77848C7.55165 9.77848 7.82389 13.8068 7.91954 16.2717C8.15499 16.1944 8.34996 16.1135 8.48976 16.0436C8.65163 15.9663 8.762 15.8118 8.78039 15.6352L9.08206 12.8577C8.71785 11.6584 7.7871 9.10525 6.551 9.10525Z" fill="#FABB1B"/>
<path d="M6.26041 6.23205C6.53632 6.20262 6.89685 6.07754 7.24634 5.9451L7.86071 4.11671L6.4002 4.06152L5.8447 6.2578C5.96978 6.25412 6.10589 6.24676 6.26041 6.23205Z" fill="#D3D1D0"/>
<path d="M5.39955 5.45202C5.37748 5.51088 5.45106 5.59182 5.56142 5.62861C5.67179 5.6654 5.77848 5.647 5.79687 5.58814C5.80055 5.57342 5.80055 5.55503 5.79687 5.54032C5.69018 5.49985 5.5651 5.45938 5.41795 5.42627C5.41059 5.43363 5.40323 5.44466 5.39955 5.45202ZM5.37012 7.33928C5.21929 7.33192 5.07581 7.32088 4.94338 7.30985C4.88451 7.22891 4.8698 7.13326 4.91394 7.07072C4.97648 6.98243 5.12364 6.98243 5.24504 7.07072C5.34805 7.1443 5.39587 7.25466 5.37012 7.33928Z" fill="#843B22"/>
<path d="M6.18315 7.36143C4.11195 7.36143 3.15913 6.99723 3.15913 6.99723C3.19224 6.2541 3.39825 5.66916 3.96112 5.50361C4.99856 5.19827 5.65707 5.47786 6.00289 5.62869L5.92931 5.923C5.73065 5.86046 5.50256 5.80896 5.34805 5.81632C4.88819 5.84207 4.91762 6.25778 5.8447 6.2541L6.4002 4.05782L7.86071 4.113L7.24634 5.9414C7.64366 5.79056 8.02258 5.63237 8.23595 5.58823C8.8724 5.45947 9.27707 5.97451 9.35065 6.24674C9.42422 6.51898 9.47941 6.91629 9.47941 6.91629C9.47941 6.91629 8.45668 7.36143 6.18315 7.36143ZM9.99445 7.38719C9.96869 7.19956 10.0496 6.96412 9.8988 6.83168C9.74428 6.69924 9.64495 6.66981 9.64495 6.66981L9.13359 4.23809C9.09313 4.03943 8.96437 3.89595 8.80985 3.8702C8.47876 3.8187 7.77242 3.74512 6.38917 3.74512C5.04638 3.74512 4.30325 3.8187 3.93169 3.87388C3.74039 3.90331 3.5822 4.07989 3.52334 4.3227L2.96415 6.66981C2.96415 6.66981 2.68824 6.72499 2.65513 6.90526C2.62202 7.08552 2.65513 7.18853 2.6073 7.30993C2.55948 7.43133 2.44543 7.51595 2.50061 7.62999C2.57051 7.76979 3.50862 8.24068 6.36341 8.24068C9.21085 8.24068 10.057 7.81026 10.0901 7.70725C10.1232 7.60424 10.0165 7.57481 9.99445 7.38719Z" fill="#EAE6E4"/>
<path d="M4.61433 12.3384C4.5592 12.5005 4.42301 12.5848 4.42301 12.5848L4.35492 13.924C4.41328 13.9435 4.44247 13.9889 4.43274 14.0278C4.42949 14.0505 4.42301 14.0764 4.35816 14.1186C4.14738 14.2548 3.51831 14.4396 2.40607 14.4429C1.33275 14.4461 0.732856 14.2775 0.460472 14.1445C0.376163 14.1024 0.353466 14.0602 0.353466 14.0343C0.353466 13.9954 0.376164 13.9565 0.431289 13.937L0.356707 12.5978C0.356707 12.5978 0.220516 12.5135 0.165391 12.3513C0.132964 12.2638 0.207545 12.1633 0.301582 12.1827C0.658276 12.2476 1.18359 12.3578 2.38986 12.3546C3.57019 12.3513 4.11496 12.2378 4.47813 12.1698C4.56893 12.1535 4.64351 12.2508 4.61433 12.3384ZM2.36067 14.7185C1.39436 14.7217 0.875534 14.5401 0.765284 14.498C0.78474 14.6374 0.856077 14.8741 1.10901 15.0103L1.33924 17.6109C1.34572 17.6855 1.70241 18.0001 2.40931 18.0001C3.10325 17.9968 3.46642 17.7017 3.47291 17.6272L3.68693 15.0103C3.93013 14.8741 4.00146 14.6472 4.02416 14.5045C3.81663 14.5661 3.23295 14.7152 2.36067 14.7185Z" fill="#D7B58B"/>
<path d="M1.4884 14.0959C1.55325 13.4117 1.6862 12.9415 1.84509 12.9383C2.01371 12.9383 2.16287 13.4441 2.22124 14.1607C2.34121 14.164 2.46768 14.164 2.60063 14.1607C2.65576 13.4441 2.80167 12.935 2.97029 12.935C3.12918 12.935 3.26537 13.4052 3.33347 14.0926C3.43075 14.0764 3.52479 14.057 3.62207 14.0375C3.50209 13.2917 3.25565 12.7761 2.97029 12.7761C2.74331 12.7761 2.54226 13.0809 2.40931 13.5544C2.27636 13.0809 2.07207 12.7794 1.84509 12.7794C1.55973 12.7794 1.31329 13.2982 1.1998 14.0472C1.28087 14.0635 1.38139 14.0797 1.4884 14.0959Z" fill="#EDCEA1"/>
<rect x="1" y="9" width="3" height="3" fill="white"/>
<path d="M0.194559 9.98086C0.249685 9.84467 0.353452 9.75387 0.470188 9.68578C0.810668 9.43285 1.17385 9.41988 1.55648 9.21235C2.35418 8.78432 2.42227 7.7953 2.42227 7.7953C2.48388 8.0839 2.46767 8.3498 2.40282 8.58652C2.34769 8.75189 2.28284 8.89457 2.2115 9.01779C2.10125 9.19613 1.96181 9.35178 1.81265 9.47501C1.78347 9.50095 1.75428 9.52365 1.7251 9.54634C1.37489 9.79927 0.982529 9.90952 0.700417 10.13C0.441004 10.3311 0.369665 10.6489 0.353452 10.7299C0.353452 10.7299 0.353451 10.7299 0.350208 10.7299C0.226987 10.6262 0.0324262 10.3894 0.194559 9.98086ZM4.3095 11.1158C4.24789 11.0023 4.44894 10.9245 4.52028 10.7396C4.59161 10.5548 4.57865 10.3959 4.47164 10.2305C4.36787 10.0749 4.23492 9.99383 4.1117 9.87385C4.15386 9.77333 4.1798 9.66632 4.18628 9.54958C4.20574 9.32908 4.14737 9.06967 3.99172 8.90105C3.79392 8.68704 3.52478 8.62867 3.39831 8.6157C3.37562 8.61246 3.36913 8.58651 3.3821 8.5703C3.47289 8.48599 3.61882 8.25901 3.34319 7.77585C3.04486 7.25378 2.82436 6.97491 2.96055 6.70253C2.97353 6.7155 2.98649 6.72847 3.00919 6.73819C3.15511 6.81278 3.3367 6.66362 3.37886 6.45608C3.41777 6.2518 3.12593 5.80755 2.54549 6.09291C1.96505 6.37826 1.73158 7.28945 1.47541 7.75963C1.47217 7.76612 1.46569 7.77585 1.46244 7.78233C1.25815 8.11957 1.06035 8.36601 0.904704 8.43087C0.645291 8.54112 0.499372 8.58651 0.492887 8.82647C0.486401 9.05022 0.567467 8.99509 0.557739 9.09237C0.538283 9.26099 0.567467 9.37124 0.593408 9.43609C0.642048 9.34854 0.732842 9.22208 0.878762 9.13452C1.27761 8.89781 1.61485 8.66758 1.82886 8.01581C2.06558 7.28945 2.28932 6.26477 2.86976 6.30044C2.88273 6.30044 2.89246 6.30692 2.89894 6.31341C2.9638 6.33611 2.97028 6.42366 2.9638 6.45608C2.9638 6.45933 2.93786 6.48202 2.89894 6.52094C2.80815 6.6247 2.65899 6.85817 2.71411 7.22784C2.77572 7.63641 3.06756 7.91204 2.98001 8.44059C2.92813 8.74216 2.73032 8.95618 2.56819 9.08264C2.62332 9.1021 2.74654 9.16047 2.77248 9.34205C2.81463 9.64687 2.2569 9.79603 1.76401 9.9841C1.41705 10.1171 1.15439 10.2403 0.901461 10.4186C0.869034 10.4478 0.891734 10.4608 0.930646 10.451C1.24843 10.357 1.81265 10.2792 2.12395 10.2014C2.2342 10.1722 2.33796 10.1462 2.43849 10.1203C3.04162 9.93871 3.28806 9.64362 3.35292 9.38745C3.42101 9.10858 3.1616 8.98212 3.1616 8.98212C3.70637 8.8362 4.14088 9.5204 3.4048 10.1365C2.6071 10.8045 0.713386 10.9342 0.463701 10.9601C0.29184 10.9796 0.129707 11.0218 0.0486405 11.1158C0.0421551 11.132 0.0324272 11.145 0.0259419 11.1612C0.00972859 11.1969 0.00324267 11.2293 0 11.2585C0 11.265 0 11.2714 0 11.2779C0 11.4076 0.110251 11.5049 0.223745 11.6087C0.269142 11.6508 0.301569 11.6897 0.330753 11.7254L0.32751 11.7287C0.343723 11.7514 0.372907 11.7968 0.418304 11.8357C0.470187 11.8811 0.54801 11.9135 0.658261 11.8875C0.745813 11.8649 1.04414 11.787 1.42029 11.6638C1.48514 11.6411 1.55 11.6216 1.61809 11.5957H1.62133C1.75752 11.5471 1.89696 11.4984 2.03964 11.4401L2.05261 11.4336C2.11746 11.4076 2.18556 11.3784 2.25041 11.3525C2.2569 11.3493 2.26014 11.3493 2.26662 11.346C2.33472 11.3168 2.40606 11.2844 2.47091 11.2552C2.53901 11.2228 2.60386 11.1936 2.66547 11.1612C2.67196 11.1579 2.67844 11.1547 2.68169 11.1515C2.74005 11.1223 2.79842 11.0899 2.85355 11.0574C2.86003 11.0542 2.86327 11.0509 2.86976 11.0477C2.92813 11.012 2.9865 10.9796 3.03838 10.9439C3.41453 10.691 3.63179 10.5127 3.77122 10.37C3.83283 10.3149 3.87823 10.2565 3.9139 10.2014C3.91714 10.1981 3.92038 10.1916 3.92363 10.1884C3.96254 10.1398 4.00145 10.0846 4.03712 10.023C4.04036 10.0295 4.04036 10.0392 4.04036 10.049C4.04036 10.1203 4.0663 10.4024 3.79068 10.7948C3.40156 11.3525 2.38336 11.7838 2.05261 11.9102C1.7251 12.0367 1.79644 12.0789 1.82562 12.0789C2.39309 12.0918 2.64926 12.0821 3.01892 12.0659C3.17133 12.0367 3.77122 11.7578 4.1117 11.3136C4.1117 11.3136 4.2868 11.4984 4.12791 11.6833C3.96902 11.8681 3.71285 11.9881 3.69015 11.9946C3.67394 12.001 3.68367 12.0075 3.69988 12.0108C4.11494 11.9654 4.41327 11.9038 4.51704 11.8389C4.89318 11.6022 4.37112 11.2293 4.3095 11.1158Z" fill="#D1CEC9"/>
</svg>
