<svg width="18" height="18" viewBox="0 0 18 18" fill="none" xmlns="http://www.w3.org/2000/svg">
<path d="M15.5445 0C15.5157 0 15.49 7.34248e-08 15.4644 0.00320492C15.349 0.0160243 15.2529 0.092941 15.2208 0.201906L14.3523 2.98051C13.2402 2.97731 12.4711 2.93885 12.1794 2.92282C12.1698 2.92282 12.1634 2.92282 12.1538 2.92282C11.9519 2.92282 11.7724 3.05422 11.7019 3.25292L11.5417 3.71763C11.5032 3.8298 11.516 3.94838 11.5801 4.04773C11.6218 4.11182 11.6795 4.1631 11.75 4.19194L12.5127 14.2103C12.5255 14.3577 12.596 14.4955 12.7146 14.5821C12.8396 14.6782 13.0575 14.8128 13.3909 14.9314C13.7883 15.0692 14.2465 15.1429 14.7529 15.1461H14.7561H14.7593C15.2657 15.1397 15.724 15.0692 16.1214 14.9314C16.4547 14.816 16.6726 14.6782 16.7976 14.5821C16.913 14.4923 16.9867 14.3577 16.9995 14.2103L17.7655 4.15028C17.8328 4.11182 17.8905 4.05734 17.9321 3.99004C18.009 3.86184 18.0219 3.7016 17.9642 3.56379L17.8264 3.22408C17.7462 3.02538 17.5604 2.89718 17.352 2.89718C17.3424 2.89718 17.3328 2.89718 17.3232 2.89718C17.0252 2.91321 16.3009 2.95167 15.4355 2.96769L16.2079 0.499957C16.2432 0.381378 16.2015 0.256389 16.1022 0.182677C16.0445 0.141014 15.974 0.102556 15.9035 0.0705071C15.8938 0.0673023 15.8842 0.0640972 15.8746 0.0608923L15.7464 0.0192295C15.7368 0.0160247 15.724 0.0128196 15.7144 0.00961477C15.6535 0.00320507 15.599 0 15.5445 0Z" fill="white"/>
<path d="M11.9711 3.34897L11.8109 3.81367C11.7916 3.87136 11.8237 3.93225 11.8782 3.93546C12.1922 3.97071 13.1857 4.06365 14.5895 4.06365C15.9099 4.06365 17.086 3.9675 17.5604 3.91943C17.6693 3.90982 17.7366 3.78162 17.6918 3.67266L17.5539 3.33294C17.5155 3.24 17.429 3.17911 17.3328 3.18552C16.929 3.20795 15.7881 3.26885 14.5606 3.26885C13.3332 3.26885 12.4807 3.22718 12.1634 3.21116C12.0769 3.20475 12.0031 3.26244 11.9711 3.34897Z" fill="#D3D1D0"/>
<path d="M15.4932 0.288267L14.6504 2.97714C14.6856 2.98034 14.7465 2.98355 14.8138 2.98355L15.6567 0.294676C15.583 0.281857 15.5189 0.285062 15.4932 0.288267Z" fill="#FABB1B"/>
<path d="M15.1247 2.98656L15.9291 0.419477C15.9098 0.406657 15.8554 0.368199 15.7849 0.339355L14.9548 2.99297C15.0125 2.98977 15.0734 2.98977 15.1247 2.98656Z" fill="#DB1F26"/>
<path d="M12.2339 6.7909C12.2339 6.7909 12.7787 5.76535 13.5896 5.52498C13.5639 5.10515 13.5255 4.41931 13.5191 4.32317C12.8044 4.29753 12.3108 4.25907 12.0352 4.23022L12.4454 9.61117L12.7948 14.1909C12.8012 14.2582 12.8332 14.3191 12.8845 14.3575C13.0864 14.5114 13.6697 14.8639 14.7978 14.8639C15.0606 14.8639 15.2913 14.8447 15.49 14.8126C15.49 14.7485 15.4868 14.6652 15.49 14.6075C14.5574 14.7069 14.0767 14.4569 14.0543 14.1524C14.0318 13.8255 13.8011 9.3003 13.6344 6.36466C13.0255 6.98319 12.5127 9.26504 12.4807 10.0438L12.2339 6.7909Z" fill="#EAE6E4"/>
<path d="M13.9389 6.20776C14.6696 6.20776 15.2945 8.98636 15.3907 10.9798C15.4932 13.0854 15.4964 14.5981 15.4964 14.8128C16.1887 14.6718 16.5284 14.4218 16.6502 14.3128C16.6822 14.284 16.7047 14.2423 16.7079 14.1974L17.3392 5.711C16.929 6.04751 16.272 8.53127 16.272 8.53127C15.7015 6.4994 14.9196 5.47705 13.926 5.47705C12.9325 5.47705 12.2371 6.79104 12.2371 6.79104L12.4871 10.044C12.5223 9.13699 13.2082 6.20776 13.9389 6.20776Z" fill="#FABB1B"/>
<path d="M2.19664 14.4169C2.89504 14.1541 3.41704 13.9957 4.44664 13.9885C5.47624 13.9777 6.00184 14.1289 6.70384 14.3773L7.18984 13.9669C7.92064 11.3857 8.44265 7.69569 8.54705 6.92529L7.54264 6.93249C7.36624 7.41489 6.53824 9.3049 4.39984 9.3229C2.26504 9.3409 1.39744 7.46889 1.21384 6.99009L0.209442 7.00089C0.328242 7.77129 0.922242 11.4469 1.69984 14.0137L2.19664 14.4169Z" fill="#EC222C"/>
<path d="M0.483018 6.6843L1.28942 6.6771C1.34342 6.6771 1.39382 6.7095 1.41182 6.7635C1.49102 6.9939 2.25782 9.0315 4.38902 9.0099C6.52022 8.9883 7.24742 6.9399 7.32302 6.7059C7.34102 6.6555 7.38782 6.6195 7.44182 6.6195L8.29142 6.6123C8.53262 5.8455 8.75582 5.1651 8.94302 4.3623C8.64422 4.2759 8.14743 4.3587 8.11863 4.4739C8.07183 4.6683 8.04302 4.7691 7.98902 4.9635C7.85222 4.8159 7.60382 4.7403 7.33022 4.7151C7.26182 5.3991 7.18983 5.6511 7.01703 6.3495C7.04583 5.4855 7.08902 5.0067 7.23302 4.1103C6.92342 4.0491 6.52382 4.1067 6.40142 4.3299C6.32582 4.8411 6.28262 5.1255 6.25742 5.5683C6.21782 4.7619 6.19982 4.2975 6.12422 3.4623C5.73542 3.4983 5.37542 3.6819 5.31062 3.9231C5.32142 4.0311 5.33582 4.2219 5.34302 4.3299C5.07302 4.3263 4.78502 4.4451 4.68062 4.5315C4.56902 5.1291 4.56902 5.4855 4.40702 6.0975C4.40702 6.0975 4.33502 5.6259 4.54742 3.6567C4.55822 3.5379 4.11902 3.2427 3.80582 3.2031C3.74102 3.7755 3.68702 4.3515 3.63662 4.9203C3.60062 4.2471 3.54302 3.5667 3.46022 2.8827C3.22262 2.8431 2.71862 3.2715 2.73302 3.3867C2.87702 4.7367 2.88422 4.9491 2.89862 5.8527C2.76902 5.0319 2.71862 4.7295 2.60342 4.2363C2.29382 4.2615 1.85102 4.5999 1.87622 4.7115C1.99142 5.2623 2.01662 5.5035 2.05622 6.2271C1.89422 5.3523 1.77902 5.0751 1.57022 4.1931C1.55582 4.1391 1.00862 3.9807 0.706217 4.0635C0.882617 4.7547 1.07702 5.4495 1.15622 6.1299C0.979817 5.6835 0.814218 5.2263 0.663018 4.7547C0.360618 4.8447 -0.0173807 5.4279 0.000619291 5.4819C0.151819 5.9283 0.303018 6.2595 0.483018 6.6843Z" fill="#FCBA21"/>
<path d="M5.11984 10.0862C4.83184 10.0898 4.57624 10.4786 4.41064 11.0834C4.23424 10.4822 3.97505 10.097 3.68345 10.1006C3.17225 10.1042 2.77264 11.393 2.78704 12.977L3.19744 12.9734C3.18304 11.5046 3.40265 10.3094 3.68345 10.3058C3.96785 10.3022 4.20544 11.4002 4.21984 12.761L4.63025 12.7574C4.61585 11.4002 4.83544 10.2986 5.11984 10.295C5.40424 10.2914 5.64185 11.483 5.65625 12.9518L6.06665 12.9482C6.05585 11.3606 5.63104 10.0826 5.11984 10.0862Z" fill="#FCBA21"/>
<path d="M9.335 5.3999C7.7006 5.3999 6.1958 5.8535 4.7414 6.78591C3.8054 7.38711 3.1466 8.28351 3.0242 9.12591C2.963 9.53991 3.0494 9.90711 3.269 10.1591C3.2762 10.1663 3.2834 10.1735 3.287 10.1807C3.161 10.4903 3.1502 10.7639 3.1682 10.9511C3.179 11.0519 3.2114 11.1455 3.2654 11.2247C3.2546 11.2283 3.2474 11.2283 3.233 11.2283C3.2258 11.2283 3.2186 11.2283 3.2114 11.2283C3.143 11.2247 3.1214 11.2103 3.1178 11.2103C3.0566 11.1743 2.9846 11.1527 2.9162 11.1527C2.7902 11.1527 2.6714 11.2103 2.5994 11.3111C2.5238 11.4083 2.5022 11.5415 2.5346 11.6603C2.6462 12.0419 2.873 12.3011 3.1682 12.3911C3.1826 12.4811 3.2006 12.5675 3.2294 12.6467C3.2654 12.7475 3.3194 12.8483 3.3914 12.9383C3.3806 12.9563 3.3698 12.9707 3.359 12.9887C3.1718 13.3163 3.1322 13.6115 3.143 13.8239C3.0206 13.8743 2.927 13.9319 2.8838 13.9679C2.7506 14.0651 2.6966 14.2379 2.747 14.3963C2.783 14.5007 2.8586 14.5835 2.9558 14.6267C2.927 14.6771 2.9018 14.7275 2.8874 14.7671C2.837 14.9003 2.855 15.0479 2.9342 15.1667C3.0062 15.2747 3.125 15.3431 3.251 15.3503C3.2726 15.5267 3.3194 15.7067 3.3842 15.8831C3.4814 16.1495 3.6902 16.3583 3.9566 16.4555C4.5182 16.6571 5.7818 17.0135 7.913 17.1323C8.0714 17.1467 8.2622 17.1539 8.417 17.1575C8.4422 17.1575 8.471 17.1575 8.4926 17.1611C8.795 17.1719 9.1046 17.1755 9.407 17.1755C10.7282 17.1755 11.927 17.0819 12.9638 16.8983C13.8206 16.7471 14.3822 16.5635 14.7026 16.4375C14.969 16.3331 15.1706 16.1135 15.257 15.8399C15.2966 15.7031 15.3326 15.5555 15.365 15.4043C15.653 15.2747 15.8582 15.0371 15.9698 14.8787C16.0562 14.7563 16.067 14.5979 15.9986 14.4647C15.9302 14.3315 15.7934 14.2487 15.6422 14.2487C15.6098 14.2487 15.5738 14.2523 15.545 14.2595C15.4946 14.2739 15.4622 14.2739 15.4406 14.2739C15.509 14.1767 15.545 14.0615 15.5414 13.9391C15.5342 13.5467 15.4082 13.2443 15.3038 13.0607C15.275 13.0103 15.2426 12.9671 15.2066 12.9275C15.2894 12.8159 15.3506 12.6971 15.3902 12.5711C15.419 12.4775 15.437 12.3767 15.4406 12.2795C15.7538 12.2363 16.0238 12.0635 16.1462 11.8151C16.2074 11.6927 16.2002 11.5487 16.1282 11.4335C16.0562 11.3183 15.9338 11.2499 15.8006 11.2499C15.7574 11.2499 15.7142 11.2571 15.6746 11.2715C15.6602 11.1887 15.6242 11.1131 15.5702 11.0447C15.5306 10.9943 15.4694 10.9403 15.383 10.9007C15.4874 10.6019 15.4442 10.3319 15.3974 10.1699C15.6134 9.92511 15.7034 9.57231 15.653 9.16551C15.6026 8.76591 15.4262 8.33751 15.1382 7.92711C14.8322 7.49151 14.4146 7.09551 13.9322 6.78591C12.4706 5.8535 10.9694 5.3999 9.335 5.3999Z" fill="white"/>
<path d="M3.52821 10.9153C3.51021 10.7425 3.52821 10.4833 3.68301 10.1917C3.71181 10.1377 3.75861 10.0945 3.81621 10.0765C4.24461 9.92174 6.26421 9.26294 9.32421 9.26294C12.3806 9.26294 14.465 9.95054 14.9078 10.1125C14.969 10.1341 15.0158 10.1845 15.0374 10.2457C15.0842 10.3861 15.131 10.6525 14.969 10.9333C14.7638 10.9693 14.7134 10.9621 14.5874 10.9585C13.9214 10.9261 14.2058 10.7893 13.8962 10.7137C13.6622 10.6561 13.5434 10.7245 13.259 10.7245C12.8342 10.7245 12.917 10.5733 12.953 10.4365C12.9962 10.2745 12.8738 10.1449 12.5318 10.2997C12.0638 10.5121 11.711 10.5265 11.2646 10.4977C10.9658 10.4797 10.7174 10.2853 10.0766 10.3609C9.51861 10.4257 9.21981 10.5769 9.01101 10.6129C8.96061 10.6129 8.91381 10.6129 8.86341 10.6165C8.67621 10.5877 8.52141 10.4437 8.18301 10.4869C7.80861 10.5337 7.63581 10.5841 7.30821 10.6309C6.91581 10.6849 6.55221 10.3753 6.18861 10.3825C5.95101 10.3861 5.72421 10.4869 5.47581 10.6345C5.29221 10.7425 5.11941 10.8289 4.71981 10.8613C4.50381 10.8793 4.42101 10.8253 4.15821 10.8757C3.93141 10.9189 3.76581 11.0125 3.65061 11.0989C3.58581 11.0593 3.53541 10.9945 3.52821 10.9153ZM3.52461 13.9249C4.02501 13.8925 4.20861 14.1049 4.42821 14.1481C4.68021 14.1949 4.72701 14.1805 4.97541 14.1841C5.23101 14.1877 5.67021 14.2885 6.94101 14.3317C8.22621 14.3713 8.78781 14.1085 10.055 13.9717C10.8218 13.8889 11.495 14.1265 11.729 14.2237C11.7866 14.2489 11.8514 14.2453 11.909 14.2201C12.0494 14.1589 12.3266 14.0473 12.521 14.0077C12.7982 13.9501 13.0142 14.0977 13.1618 14.1265C13.3094 14.1589 13.3958 14.0437 13.5542 14.0293C13.8746 14.0005 13.9682 14.2093 14.2454 14.2057C14.519 14.2021 14.5802 14.1193 14.7026 14.0905C14.8106 14.0653 14.9546 14.0977 15.0626 14.1301C15.131 14.0941 15.1778 14.0221 15.1778 13.9429C15.1706 13.6225 15.0698 13.3813 14.9906 13.2373C14.9366 13.1437 14.8394 13.0825 14.7278 13.0753C11.6066 12.8773 5.02941 13.0033 3.92781 13.0249C3.82341 13.0285 3.72621 13.0825 3.67581 13.1689C3.50661 13.4605 3.49581 13.7161 3.51381 13.8709C3.51381 13.8889 3.51741 13.9069 3.52461 13.9249Z" fill="#843A22"/>
<path d="M10.3862 14.8034C8.777 14.9186 8.4962 17.147 8.0498 16.4162C7.5998 15.6854 7.229 15.1238 6.0446 14.9258C5.4866 14.8322 5.2454 14.6234 5.2526 14.5622C5.2634 14.429 5.5802 14.4218 5.9978 14.483C7.9886 14.789 8.831 14.3282 9.785 14.231C10.4078 14.1698 10.9982 14.2094 11.4554 14.3174C11.4842 14.3246 11.4806 14.3642 11.4518 14.3678C10.8038 14.4362 10.739 14.7782 10.3862 14.8034Z" fill="#FEBB15"/>
<path d="M14.411 14.922C14.411 14.9184 14.4074 14.9184 14.411 14.922ZM3.2258 14.8968C3.2078 14.94 3.2438 14.994 3.2906 14.9832C3.773 14.9004 3.7154 15.192 4.0358 15.2712C4.205 15.3144 4.4966 15.2604 4.6982 15.2244C5.3426 15.1128 5.2706 15.4404 5.7458 15.4296C5.9726 15.426 6.1922 15.3396 6.2714 15.3036C6.311 15.2856 6.3074 15.228 6.2642 15.2136C5.933 15.102 4.9394 15.0804 4.9142 14.5008C4.9106 14.4576 4.8746 14.4288 4.8278 14.436C4.637 14.4612 4.3454 14.4756 3.9314 14.2164C3.5534 13.9752 3.197 14.1804 3.0926 14.2596C3.0782 14.2704 3.0818 14.2956 3.1034 14.2956C3.3482 14.292 3.6434 14.4504 3.4454 14.6088C3.3158 14.7132 3.2546 14.8212 3.2258 14.8968ZM12.719 14.2272C12.3842 14.166 12.0746 14.4396 11.9126 14.526C11.7722 14.598 11.567 14.5908 11.4698 14.5836C11.4554 14.5836 11.4482 14.6016 11.459 14.6124C11.5166 14.6592 11.6174 14.7312 11.8082 14.76C12.0422 14.796 12.3302 14.7168 12.4454 14.7132C12.791 14.6988 12.8198 15.2172 13.3706 15.2388C13.8026 15.2568 13.8854 14.724 14.6882 15.0732C15.167 15.282 15.5342 14.8572 15.6674 14.6664C15.689 14.6376 15.6602 14.6016 15.6278 14.6088C15.0986 14.742 15.113 14.3388 14.7566 14.3244C14.4866 14.3136 14.4722 14.6268 13.7594 14.3136C13.5614 14.2272 13.511 14.3676 13.2338 14.382C13.0142 14.3964 13.0574 14.2884 12.719 14.2272ZM12.7154 10.494C12.7262 10.4724 12.701 10.4508 12.6794 10.4616C12.3842 10.6236 11.6426 10.7676 11.243 10.7316C11.0162 10.71 10.7246 10.5264 10.4366 10.5156C9.929 10.4976 9.5294 10.6848 9.1226 10.8576C9.101 10.8648 9.1082 10.8972 9.1298 10.8972C9.2378 10.8936 9.3962 10.9008 9.5402 10.9476C9.785 11.0304 10.1126 11.3112 10.5086 11.3364C10.9046 11.3616 11.0774 11.2752 11.2142 11.2536C11.4554 11.214 11.5778 11.3364 11.7866 11.466C12.1178 11.6712 12.8162 11.628 13.1078 11.4732C13.367 11.3364 13.5938 11.0124 13.745 10.9008C13.7666 10.8828 13.7522 10.8504 13.7234 10.854C13.3814 10.9188 13.0214 10.9224 12.7874 10.8216C12.6002 10.7352 12.6758 10.5948 12.7154 10.494ZM6.1274 10.5444C5.8538 10.5516 5.5874 10.8324 5.4074 10.9044C5.2814 10.9548 5.0726 10.98 4.9898 10.9872C4.979 10.9872 4.9718 11.0052 4.9826 11.0124C5.1986 11.1672 5.483 11.3004 5.7062 11.2608C6.4406 11.1348 6.6962 11.5308 6.9914 11.5488C7.4342 11.5776 7.5998 11.3868 7.9238 11.502C8.1398 11.5812 8.2766 11.5308 8.453 11.3868C8.7338 11.1564 8.831 11.25 9.1118 11.1348C9.1478 11.1204 9.1406 11.0664 9.1046 11.0628C9.029 11.052 8.939 11.0268 8.8562 10.9728C8.6798 10.854 8.5286 10.7136 8.219 10.71C7.8518 10.7064 7.9058 10.836 7.157 10.8612C6.761 10.872 6.5558 10.5336 6.1274 10.5444ZM4.4714 11.7972C4.5722 11.6856 4.7522 11.4732 5.105 11.4012C5.1338 11.394 5.1446 11.358 5.1194 11.3364C4.979 11.2284 4.6154 10.98 4.2338 11.034C3.6362 11.1204 3.683 11.61 3.1934 11.5812C3.0782 11.574 2.9954 11.5488 2.9378 11.5164C2.909 11.4984 2.8766 11.5236 2.8838 11.556C2.9342 11.736 3.0818 12.0744 3.4274 12.0564C3.683 12.042 3.7334 11.9196 3.9062 11.8944C4.0754 11.8764 4.223 12.0672 4.4714 11.7972ZM13.6658 11.916C14.1662 11.9304 14.3462 11.61 15.0122 11.8728C15.3254 11.9952 15.7034 11.8764 15.8186 11.6496C15.8294 11.628 15.8114 11.6028 15.7898 11.6136C15.6386 11.682 15.239 11.7612 15.311 11.4336C15.3362 11.3256 15.3074 11.1888 15.0482 11.2104C14.8214 11.2284 14.7422 11.2752 14.5838 11.2464C14.4326 11.2176 14.3462 11.0988 14.0366 11.0988C13.601 11.1024 13.529 11.6784 12.9314 11.6856C12.9098 11.6856 12.899 11.7144 12.9206 11.7252C13.0322 11.79 13.2878 11.9052 13.6658 11.916Z" fill="#AAC33E"/>
<path d="M6.48741 11.5812C6.49821 11.5848 6.49821 11.5992 6.48741 11.6028C6.24621 11.6748 6.0626 12.0096 5.681 12.0096C5.213 12.006 5.08341 11.7936 4.79181 11.7504C4.77741 11.7468 4.77741 11.7288 4.79181 11.7252C4.87461 11.7072 5.0078 11.6712 5.1194 11.6244C5.2922 11.5524 5.51181 11.4156 5.76381 11.4192C6.04101 11.4264 6.37581 11.538 6.48741 11.5812ZM11.2862 11.4264C10.0118 11.808 10.0802 11.106 9.33861 11.2284C9.21621 11.25 9.05421 11.4228 8.79141 11.4264C8.65461 11.4264 8.62581 11.5092 8.61501 11.5416C8.57541 11.6604 8.83101 11.5992 9.24141 11.8188C9.44661 11.9304 9.54381 12.1248 9.73821 12.132C10.001 12.1428 10.1774 11.8944 10.3502 11.88C10.559 11.8656 10.6346 11.8908 10.8254 11.862C11.1242 11.8188 11.5418 11.3472 11.2862 11.4264ZM9.87501 15.2136C9.95421 15.2568 10.4582 15.1848 10.7678 15.318C11.0774 15.4512 11.1962 15.6024 11.4086 15.6168C11.8478 15.6456 11.8766 15.1596 12.2546 15.084C12.6002 15.0156 12.4562 14.8464 11.9846 14.9724C11.4806 15.1056 11.4878 14.7204 11.1134 14.7528C10.8866 14.7708 10.8578 15.0444 10.2962 15.0264C9.97221 15.012 9.78861 15.1668 9.87501 15.2136Z" fill="#EDC9A4"/>
<path d="M13.7306 7.09207C12.5462 6.33247 11.1206 5.76367 9.33501 5.76367C7.54941 5.76367 6.12381 6.33247 4.93941 7.09207C3.56061 7.97407 3.07461 9.37808 3.54261 9.92168C3.57141 9.95408 3.61101 9.96488 3.65061 9.95048C4.92141 9.45008 6.96261 8.94248 9.33501 8.96768C11.7146 8.94248 13.763 9.45728 15.0338 9.95768C15.0626 9.96848 15.0914 9.96128 15.113 9.93968C15.6062 9.40688 15.1238 7.98127 13.7306 7.09207ZM10.2314 6.32167C10.4402 6.37927 10.235 6.65648 10.1378 6.76808C10.1198 6.78968 10.0838 6.77887 10.0802 6.75367C10.055 6.60607 10.0154 6.26047 10.2314 6.32167ZM5.08701 8.75888C5.06181 8.77328 5.03301 8.75168 5.03661 8.72648C5.06181 8.57888 5.13741 8.24048 5.32461 8.37008C5.50461 8.49248 5.21661 8.68328 5.08701 8.75888ZM5.83581 7.51688C5.68461 7.49888 5.34621 7.43407 5.46861 7.24327C5.58741 7.05967 5.78901 7.34048 5.86821 7.46648C5.88261 7.49168 5.86101 7.52048 5.83581 7.51688ZM6.77181 8.42048C6.55581 8.39168 6.72501 8.08927 6.80421 7.96327C6.81861 7.93807 6.85461 7.94527 6.86181 7.97047C6.91221 8.11448 6.99861 8.44928 6.77181 8.42048ZM7.05261 7.00568C6.83661 7.01648 6.94461 6.68887 7.00221 6.55207C7.01301 6.52687 7.04901 6.52328 7.06341 6.54848C7.13181 6.68168 7.27941 6.99848 7.05261 7.00568ZM7.63581 7.66448C7.61781 7.68608 7.58541 7.67887 7.57821 7.65367C7.54221 7.50607 7.47381 7.16767 7.69701 7.21087C7.91301 7.25407 7.72581 7.54568 7.63581 7.66448ZM8.53941 8.47808C8.39541 8.43848 8.06781 8.32327 8.21541 8.15407C8.35941 7.99207 8.51781 8.29448 8.57901 8.43488C8.58981 8.46008 8.56821 8.48528 8.53941 8.47808ZM8.26581 6.59528C8.23701 6.59168 8.22621 6.55928 8.24421 6.53768C8.35221 6.42968 8.61141 6.19928 8.68701 6.41528C8.75901 6.62048 8.41701 6.60968 8.26581 6.59528ZM9.13701 7.67888C9.11181 7.68608 9.08661 7.66088 9.09741 7.63568C9.15501 7.49528 9.30621 7.18207 9.45741 7.35127C9.60141 7.51327 9.28101 7.63568 9.13701 7.67888ZM10.4006 8.14688C10.3394 8.28368 10.181 8.59328 10.0334 8.42048C9.89301 8.25488 10.217 8.14327 10.361 8.10367C10.3862 8.09287 10.4114 8.12168 10.4006 8.14688ZM11.2322 7.76167C11.2178 7.78687 11.1818 7.77968 11.1746 7.75448C11.1278 7.61048 11.0378 7.27568 11.2646 7.30448C11.477 7.33328 11.3114 7.63567 11.2322 7.76167ZM11.783 6.87608C11.6498 7.04888 11.4734 6.75367 11.4014 6.62047C11.387 6.59527 11.4086 6.56647 11.4374 6.57367C11.585 6.60607 11.9198 6.69608 11.783 6.87608ZM12.2258 8.43127C12.0278 8.52487 12.0026 8.18287 12.0026 8.03167C12.0026 8.00287 12.035 7.98848 12.0566 8.00648C12.1754 8.10008 12.431 8.33407 12.2258 8.43127ZM12.8306 7.47007C12.7118 7.38007 12.449 7.14968 12.6506 7.04888C12.845 6.95168 12.8774 7.29368 12.881 7.44488C12.8846 7.47008 12.8522 7.48807 12.8306 7.47007ZM13.835 8.31247C13.7558 8.44207 13.5542 8.72288 13.4318 8.52848C13.3166 8.34488 13.655 8.28007 13.8026 8.26207C13.8314 8.25847 13.8494 8.28727 13.835 8.31247ZM15.0698 12.1465C15.0806 12.2257 15.0806 12.3373 15.041 12.4597C15.005 12.5785 14.9438 12.6757 14.8898 12.7405C14.8394 12.8053 14.753 12.8413 14.6594 12.8377C9.50781 12.6109 4.70901 12.7873 3.89541 12.8197C3.81261 12.8233 3.73341 12.7909 3.69021 12.7297C3.65061 12.6793 3.60381 12.6073 3.57141 12.5209C3.53541 12.4201 3.52101 12.3157 3.51741 12.2401C3.61101 12.2149 3.74061 12.1645 3.82341 12.1429C3.93861 12.1141 4.07541 12.1609 4.25901 12.1213C4.44261 12.0817 4.65141 11.9233 4.79541 11.9485C4.93581 11.9737 5.19861 12.2293 5.64501 12.1933C6.09141 12.1573 6.34341 11.9449 6.44421 11.8657C6.54861 11.7865 6.69621 11.7649 6.95541 11.7973C7.21461 11.8297 7.49541 11.6893 7.64301 11.6749C7.79061 11.6605 7.94181 11.7541 8.09301 11.7649C8.24421 11.7757 8.37381 11.7217 8.46381 11.7253C8.55741 11.7289 8.93541 11.9161 9.08661 11.9737C9.23781 12.0313 9.42141 12.3157 9.71661 12.3157C10.0118 12.3157 10.2242 12.1573 10.3322 12.1105C10.4402 12.0637 10.577 12.1033 10.8938 12.0313C11.2142 11.9593 11.3618 11.8117 11.4338 11.7181C11.6066 11.4985 11.8478 11.8009 12.2654 11.8045C12.7334 11.8081 12.9926 11.9989 13.3598 12.0853C13.727 12.1717 14.1842 12.0889 14.4182 12.0097C14.663 11.9377 14.9078 12.0421 15.0698 12.1465ZM7.94181 16.7689C5.81061 16.6465 4.56861 16.2865 4.07901 16.1101C3.91341 16.0525 3.78381 15.9229 3.72261 15.7573C3.67581 15.6277 3.62901 15.4585 3.60741 15.2749C3.75861 15.3721 3.97461 15.5233 4.28421 15.5017C4.64421 15.4765 4.87461 15.3649 5.08701 15.4333C5.29941 15.5053 5.59101 15.7321 5.92581 15.6529C6.23541 15.5809 6.41541 15.5017 6.64941 15.3325C6.68541 15.3073 6.73221 15.3073 6.76821 15.3289C6.90501 15.4189 7.24341 15.6637 7.53501 16.1245C7.74381 16.4593 7.86261 16.6537 7.94181 16.7689ZM15.0122 15.3073C14.9906 15.4261 14.9582 15.5773 14.9114 15.7285C14.861 15.8977 14.735 16.0309 14.573 16.0957C14.0042 16.3189 12.413 16.8085 9.41061 16.8085C9.09381 16.8085 8.79141 16.8013 8.50701 16.7941C8.55741 16.7509 8.60421 16.6933 8.65101 16.6213C8.86341 16.2937 9.25221 15.5305 9.55821 15.4549C9.85341 15.3829 10.4366 15.4405 10.7282 15.5773C11.0198 15.7105 11.2646 15.8653 11.5814 15.8293C12.053 15.7717 12.0998 15.2893 12.4274 15.2785C12.5642 15.2749 12.6254 15.2821 12.8918 15.4045C13.133 15.5125 13.5074 15.5377 13.7846 15.4009C14.141 15.2245 14.1014 15.1669 14.3102 15.1741C14.501 15.1777 14.645 15.3181 15.0122 15.3073Z" fill="#E6A75D"/>
</svg>
