<svg width="51" height="49" viewBox="0 0 51 49" fill="none" xmlns="http://www.w3.org/2000/svg">
<path d="M44.0427 0C43.961 0 43.8883 2.08036e-07 43.8157 0.00908059C43.4888 0.0454021 43.2164 0.263332 43.1256 0.572065L40.6648 8.44476C37.5139 8.43568 35.3346 8.32671 34.5083 8.28131C34.4811 8.28131 34.4629 8.28131 34.4357 8.28131C33.8636 8.28131 33.3551 8.65361 33.1553 9.21659L32.7013 10.5332C32.5923 10.8511 32.6287 11.187 32.8103 11.4685C32.9283 11.6501 33.0918 11.7954 33.2915 11.8771L35.4527 40.2624C35.489 40.6801 35.6888 41.0706 36.0247 41.3157C36.3789 41.5882 36.9963 41.9695 37.9407 42.3055C39.0667 42.696 40.3651 42.9048 41.7998 42.9139H41.8089H41.818C43.2527 42.8957 44.5512 42.696 45.6772 42.3055C46.6215 41.9786 47.239 41.5882 47.5931 41.3157C47.92 41.0615 48.1289 40.6801 48.1652 40.2624L50.3354 11.7591C50.5261 11.6501 50.6896 11.4958 50.8076 11.3051C51.0255 10.9419 51.0618 10.4878 50.8984 10.0974L50.5079 9.13487C50.2809 8.57188 49.7543 8.20867 49.164 8.20867C49.1368 8.20867 49.1096 8.20867 49.0823 8.20867C48.2378 8.25407 46.1857 8.36303 43.734 8.40844L45.9223 1.41654C46.0222 1.08057 45.9042 0.726432 45.6227 0.517583C45.4592 0.399538 45.2595 0.290573 45.0597 0.19977C45.0325 0.190689 45.0052 0.181608 44.978 0.172528L44.6148 0.0544836C44.5875 0.0454032 44.5512 0.0363222 44.524 0.0272418C44.3514 0.00908101 44.1971 0 44.0427 0Z" fill="white"/>
<path d="M33.918 9.48833L33.464 10.805C33.4095 10.9684 33.5003 11.141 33.6547 11.15C34.5445 11.2499 37.3595 11.5133 41.3367 11.5133C45.0778 11.5133 48.4103 11.2408 49.7542 11.1046C50.0629 11.0774 50.2536 10.7142 50.1265 10.4055L49.736 9.44293C49.6271 9.1796 49.3819 9.00707 49.1095 9.02523C47.9653 9.0888 44.7327 9.26132 41.2549 9.26132C37.7772 9.26132 35.3618 9.14328 34.4628 9.09788C34.2176 9.07972 34.0088 9.24316 33.918 9.48833Z" fill="#D3D1D0"/>
<path d="M43.8975 0.816472L41.5094 8.43491C41.6093 8.44399 41.7818 8.45307 41.9725 8.45307L44.3606 0.834631C44.1518 0.79831 43.9702 0.807392 43.8975 0.816472Z" fill="#FABB1B"/>
<path d="M42.8531 8.46182L45.1323 1.18844C45.0778 1.15211 44.9235 1.04315 44.7237 0.961426L42.3719 8.47998C42.5353 8.4709 42.7079 8.4709 42.8531 8.46182Z" fill="#DB1F26"/>
<path d="M34.6626 19.2408C34.6626 19.2408 36.2063 16.3351 38.5036 15.6541C38.431 14.4645 38.322 12.5213 38.3038 12.2489C36.2789 12.1763 34.8805 12.0673 34.0996 11.9856L35.2619 27.2316L36.2517 40.2074C36.2698 40.3981 36.3606 40.5706 36.5059 40.6796C37.078 41.1155 38.7306 42.1143 41.9269 42.1143C42.6715 42.1143 43.3253 42.0598 43.8883 41.969C43.8883 41.7874 43.8792 41.5513 43.8883 41.3879C41.2459 41.6694 39.8838 40.9611 39.8202 40.0985C39.7567 39.1723 39.1029 26.3508 38.6307 18.0331C36.9054 19.7856 35.4526 26.2509 35.3618 28.4574L34.6626 19.2408Z" fill="#EAE6E4"/>
<path d="M39.4933 17.5884C41.5636 17.5884 43.3343 25.4611 43.6067 31.1091C43.8972 37.0749 43.9063 41.3608 43.9063 41.9692C45.8677 41.5697 46.8302 40.8614 47.1753 40.5527C47.2661 40.471 47.3296 40.3529 47.3387 40.2258L49.1275 16.1809C47.9653 17.1344 46.1038 24.1717 46.1038 24.1717C44.4875 18.4147 42.2719 15.5181 39.4569 15.5181C36.642 15.5181 34.6716 19.241 34.6716 19.241L35.3798 28.4576C35.4797 25.8879 37.4229 17.5884 39.4933 17.5884Z" fill="#FABB1B"/>
<path d="M6.22382 40.848C8.20262 40.1034 9.68161 39.6546 12.5988 39.6342C15.516 39.6036 17.0052 40.032 18.9942 40.7358L20.3712 39.573C22.4418 32.2596 23.9208 21.8046 24.2166 19.6218L21.3708 19.6422C20.871 21.009 18.525 26.364 12.4662 26.415C6.41762 26.466 3.95943 21.162 3.43923 19.8054L0.593445 19.836C0.930044 22.0188 2.61304 32.433 4.81623 39.7056L6.22382 40.848Z" fill="#EC222C"/>
<path d="M1.36855 18.9386L3.65335 18.9182C3.80635 18.9182 3.94914 19.01 4.00014 19.163C4.22454 19.8158 6.39713 25.589 12.4355 25.5278C18.4739 25.4666 20.5343 19.6628 20.7485 18.9998C20.7995 18.857 20.9321 18.755 21.0851 18.755L23.4923 18.7346C24.1757 16.562 24.8081 14.6342 25.3385 12.3596C24.4919 12.1148 23.0843 12.3494 23.0027 12.6758C22.8701 13.2266 22.7885 13.5122 22.6355 14.063C22.2479 13.6448 21.5441 13.4306 20.7689 13.3592C20.5751 15.2972 20.3711 16.0112 19.8815 17.99C19.9631 15.542 20.0855 14.1854 20.4935 11.6456C19.6163 11.4722 18.4841 11.6354 18.1373 12.2678C17.9231 13.7162 17.8007 14.522 17.7293 15.7766C17.6171 13.4918 17.5661 12.176 17.3519 9.80965C16.2503 9.91165 15.2303 10.4318 15.0467 11.1152C15.0773 11.4212 15.1181 11.9618 15.1385 12.2678C14.3735 12.2576 13.5575 12.5942 13.2617 12.839C12.9455 14.5322 12.9455 15.542 12.4865 17.276C12.4865 17.276 12.2825 15.9398 12.8843 10.3605C12.9149 10.0239 11.6705 9.18745 10.7831 9.07525C10.5995 10.697 10.4465 12.329 10.3037 13.9406C10.2017 12.0332 10.0385 10.1054 9.80393 8.16745C9.13074 8.05525 7.70273 9.26905 7.74353 9.59545C8.15153 13.4204 8.17193 14.0222 8.21272 16.5824C7.84553 14.2568 7.70273 13.4 7.37633 12.0026C6.49914 12.074 5.24453 13.0328 5.31593 13.349C5.64233 14.9096 5.71373 15.593 5.82593 17.6432C5.36693 15.1646 5.04054 14.3792 4.44895 11.8802C4.40815 11.7272 2.85774 11.2784 2.00094 11.513C2.50074 13.4714 3.05154 15.44 3.27594 17.3678C2.77614 16.103 2.30695 14.8076 1.87855 13.4714C1.02175 13.7264 -0.0492452 15.3788 0.00175465 15.5318C0.430154 16.7966 0.858549 17.735 1.36855 18.9386Z" fill="#FCBA21"/>
<path d="M14.5063 28.5777C13.6903 28.5879 12.9661 29.6894 12.4969 31.403C11.9971 29.6996 11.2627 28.6083 10.4365 28.6185C8.9881 28.6287 7.8559 32.2802 7.8967 36.7682L9.0595 36.758C9.0187 32.5964 9.6409 29.21 10.4365 29.1998C11.2423 29.1896 11.9155 32.3006 11.9563 36.1562L13.1191 36.146C13.0783 32.3006 13.7005 29.1795 14.5063 29.1693C15.3121 29.1591 15.9853 32.5352 16.0261 36.6968L17.1889 36.6866C17.1583 32.1884 15.9547 28.5675 14.5063 28.5777Z" fill="#FCBA21"/>
<path d="M26.4491 15.2993C21.8184 15.2993 17.5548 16.5845 13.434 19.2263C10.782 20.9297 8.91538 23.4695 8.56858 25.8563C8.39518 27.0293 8.63998 28.0697 9.26218 28.7837C9.28258 28.8041 9.30299 28.8245 9.31319 28.8449C8.95619 29.7221 8.92558 30.4973 8.97658 31.0277C9.00718 31.3133 9.09898 31.5785 9.25198 31.8029C9.22138 31.8131 9.20098 31.8131 9.16018 31.8131C9.13978 31.8131 9.11939 31.8131 9.09899 31.8131C8.90519 31.8029 8.84398 31.7621 8.83378 31.7621C8.66039 31.6601 8.45638 31.5989 8.26258 31.5989C7.90558 31.5989 7.56899 31.7621 7.36499 32.0477C7.15079 32.3231 7.08959 32.7005 7.18139 33.0371C7.49758 34.1183 8.14019 34.8527 8.97658 35.1077C9.01738 35.3627 9.06838 35.6075 9.14998 35.8319C9.25198 36.1175 9.40499 36.4031 9.60899 36.6581C9.57839 36.7091 9.54778 36.7499 9.51718 36.8009C8.98678 37.7291 8.87458 38.5655 8.90518 39.1673C8.55839 39.3101 8.29318 39.4733 8.17078 39.5753C7.79339 39.8507 7.64039 40.3403 7.78319 40.7891C7.88519 41.0849 8.09938 41.3195 8.37478 41.4419C8.29318 41.5847 8.22179 41.7275 8.18099 41.8397C8.03819 42.2171 8.08918 42.6353 8.31358 42.9719C8.51758 43.2779 8.85418 43.4717 9.21118 43.4921C9.27238 43.9919 9.40498 44.5018 9.58858 45.0016C9.86398 45.7564 10.4556 46.3481 11.2104 46.6235C12.8016 47.1947 16.3818 48.2044 22.4202 48.541C22.869 48.5818 23.4096 48.6022 23.8482 48.6124C23.9196 48.6124 24.0012 48.6124 24.0624 48.6226C24.9192 48.6532 25.7964 48.6635 26.6531 48.6635C30.3965 48.6635 33.7931 48.3982 36.7307 47.878C39.1583 47.4497 40.7495 46.9295 41.6573 46.5725C42.4121 46.2767 42.9833 45.6545 43.2281 44.8793C43.3403 44.4917 43.4423 44.0735 43.5341 43.6451C44.3501 43.2779 44.9315 42.6047 45.2477 42.1559C45.4925 41.8091 45.5231 41.3603 45.3293 40.9829C45.1355 40.6055 44.7479 40.3709 44.3195 40.3709C44.2277 40.3709 44.1257 40.3811 44.0441 40.4015C43.9013 40.4423 43.8095 40.4423 43.7483 40.4423C43.9421 40.1669 44.0441 39.8405 44.0339 39.4937C44.0135 38.3819 43.6565 37.5251 43.3607 37.0049C43.2791 36.8621 43.1873 36.7397 43.0853 36.6275C43.3199 36.3113 43.4933 35.9747 43.6055 35.6177C43.6871 35.3525 43.7381 35.0669 43.7483 34.7915C44.6357 34.6691 45.4007 34.1795 45.7475 33.4757C45.9209 33.1289 45.9005 32.7209 45.6965 32.3945C45.4925 32.0681 45.1457 31.8743 44.7683 31.8743C44.6459 31.8743 44.5235 31.8947 44.4113 31.9355C44.3705 31.7009 44.2685 31.4867 44.1155 31.2929C44.0033 31.1501 43.8299 30.9971 43.5851 30.8849C43.8809 30.0383 43.7585 29.2733 43.6259 28.8143C44.2379 28.1207 44.4929 27.1211 44.3501 25.9685C44.2073 24.8363 43.7075 23.6225 42.8915 22.4597C42.0245 21.2255 40.8413 20.1035 39.4745 19.2263C35.3333 16.5845 31.0799 15.2993 26.4491 15.2993Z" fill="white"/>
<path d="M9.99642 30.9269C9.94542 30.4373 9.99642 29.7029 10.435 28.8767C10.5166 28.7237 10.6492 28.6013 10.8124 28.5503C12.0262 28.1117 17.7484 26.2451 26.4184 26.2451C35.0782 26.2451 40.9839 28.1933 42.2385 28.6523C42.4119 28.7135 42.5445 28.8563 42.6057 29.0297C42.7383 29.4275 42.871 30.1823 42.412 30.9779C41.8306 31.0799 41.6877 31.0595 41.3307 31.0493C39.4438 30.9575 40.2496 30.5699 39.3724 30.3557C38.7094 30.1925 38.3728 30.3863 37.567 30.3863C36.3634 30.3863 36.598 29.9579 36.7 29.5703C36.8224 29.1113 36.4756 28.7441 35.5066 29.1827C34.1806 29.7845 33.181 29.8253 31.9162 29.7437C31.0696 29.6927 30.3658 29.1419 28.5502 29.3561C26.9692 29.5397 26.1226 29.9681 25.531 30.0701C25.3882 30.0701 25.2556 30.0701 25.1128 30.0803C24.5824 29.9987 24.1438 29.5907 23.185 29.7131C22.1242 29.8457 21.6346 29.9885 20.7064 30.1211C19.5946 30.2741 18.5644 29.3969 17.5342 29.4173C16.861 29.4275 16.2184 29.7131 15.5146 30.1313C14.9944 30.4373 14.5048 30.6821 13.3726 30.7739C12.7606 30.8249 12.526 30.6719 11.7814 30.8147C11.1388 30.9371 10.6696 31.2023 10.3432 31.4471C10.1596 31.3349 10.0168 31.1513 9.99642 30.9269ZM9.98622 39.4541C11.404 39.3623 11.9242 39.9641 12.5464 40.0865C13.2604 40.2191 13.393 40.1783 14.0968 40.1885C14.821 40.1987 16.0654 40.4843 19.666 40.6067C23.3074 40.7189 24.8986 39.9743 28.489 39.5867C30.6616 39.3521 32.569 40.0253 33.232 40.3007C33.3952 40.3721 33.5788 40.3619 33.742 40.2905C34.1398 40.1171 34.9252 39.8009 35.476 39.6887C36.2614 39.5255 36.8734 39.9437 37.2916 40.0253C37.7098 40.1171 37.9546 39.7907 38.4034 39.7499C39.3112 39.6683 39.5764 40.2599 40.3618 40.2497C41.1369 40.2395 41.3104 40.0049 41.6572 39.9233C41.9632 39.8519 42.3711 39.9437 42.6771 40.0355C42.8709 39.9335 43.0035 39.7295 43.0035 39.5051C42.9831 38.5973 42.6976 37.9139 42.4732 37.5059C42.3202 37.2407 42.0447 37.0673 41.7285 37.0469C32.8852 36.4859 14.2498 36.8429 11.1286 36.9041C10.8328 36.9143 10.5574 37.0673 10.4146 37.3121C9.93522 38.1383 9.90462 38.8625 9.95562 39.3011C9.95562 39.3521 9.96582 39.4031 9.98622 39.4541Z" fill="#843A22"/>
<path d="M29.4274 41.9425C24.868 42.2689 24.0724 48.5827 22.8076 46.5121C21.5326 44.4415 20.482 42.8504 17.1262 42.2894C15.5452 42.0242 14.8618 41.4325 14.8822 41.2591C14.9128 40.8817 15.8104 40.8613 16.9936 41.0347C22.6342 41.9017 25.021 40.5961 27.724 40.3207C29.4886 40.1473 31.1614 40.2596 32.4568 40.5656C32.5384 40.586 32.5282 40.6982 32.4466 40.7084C30.6106 40.9022 30.427 41.8711 29.4274 41.9425Z" fill="#FEBB15"/>
<path d="M40.8309 42.2787C40.8309 42.2685 40.8207 42.2685 40.8309 42.2787ZM9.1396 42.2073C9.0886 42.3297 9.1906 42.4827 9.3232 42.4521C10.69 42.2175 10.5268 43.0437 11.4346 43.2681C11.914 43.3905 12.7402 43.2375 13.3114 43.1355C15.1372 42.8193 14.9332 43.7475 16.2796 43.7169C16.9222 43.7067 17.5444 43.4619 17.7688 43.3599C17.881 43.3089 17.8708 43.1457 17.7484 43.1049C16.81 42.7887 13.9948 42.7275 13.9234 41.0853C13.9132 40.9629 13.8112 40.8813 13.6786 40.9017C13.138 40.9731 12.3118 41.0139 11.1388 40.2795C10.0678 39.5961 9.05801 40.1775 8.76221 40.4019C8.72141 40.4325 8.73161 40.5039 8.79281 40.5039C9.4864 40.4937 10.3228 40.9425 9.7618 41.3913C9.3946 41.6871 9.2212 41.9931 9.1396 42.2073ZM36.0369 40.3101C35.0884 40.1367 34.2112 40.9119 33.7522 41.1567C33.3544 41.3607 32.773 41.3403 32.4976 41.3199C32.4568 41.3199 32.4364 41.3709 32.467 41.4015C32.6302 41.5341 32.9158 41.7381 33.4564 41.8197C34.1194 41.9217 34.9353 41.6973 35.2617 41.6871C36.2409 41.6463 36.3225 43.1151 37.8831 43.1763C39.1071 43.2273 39.3417 41.7177 41.6163 42.7071C42.9729 43.2987 44.0133 42.0951 44.3907 41.5545C44.4519 41.4729 44.3703 41.3709 44.2785 41.3913C42.7791 41.7687 42.8199 40.6263 41.8101 40.5855C41.0451 40.5549 41.0043 41.4423 38.9848 40.5549C38.4238 40.3101 38.2809 40.7079 37.4955 40.7487C36.8733 40.7895 36.9957 40.4835 36.0369 40.3101ZM36.0267 29.7327C36.0573 29.6715 35.9859 29.6104 35.9247 29.641C35.0884 30.1 32.9872 30.508 31.855 30.406C31.2124 30.3448 30.3862 29.8246 29.5702 29.794C28.132 29.743 26.9998 30.2734 25.8472 30.763C25.786 30.7834 25.8064 30.8752 25.8676 30.8752C26.1736 30.865 26.6224 30.8854 27.0304 31.018C27.724 31.2526 28.6522 32.0482 29.7742 32.1196C30.8962 32.191 31.3858 31.9461 31.7734 31.8849C32.4568 31.7727 32.8036 32.1196 33.3952 32.4868C34.3336 33.0682 36.3124 32.9457 37.1385 32.5071C37.8729 32.1195 38.5155 31.2015 38.9439 30.8854C39.0051 30.8344 38.9643 30.7425 38.8827 30.7527C37.9137 30.9363 36.8938 30.9465 36.2308 30.6609C35.7004 30.4162 35.9145 30.0183 36.0267 29.7327ZM17.3608 29.8756C16.5856 29.896 15.8308 30.6916 15.3208 30.8956C14.9638 31.0384 14.3722 31.1098 14.1376 31.1302C14.107 31.1302 14.0866 31.1811 14.1172 31.2015C14.7292 31.6401 15.535 32.0175 16.1674 31.9053C18.2482 31.5483 18.9724 32.6703 19.8088 32.7213C21.0634 32.8029 21.5326 32.2623 22.4506 32.5887C23.0626 32.8131 23.4502 32.6704 23.95 32.2624C24.7456 31.6096 25.021 31.8748 25.8166 31.5484C25.9186 31.5076 25.8982 31.3545 25.7962 31.3443C25.582 31.3137 25.327 31.2423 25.0924 31.0893C24.5926 30.7527 24.1642 30.355 23.287 30.3448C22.2466 30.3346 22.3996 30.7018 20.278 30.7732C19.156 30.8037 18.5746 29.845 17.3608 29.8756ZM12.6688 33.4252C12.9544 33.109 13.4644 32.5071 14.464 32.3031C14.5456 32.2827 14.5762 32.1808 14.5048 32.1196C14.107 31.8136 13.0768 31.1097 11.9956 31.2627C10.3024 31.5075 10.435 32.8947 9.0478 32.8131C8.72141 32.7927 8.48681 32.7214 8.32361 32.6296C8.24201 32.5786 8.15021 32.65 8.17061 32.7418C8.31341 33.2518 8.73161 34.2105 9.71081 34.1595C10.435 34.1188 10.5778 33.772 11.0674 33.7006C11.5468 33.6496 11.965 34.1901 12.6688 33.4252ZM38.7195 33.7618C40.1373 33.8026 40.6473 32.8947 42.5343 33.6393C43.4217 33.9861 44.4927 33.6495 44.8191 33.0069C44.8497 32.9457 44.7987 32.8743 44.7375 32.9049C44.3091 33.0987 43.1769 33.3231 43.3809 32.3949C43.4523 32.0889 43.3707 31.7013 42.6363 31.7625C41.9937 31.8135 41.7693 31.9462 41.3205 31.8646C40.8921 31.783 40.6473 31.4464 39.7701 31.4464C38.5359 31.4566 38.3319 33.0886 36.6388 33.109C36.5776 33.109 36.5469 33.1906 36.6081 33.2212C36.9243 33.4048 37.6485 33.7312 38.7195 33.7618Z" fill="#AAC33E"/>
<path d="M18.3809 32.813C18.4115 32.8232 18.4115 32.864 18.3809 32.8742C17.6975 33.0782 17.1773 34.0268 16.0961 34.0268C14.7701 34.0166 14.4029 33.4148 13.5767 33.2924C13.5359 33.2822 13.5359 33.2312 13.5767 33.221C13.8113 33.17 14.1887 33.068 14.5049 32.9354C14.9945 32.7314 15.6167 32.3438 16.3307 32.354C17.1161 32.3744 18.0647 32.6906 18.3809 32.813ZM31.9775 32.3744C28.3667 33.4556 28.5605 31.4666 26.4593 31.8134C26.1125 31.8746 25.6535 32.3642 24.9089 32.3744C24.5213 32.3744 24.4397 32.609 24.4091 32.7008C24.2969 33.0374 25.0211 32.864 26.1839 33.4862C26.7653 33.8024 27.0407 34.3532 27.5915 34.3736C28.3361 34.4042 28.8359 33.7004 29.3255 33.6596C29.9171 33.6188 30.1313 33.6902 30.6719 33.6086C31.5185 33.4862 32.7017 32.15 31.9775 32.3744ZM27.9791 43.1048C28.2035 43.2272 29.6315 43.0232 30.5087 43.4006C31.3859 43.778 31.7225 44.2064 32.3243 44.2472C33.5687 44.3288 33.6503 42.9518 34.7213 42.7376C35.7005 42.5438 35.2925 42.0644 33.9563 42.4214C32.5283 42.7988 32.5487 41.7074 31.4879 41.7992C30.8453 41.8502 30.7637 42.6254 29.1725 42.5744C28.2545 42.5336 27.7343 42.9722 27.9791 43.1048Z" fill="#EDC9A4"/>
<path d="M38.9033 20.0946C35.5475 17.9424 31.5083 16.3308 26.4491 16.3308C21.3899 16.3308 17.3507 17.9424 13.9949 20.0946C10.0883 22.5936 8.71133 26.5716 10.0373 28.1118C10.1189 28.2036 10.2311 28.2342 10.3433 28.1934C13.9439 26.7756 19.7273 25.3374 26.4491 25.4088C33.1913 25.3374 38.9951 26.796 42.5957 28.2138C42.6773 28.2444 42.7589 28.224 42.8201 28.1628C44.2175 26.6532 42.8507 22.614 38.9033 20.0946ZM28.9889 17.9118C29.5805 18.075 28.9991 18.8604 28.7237 19.1766C28.6727 19.2378 28.5707 19.2072 28.5605 19.1358C28.4891 18.7176 28.3769 17.7384 28.9889 17.9118ZM14.4131 24.8172C14.3417 24.858 14.2601 24.7968 14.2703 24.7254C14.3417 24.3072 14.5559 23.3484 15.0863 23.7156C15.5963 24.0624 14.7803 24.603 14.4131 24.8172ZM16.5347 21.2982C16.1063 21.2472 15.1475 21.0636 15.4943 20.523C15.8309 20.0028 16.4021 20.7984 16.6265 21.1554C16.6673 21.2268 16.6061 21.3084 16.5347 21.2982ZM19.1867 23.8584C18.5747 23.7768 19.0541 22.92 19.2785 22.563C19.3193 22.4916 19.4213 22.512 19.4417 22.5834C19.5845 22.9914 19.8293 23.94 19.1867 23.8584ZM19.9823 19.8498C19.3703 19.8804 19.6763 18.9522 19.8395 18.5646C19.8701 18.4932 19.9721 18.483 20.0129 18.5544C20.2067 18.9318 20.6249 19.8294 19.9823 19.8498ZM21.6347 21.7164C21.5837 21.7776 21.4919 21.7572 21.4715 21.6858C21.3695 21.2676 21.1757 20.3088 21.8081 20.4312C22.4201 20.5536 21.8897 21.3798 21.6347 21.7164ZM24.1949 24.0216C23.7869 23.9094 22.8587 23.583 23.2769 23.1036C23.6849 22.6446 24.1337 23.5014 24.3071 23.8992C24.3377 23.9706 24.2765 24.042 24.1949 24.0216ZM23.4197 18.687C23.3381 18.6768 23.3075 18.585 23.3585 18.5238C23.6645 18.2178 24.3989 17.565 24.6131 18.177C24.8171 18.7584 23.8481 18.7278 23.4197 18.687ZM25.8881 21.7572C25.8167 21.7776 25.7453 21.7062 25.7759 21.6348C25.9391 21.237 26.3675 20.3496 26.7959 20.829C27.2039 21.288 26.2961 21.6348 25.8881 21.7572ZM29.4683 23.0832C29.2949 23.4708 28.8461 24.348 28.4279 23.8584C28.0301 23.3892 28.9481 23.073 29.3561 22.9608C29.4275 22.9302 29.4989 23.0118 29.4683 23.0832ZM31.8245 21.9918C31.7837 22.0632 31.6817 22.0428 31.6613 21.9714C31.5287 21.5634 31.2737 20.6148 31.9163 20.6964C32.5181 20.778 32.0489 21.6348 31.8245 21.9918ZM33.3851 19.4826C33.0077 19.9722 32.5079 19.1358 32.3039 18.7584C32.2631 18.687 32.3243 18.6054 32.4059 18.6258C32.8241 18.7176 33.7727 18.9726 33.3851 19.4826ZM34.6397 23.889C34.0787 24.1542 34.0073 23.1852 34.0073 22.7568C34.0073 22.6752 34.0991 22.6344 34.1603 22.6854C34.4969 22.9506 35.2211 23.6136 34.6397 23.889ZM36.3533 21.1656C36.0167 20.9106 35.2721 20.2578 35.8433 19.9722C36.3941 19.6968 36.4859 20.6658 36.4961 21.0942C36.5063 21.1656 36.4145 21.2166 36.3533 21.1656ZM39.1991 23.5524C38.9747 23.9196 38.4035 24.7152 38.0567 24.1644C37.7303 23.6442 38.6891 23.4606 39.1073 23.4096C39.1889 23.3994 39.2399 23.481 39.1991 23.5524ZM42.6977 34.4154C42.7283 34.6398 42.7283 34.956 42.6161 35.3028C42.5141 35.6394 42.3407 35.9148 42.1877 36.0984C42.0449 36.282 41.8001 36.384 41.5349 36.3738C26.9387 35.7312 13.3421 36.231 11.0369 36.3228C10.8023 36.333 10.5779 36.2412 10.4555 36.0678C10.3433 35.925 10.2107 35.721 10.1189 35.4762C10.0169 35.1906 9.97613 34.8948 9.96593 34.6806C10.2311 34.6092 10.5983 34.4664 10.8329 34.4052C11.1593 34.3236 11.5469 34.4562 12.0671 34.344C12.5873 34.2318 13.1789 33.783 13.5869 33.8544C13.9847 33.9258 14.7293 34.65 15.9941 34.548C17.2589 34.446 17.9729 33.8442 18.2585 33.6198C18.5543 33.3954 18.9725 33.3342 19.7069 33.426C20.4413 33.5178 21.2369 33.12 21.6551 33.0792C22.0733 33.0384 22.5017 33.3036 22.9301 33.3342C23.3585 33.3648 23.7257 33.2118 23.9807 33.222C24.2459 33.2322 25.3169 33.7626 25.7453 33.9258C26.1737 34.089 26.6939 34.8948 27.5303 34.8948C28.3667 34.8948 28.9685 34.446 29.2745 34.3134C29.5805 34.1808 29.9681 34.293 30.8657 34.089C31.7735 33.885 32.1917 33.4668 32.3957 33.2016C32.8853 32.5794 33.5687 33.4362 34.7519 33.4464C36.0779 33.4566 36.8123 33.9972 37.8527 34.242C38.8931 34.4868 40.1885 34.2522 40.8515 34.0278C41.5451 33.8238 42.2387 34.1196 42.6977 34.4154ZM22.5017 47.5122C16.4633 47.1654 12.9443 46.1454 11.5571 45.6456C11.0879 45.4824 10.7207 45.1152 10.5473 44.646C10.4147 44.2788 10.2821 43.7994 10.2209 43.2792C10.6493 43.5546 11.2613 43.983 12.1385 43.9218C13.1585 43.8504 13.8113 43.5342 14.4131 43.728C15.0149 43.932 15.8411 44.5746 16.7897 44.3502C17.6669 44.1462 18.1769 43.9218 18.8399 43.4424C18.9419 43.371 19.0745 43.371 19.1765 43.4322C19.5641 43.6872 20.5229 44.3808 21.3491 45.6864C21.9407 46.635 22.2773 47.1858 22.5017 47.5122ZM42.5345 43.371C42.4733 43.7076 42.3815 44.136 42.2489 44.5644C42.1061 45.0438 41.7491 45.4212 41.2901 45.6048C39.6785 46.2372 35.1701 47.6244 26.6633 47.6244C25.7657 47.6244 24.9089 47.6039 24.1031 47.5835C24.2459 47.4611 24.3785 47.298 24.5111 47.094C25.1129 46.1658 26.2145 44.0034 27.0815 43.7892C27.9179 43.5852 29.5703 43.7484 30.3965 44.136C31.2227 44.5134 31.9163 44.952 32.8139 44.85C34.1501 44.6868 34.2827 43.32 35.2109 43.2894C35.5985 43.2792 35.7719 43.2996 36.5267 43.6464C37.2101 43.9524 38.2709 44.0238 39.0563 43.6362C40.0661 43.1364 39.9539 42.9732 40.5455 42.9936C41.0861 43.0038 41.4941 43.4016 42.5345 43.371Z" fill="#E6A75D"/>
</svg>
