<svg width="16" height="18" viewBox="0 0 16 18" fill="none" xmlns="http://www.w3.org/2000/svg">
<path d="M6.95351 15.4702C7.89003 15.1178 8.59001 14.9054 9.97065 14.8957C11.3513 14.8812 12.0561 15.084 12.9974 15.4171L13.6491 14.8667C14.6291 11.4055 15.3291 6.45738 15.4691 5.42432L14.1222 5.43397C13.8857 6.08085 12.7754 8.61524 9.90789 8.63938C7.04523 8.66351 5.88183 6.15326 5.63563 5.51121L4.28879 5.52569C4.44809 6.55876 5.24462 11.4876 6.28734 14.9295L6.95351 15.4702Z" fill="#EC222C"/>
<path d="M4.65558 5.1012L5.73692 5.09155C5.80933 5.09155 5.87691 5.135 5.90105 5.20741C6.00725 5.51636 7.03549 8.24868 9.89332 8.21971C12.7511 8.19075 13.7263 5.44395 13.8277 5.13017C13.8518 5.06258 13.9146 5.01431 13.987 5.01431L15.1262 5.00466C15.4497 3.97642 15.749 3.06404 16 1.98752C15.5993 1.87166 14.9331 1.98269 14.8945 2.13717C14.8318 2.39785 14.7931 2.53302 14.7207 2.7937C14.5373 2.59577 14.2042 2.4944 13.8373 2.46061C13.7456 3.37781 13.6491 3.71573 13.4173 4.65225C13.456 3.49367 13.5139 2.85163 13.707 1.6496C13.2918 1.56753 12.756 1.64477 12.5918 1.94407C12.4905 2.62957 12.4325 3.01093 12.3987 3.6047C12.3456 2.52336 12.3215 1.90063 12.2201 0.780668C11.6988 0.828942 11.216 1.07514 11.1291 1.39858C11.1436 1.5434 11.1629 1.79925 11.1726 1.94407C10.8105 1.93925 10.4243 2.09855 10.2843 2.21441C10.1347 3.01576 10.1347 3.49367 9.91746 4.31434C9.91746 4.31434 9.82091 3.68194 10.1057 1.04135C10.1202 0.882044 9.53126 0.486195 9.11128 0.433093C9.02438 1.20065 8.95197 1.97304 8.88439 2.73577C8.83611 1.83304 8.75888 0.920663 8.64785 0.00345376C8.32924 -0.0496478 7.6534 0.524815 7.67271 0.679293C7.86581 2.48957 7.87546 2.77439 7.89477 3.98607C7.72098 2.88542 7.6534 2.47992 7.49892 1.81856C7.08376 1.85235 6.48999 2.30613 6.52378 2.45578C6.67826 3.19438 6.71205 3.51781 6.76515 4.48812C6.54792 3.31506 6.39345 2.94335 6.11346 1.76063C6.09415 1.68822 5.36038 1.47581 4.95487 1.58685C5.19142 2.51371 5.4521 3.4454 5.5583 4.35778C5.32176 3.75918 5.0997 3.1461 4.89695 2.51371C4.49144 2.63439 3.98457 3.41644 4.0087 3.48885C4.21146 4.08745 4.41421 4.53157 4.65558 5.1012Z" fill="#FCBA21"/>
<path d="M10.8733 9.66285C10.4871 9.66768 10.1444 10.189 9.92233 11C9.68578 10.1939 9.33821 9.67733 8.94719 9.68216C8.2617 9.68699 7.72586 11.4152 7.74517 13.5393L8.29549 13.5344C8.27618 11.5648 8.57066 9.96215 8.94719 9.95732C9.32856 9.95249 9.64716 11.4249 9.66647 13.2496L10.2168 13.2448C10.1975 11.4249 10.492 9.94767 10.8733 9.94284C11.2547 9.93801 11.5733 11.5359 11.5926 13.5055L12.1429 13.5006C12.1285 11.3718 11.5588 9.65802 10.8733 9.66285Z" fill="#FCBA21"/>
<path d="M0.356709 13.4079L0.757938 13.4742L0.944811 13.5043L1.0302 13.664L1.13626 13.8553L1.33943 13.7589L1.63356 13.6214L1.82932 13.8636L1.9745 14.0391L2.17488 13.9095L2.45213 13.7318L2.67808 13.9589L2.83491 14.1125L3.01123 13.9642L3.27158 13.7461L3.53221 13.9578L3.71547 14.105L3.89038 13.9401L4.12773 13.7157L4.3993 13.8972L4.63271 14.0527L4.83678 13.8603L5.07412 13.6359L5.34569 13.8174L5.54576 13.9507L5.69731 13.7752L5.91882 13.5229L6.21201 13.6943L6.41068 13.811L6.53956 13.6333L6.72877 13.3712L7.03186 13.5L7.2511 13.5941L7.36484 13.3968L7.51728 13.1253L7.83028 13.2115L8.04673 13.2725L8.11924 13.0662L8.18081 12.8899L8.36928 12.8323L8.86464 12.6821L8.87936 12.6433C8.79702 12.4667 8.70716 12.3074 8.64486 12.2084C8.50372 11.9741 8.53121 11.5004 8.28821 11.1246C8.04556 10.7529 7.46116 10.1138 7.20764 9.82649C6.95412 9.53915 6.73452 9.44086 6.31074 9.21377C5.88697 8.98669 5.26591 9.13918 4.77769 9.00097C4.28947 8.86275 4.11956 8.92714 3.79865 9.06684C3.47773 9.20654 3.13769 9.17264 2.74011 9.25622C2.34253 9.33981 2.12848 9.52056 1.79106 9.8911C1.45365 10.2616 1.40008 10.2662 1.20389 10.4454C1.0077 10.6246 0.903581 10.8295 0.938127 10.9726C0.972673 11.1157 0.823648 11.3744 0.771706 11.5582C0.7153 11.7423 0.420387 12.297 0.343638 12.6664C0.278457 12.9598 0.337846 13.1842 0.356709 13.4079Z" fill="#E1A241"/>
<path d="M8.26674 15.2263C8.07965 16.4063 2.31199 16.1036 1.11022 15.913C-0.0915483 15.7225 0.0730746 15.2869 0.260167 14.1069C0.44726 12.9269 4.88421 11.997 6.08598 12.1875C7.28775 12.378 8.45384 14.0463 8.26674 15.2263Z" fill="#9F644B"/>
<path d="M7.33541 14.7612C7.26315 15.8008 5.25524 15.8775 4.21571 15.8053C3.17619 15.733 1.1009 15.2673 1.17316 14.2278C1.24542 13.1883 4.69433 12.6459 5.73386 12.7182C6.77338 12.7904 7.40767 13.7217 7.33541 14.7612Z" fill="white"/>
<path d="M9.61312 15.7739C8.61816 16.437 7.14088 14.6668 6.4778 13.6718C5.81473 12.6769 4.88627 10.0582 5.88123 9.39513C6.87619 8.73206 10.5284 11.3009 11.1914 12.2959C11.8545 13.2909 10.6081 15.1108 9.61312 15.7739Z" fill="#9F644B"/>
<path d="M9.47058 15.1357C8.63363 15.6935 7.39095 14.2044 6.83318 13.3675C6.27541 12.5305 5.40749 10.6701 6.24444 10.1124C7.08139 9.5546 9.52959 11.8702 10.0874 12.7072C10.6451 13.5441 10.3075 14.5779 9.47058 15.1357Z" fill="white"/>
<path d="M5.55859 9.90088C5.60885 9.09643 7.41294 8.72824 8.41385 9.90082C9.41477 11.0734 10.2682 12.7257 8.41385 11.614C6.55951 10.5023 5.84412 11.8995 5.55859 11.614C5.27306 11.3284 5.38314 10.6107 5.55859 9.90088Z" fill="#55220C"/>
</svg>
