<svg width="46" height="44" viewBox="0 0 46 44" fill="none" xmlns="http://www.w3.org/2000/svg">
<path d="M22.0815 1.13274C22.4286 0.326781 23.5714 0.326779 23.9185 1.13274L29.5247 14.1509C29.6694 14.4871 29.9863 14.7173 30.3508 14.7511L44.4642 16.0601C45.338 16.1412 45.6911 17.228 45.0319 17.8071L34.3832 27.1618C34.1083 27.4034 33.9872 27.7759 34.0677 28.1329L37.1841 41.9601C37.377 42.8162 36.4525 43.4879 35.698 43.0399L23.5106 35.8032C23.1958 35.6163 22.8042 35.6163 22.4894 35.8032L10.302 43.0399C9.54748 43.4879 8.62298 42.8162 8.81592 41.9601L11.9323 28.1329C12.0128 27.7759 11.8917 27.4034 11.6168 27.1618L0.968128 17.8071C0.308866 17.228 0.661992 16.1412 1.53576 16.0601L15.6492 14.7511C16.0137 14.7173 16.3306 14.4871 16.4753 14.1509L22.0815 1.13274Z" fill="#FFBC0D"/>
</svg>
