<svg width="18" height="18" viewBox="0 0 18 18" fill="none" xmlns="http://www.w3.org/2000/svg">
<path d="M8.54077 1.06637C8.71431 0.66339 9.28569 0.66339 9.45923 1.06637L11.5864 6.00584C11.6588 6.17393 11.8172 6.28904 11.9994 6.30594L17.3545 6.80261C17.7914 6.84313 17.9679 7.38653 17.6383 7.67611L13.5979 11.2255C13.4604 11.3463 13.3999 11.5326 13.4401 11.7111L14.6226 16.9575C14.719 17.3856 14.2568 17.7214 13.8795 17.4974L9.25528 14.7516C9.09792 14.6581 8.90208 14.6581 8.74472 14.7516L4.12047 17.4974C3.7432 17.7214 3.28095 17.3856 3.37742 16.9575L4.55986 11.7111C4.6001 11.5326 4.53958 11.3463 4.40209 11.2255L0.361705 7.67611C0.0320743 7.38653 0.208638 6.84313 0.645524 6.80261L6.00057 6.30594C6.18279 6.28904 6.34123 6.17393 6.41362 6.00584L8.54077 1.06637Z" fill="#FFBC0D"/>
</svg>
