<svg width="18" height="18" viewBox="0 0 18 18" fill="none" xmlns="http://www.w3.org/2000/svg">
<circle cx="9" cy="9" r="8.75" fill="white" stroke="#FFBC0D" stroke-width="0.5"/>
<circle cx="9" cy="8.99993" r="8.19412" fill="white" stroke="#FFBC0D" stroke-width="0.2"/>
<circle cx="9" cy="9.00001" r="7.94118" fill="#FFBC0D"/>
<path d="M5.53514 6.208V6.632H7.30714V6.208H5.53514ZM6.42714 6.796C5.95914 6.796 5.61514 7.16 5.61514 7.68C5.61514 8.196 5.95914 8.56 6.42714 8.56C6.89914 8.56 7.23914 8.196 7.23914 7.68C7.23914 7.16 6.89914 6.796 6.42714 6.796ZM6.42714 7.24C6.62714 7.24 6.77114 7.4 6.77114 7.68C6.77114 7.96 6.62714 8.116 6.42714 8.116C6.22714 8.116 6.08714 7.96 6.08714 7.68C6.08714 7.4 6.22714 7.24 6.42714 7.24ZM8.21514 5.652V9.356H8.72314V5.652H8.21514ZM7.77114 7.156V7.584H8.38314V7.156H7.77114ZM7.43914 5.72V9.2H7.93514V5.72H7.43914ZM6.16714 5.752V6.476H6.69114V5.752H6.16714ZM11.7708 5.652V9.356H12.3068V5.652H11.7708ZM9.31082 5.992V6.416H11.3908V5.992H9.31082ZM9.26282 8.512C9.93082 8.508 10.7828 8.492 11.5628 8.36L11.5348 7.972C10.7708 8.064 9.87882 8.076 9.21082 8.076L9.26282 8.512ZM9.63082 6.324V8.192H10.1468V6.324H9.63082ZM10.5548 6.324V8.192H11.0708V6.324H10.5548Z" fill="white"/>
<path d="M9.53985 2.24303C9.7525 2.24303 9.92499 2.97652 9.92499 3.88238H10.2353C10.2353 2.90713 9.92225 2.11768 9.53893 2.11768C9.31989 2.11768 9.12641 2.35421 8.99863 2.72581C8.87086 2.35421 8.67738 2.11768 8.46016 2.11768C8.07684 2.11768 7.76471 2.90638 7.76471 3.88164H8.07502C8.07502 2.97578 8.24568 2.24303 8.45834 2.24303C8.67099 2.24303 8.84348 2.92056 8.84348 3.75628H9.15196C9.15196 2.92056 9.32537 2.24303 9.53802 2.24303" fill="white"/>
<path d="M6.91514 9.864V10.132C6.91514 10.664 6.45514 11.252 5.61914 11.396L5.84714 11.836C6.80714 11.648 7.37914 10.936 7.37914 10.132V9.864H6.91514ZM7.02314 9.864V10.132C7.02314 10.948 7.59114 11.648 8.55114 11.836L8.77914 11.396C7.93914 11.252 7.48314 10.676 7.48314 10.132V9.864H7.02314ZM5.54314 12.472V12.904H8.89514V12.472H5.54314ZM11.8708 9.652V11.804H12.3748V9.652H11.8708ZM11.4148 10.516V10.944H12.0028V10.516H11.4148ZM11.0628 9.72V11.78H11.5588V9.72H11.0628ZM9.83082 11.96V12.384H11.8468V13.356H12.3748V11.96H9.83082ZM9.36282 9.896V11.292H9.89482V9.896H9.36282ZM9.36282 11.14V11.572H9.61882C10.0748 11.572 10.4628 11.552 10.9028 11.46L10.8508 11.036C10.4308 11.124 10.0548 11.14 9.61882 11.14H9.36282Z" fill="white"/>
<path d="M2.26776 13.2605C1.51002 11.0719 1.79788 10.4787 1.9469 10.3797C2.09592 10.2808 2.45333 10.413 2.78809 11.5471C2.62961 10.2373 2.68498 9.88002 3.00381 9.81359C3.93358 9.6911 4.32327 11.6689 4.13164 12.602" stroke="white" stroke-width="0.5"/>
</svg>
