<svg width="51" height="51" viewBox="0 0 51 51" fill="none" xmlns="http://www.w3.org/2000/svg">
<circle cx="25.5" cy="25.5" r="25.25" fill="white" stroke="#FFBC0D" stroke-width="0.5"/>
<circle cx="25.5" cy="25.5" r="23.4" fill="white" stroke="#FFBC0D" stroke-width="0.2"/>
<circle cx="25.5" cy="25.5" r="22.5" fill="#FFBC0D"/>
<path d="M14.9289 16.624V17.896H20.2449V16.624H14.9289ZM17.6049 18.388C16.2009 18.388 15.1689 19.48 15.1689 21.04C15.1689 22.588 16.2009 23.68 17.6049 23.68C19.0209 23.68 20.0409 22.588 20.0409 21.04C20.0409 19.48 19.0209 18.388 17.6049 18.388ZM17.6049 19.72C18.2049 19.72 18.6369 20.2 18.6369 21.04C18.6369 21.88 18.2049 22.348 17.6049 22.348C17.0049 22.348 16.5849 21.88 16.5849 21.04C16.5849 20.2 17.0049 19.72 17.6049 19.72ZM22.9689 14.956V26.068H24.4929V14.956H22.9689ZM21.6369 19.468V20.752H23.4729V19.468H21.6369ZM20.6409 15.16V25.6H22.1289V15.16H20.6409ZM16.8249 15.256V17.428H18.3969V15.256H16.8249ZM33.636 14.956V26.068H35.244V14.956H33.636ZM26.256 15.976V17.248H32.496V15.976H26.256ZM26.112 23.536C28.116 23.524 30.672 23.476 33.012 23.08L32.928 21.916C30.636 22.192 27.96 22.228 25.956 22.228L26.112 23.536ZM27.216 16.972V22.576H28.764V16.972H27.216ZM29.988 16.972V22.576H31.536V16.972H29.988Z" fill="white"/>
<path d="M27.0296 6.35518C27.6321 6.35518 28.1208 8.4334 28.1208 11H29C29 8.23679 28.113 6 27.027 6C26.4064 6 25.8581 6.67019 25.4961 7.72304C25.1341 6.67019 24.5859 6 23.9704 6C22.8844 6 22 8.23467 22 10.9979H22.8792C22.8792 8.43129 23.3628 6.35518 23.9653 6.35518C24.5678 6.35518 25.0565 8.27484 25.0565 10.6427H25.9306C25.9306 8.27484 26.4219 6.35518 27.0244 6.35518" fill="white"/>
<path d="M19.0689 26.592V27.396C19.0689 28.992 17.6889 30.756 15.1809 31.188L15.8649 32.508C18.7449 31.944 20.4609 29.808 20.4609 27.396V26.592H19.0689ZM19.3929 26.592V27.396C19.3929 29.844 21.0969 31.944 23.9769 32.508L24.6609 31.188C22.1409 30.756 20.7729 29.028 20.7729 27.396V26.592H19.3929ZM14.9529 34.416V35.712H25.0089V34.416H14.9529ZM33.936 25.956V32.412H35.448V25.956H33.936ZM32.568 28.548V29.832H34.332V28.548H32.568ZM31.512 26.16V32.34H33V26.16H31.512ZM27.816 32.88V34.152H33.864V37.068H35.448V32.88H27.816ZM26.412 26.688V30.876H28.008V26.688H26.412ZM26.412 30.42V31.716H27.18C28.548 31.716 29.712 31.656 31.032 31.38L30.876 30.108C29.616 30.372 28.488 30.42 27.18 30.42H26.412Z" fill="white"/>
<path d="M6.4253 37.5716C4.27837 31.3706 5.09398 29.6897 5.51621 29.4093C5.93844 29.129 6.95109 29.5036 7.89958 32.7167C7.45056 29.0057 7.60744 27.9935 8.51079 27.8052C11.1451 27.4582 12.2493 33.062 11.7063 35.7058" stroke="white"/>
</svg>
