<svg width="138" height="154" viewBox="0 0 138 154" fill="none" xmlns="http://www.w3.org/2000/svg">
<g filter="url(#filter0_i_16_3)">
<path d="M0 48C0 42.4772 4.47715 38 10 38H128C133.523 38 138 42.4772 138 48V61C138 62.6569 136.657 64 135 64H3C1.34315 64 0 62.6569 0 61V48Z" fill="#575252"/>
</g>
<rect x="30" y="51" width="79" height="4" fill="#2F2929"/>
<rect y="62" width="138" height="9" fill="#312C2C"/>
<path d="M56.852 5.7V5.925C56.852 12.075 54.602 17.125 47.452 20.65L48.577 22.25C56.677 18.225 58.877 12.225 58.877 5.7H56.852ZM48.677 5.7V7.375H58.077V5.7H48.677ZM56.527 11.3L47.552 11.9L47.877 13.75L56.527 12.9V11.3ZM62.527 3.325V25.95H64.627V3.325H62.527ZM64.052 12.5V14.225H68.227V12.5H64.052ZM72.825 14.175V15.875H88.35V14.175H72.825ZM70.25 21.175V22.9H90.725V21.175H70.25ZM72.825 5.425V14.925H74.9V7.15H88.125V5.425H72.825Z" fill="white"/>
<g filter="url(#filter1_i_16_3)">
<rect x="38" y="111" width="61" height="43" rx="5" fill="white" fill-opacity="0.85"/>
</g>
<circle cx="68.5" cy="132.5" r="8.5" fill="#4F4747"/>
<defs>
<filter id="filter0_i_16_3" x="0" y="38" width="138" height="30" filterUnits="userSpaceOnUse" color-interpolation-filters="sRGB">
<feFlood flood-opacity="0" result="BackgroundImageFix"/>
<feBlend mode="normal" in="SourceGraphic" in2="BackgroundImageFix" result="shape"/>
<feColorMatrix in="SourceAlpha" type="matrix" values="0 0 0 0 0 0 0 0 0 0 0 0 0 0 0 0 0 0 127 0" result="hardAlpha"/>
<feOffset dy="4"/>
<feGaussianBlur stdDeviation="2"/>
<feComposite in2="hardAlpha" operator="arithmetic" k2="-1" k3="1"/>
<feColorMatrix type="matrix" values="0 0 0 0 0 0 0 0 0 0 0 0 0 0 0 0 0 0 0.25 0"/>
<feBlend mode="normal" in2="shape" result="effect1_innerShadow_16_3"/>
</filter>
<filter id="filter1_i_16_3" x="38" y="111" width="61" height="47" filterUnits="userSpaceOnUse" color-interpolation-filters="sRGB">
<feFlood flood-opacity="0" result="BackgroundImageFix"/>
<feBlend mode="normal" in="SourceGraphic" in2="BackgroundImageFix" result="shape"/>
<feColorMatrix in="SourceAlpha" type="matrix" values="0 0 0 0 0 0 0 0 0 0 0 0 0 0 0 0 0 0 127 0" result="hardAlpha"/>
<feOffset dy="4"/>
<feGaussianBlur stdDeviation="2"/>
<feComposite in2="hardAlpha" operator="arithmetic" k2="-1" k3="1"/>
<feColorMatrix type="matrix" values="0 0 0 0 0 0 0 0 0 0 0 0 0 0 0 0 0 0 0.25 0"/>
<feBlend mode="normal" in2="shape" result="effect1_innerShadow_16_3"/>
</filter>
</defs>
</svg>
