<svg width="259" height="13" viewBox="0 0 259 13" fill="none" xmlns="http://www.w3.org/2000/svg">
<path d="M1.818 0.242C1.014 0.242 0.42 0.734 0.42 1.448C0.42 2.156 1.014 2.648 1.818 2.648C2.628 2.648 3.222 2.156 3.222 1.448C3.222 0.734 2.628 0.242 1.818 0.242ZM1.818 0.65C2.346 0.65 2.736 0.98 2.736 1.448C2.736 1.916 2.346 2.24 1.818 2.24C1.296 2.24 0.9 1.916 0.9 1.448C0.9 0.98 1.296 0.65 1.818 0.65ZM4.242 0.0439998V2.822H4.746V0.0439998H4.242ZM1.236 3.086V3.488H4.254V4.034H1.248V5.222H1.734V4.406H4.746V3.086H1.236ZM1.248 5V5.396H4.926V5H1.248ZM7.33753 0.242C6.53353 0.242 5.93953 0.734 5.93953 1.448C5.93953 2.156 6.53353 2.648 7.33753 2.648C8.14753 2.648 8.74153 2.156 8.74153 1.448C8.74153 0.734 8.14753 0.242 7.33753 0.242ZM7.33753 0.65C7.86553 0.65 8.25553 0.98 8.25553 1.448C8.25553 1.916 7.86553 2.24 7.33753 2.24C6.81553 2.24 6.41953 1.916 6.41953 1.448C6.41953 0.98 6.81553 0.65 7.33753 0.65ZM9.76153 0.0439998V2.822H10.2655V0.0439998H9.76153ZM6.75553 3.086V3.488H9.77353V4.034H6.76753V5.222H7.25353V4.406H10.2655V3.086H6.75553ZM6.76753 5V5.396H10.4455V5H6.76753ZM15.4926 0.824V1.232H17.1486V0.824H15.4926ZM15.4926 2.072V2.486H17.1486V2.072H15.4926ZM14.5026 0.362C13.6986 0.362 13.1046 0.902 13.1046 1.652C13.1046 2.408 13.6986 2.942 14.5026 2.942C15.3006 2.942 15.9006 2.408 15.9006 1.652C15.9006 0.902 15.3006 0.362 14.5026 0.362ZM14.5026 0.788C15.0306 0.788 15.4266 1.142 15.4266 1.652C15.4266 2.162 15.0306 2.516 14.5026 2.516C13.9746 2.516 13.5846 2.162 13.5846 1.652C13.5846 1.142 13.9746 0.788 14.5026 0.788ZM16.9866 0.0439998V3.254H17.4846V0.0439998H16.9866ZM15.7026 3.38C14.5806 3.38 13.8906 3.764 13.8906 4.418C13.8906 5.078 14.5806 5.456 15.7026 5.456C16.8186 5.456 17.5086 5.078 17.5086 4.418C17.5086 3.764 16.8186 3.38 15.7026 3.38ZM15.7026 3.776C16.5186 3.776 17.0166 4.016 17.0166 4.418C17.0166 4.826 16.5186 5.066 15.7026 5.066C14.8806 5.066 14.3826 4.826 14.3826 4.418C14.3826 4.016 14.8806 3.776 15.7026 3.776ZM22.6021 0.854V1.268H23.5441V0.854H22.6021ZM22.6021 2.006V2.42H23.5441V2.006H22.6021ZM20.0581 0.362C19.2421 0.362 18.6421 0.89 18.6421 1.646C18.6421 2.396 19.2421 2.918 20.0581 2.918C20.8741 2.918 21.4741 2.396 21.4741 1.646C21.4741 0.89 20.8741 0.362 20.0581 0.362ZM20.0581 0.782C20.5981 0.782 20.9881 1.136 20.9881 1.646C20.9881 2.156 20.5981 2.504 20.0581 2.504C19.5181 2.504 19.1281 2.156 19.1281 1.646C19.1281 1.136 19.5181 0.782 20.0581 0.782ZM22.2541 0.0439998V3.254H22.7521V0.0439998H22.2541ZM21.0241 3.428C19.9201 3.428 19.2421 3.806 19.2421 4.442C19.2421 5.084 19.9201 5.456 21.0241 5.456C22.1281 5.456 22.8061 5.084 22.8061 4.442C22.8061 3.806 22.1281 3.428 21.0241 3.428ZM21.0241 3.83C21.8281 3.83 22.3201 4.052 22.3201 4.442C22.3201 4.832 21.8281 5.06 21.0241 5.06C20.2201 5.06 19.7281 4.832 19.7281 4.442C19.7281 4.052 20.2201 3.83 21.0241 3.83ZM27.2411 2.48V3.794H27.7331V2.48H27.2411ZM29.7131 0.0439998V4.142H30.2111V0.0439998H29.7131ZM26.5091 4.94V5.348H30.3431V4.94H26.5091ZM26.5091 3.698V5.066H27.0071V3.698H26.5091ZM25.7771 2.6C26.7611 2.594 28.0811 2.57 29.2631 2.366L29.2271 2.006C28.0691 2.168 26.7071 2.186 25.7111 2.186L25.7771 2.6ZM28.5371 2.996V3.392H29.8391V2.996H28.5371ZM26.2031 0.374V0.776H28.5431V0.374H26.2031ZM28.2371 0.374V0.578C28.2371 0.896 28.2371 1.436 28.0931 2.228L28.5851 2.264C28.7291 1.478 28.7291 0.908 28.7291 0.578V0.374H28.2371ZM32.6047 0.626V1.064C32.6047 1.838 32.0647 2.54 31.2487 2.828L31.5007 3.224C32.4127 2.894 33.0127 2.06 33.0127 1.064V0.626H32.6047ZM32.6947 0.626V1.058C32.6947 1.982 33.2707 2.756 34.1767 3.056L34.4167 2.666C33.6187 2.402 33.1027 1.766 33.1027 1.058V0.626H32.6947ZM31.3987 0.446V0.854H34.2967V0.446H31.3987ZM34.9807 0.0439998V3.314H35.4787V0.0439998H34.9807ZM35.3407 1.418V1.838H36.2827V1.418H35.3407ZM33.7507 3.458C32.6467 3.458 31.9687 3.824 31.9687 4.454C31.9687 5.09 32.6467 5.456 33.7507 5.456C34.8547 5.456 35.5327 5.09 35.5327 4.454C35.5327 3.824 34.8547 3.458 33.7507 3.458ZM33.7507 3.86C34.5547 3.86 35.0467 4.076 35.0467 4.454C35.0467 4.838 34.5547 5.066 33.7507 5.066C32.9467 5.066 32.4547 4.838 32.4547 4.454C32.4547 4.076 32.9467 3.86 33.7507 3.86ZM40.8482 0.89V1.304H41.8022V0.89H40.8482ZM40.8482 2.03V2.444H41.8022V2.03H40.8482ZM40.5002 0.0439998V3.326H40.9982V0.0439998H40.5002ZM37.0262 2.6V3.014H37.4522C38.4542 3.014 39.1682 2.978 40.0262 2.834L39.9842 2.42C39.1382 2.57 38.4362 2.6 37.4522 2.6H37.0262ZM37.0142 0.38V0.788H38.9642V1.466H37.0262V2.864H37.5122V1.856H39.4562V0.38H37.0142ZM39.2642 3.488C38.1602 3.488 37.4822 3.848 37.4822 4.472C37.4822 5.102 38.1602 5.462 39.2642 5.462C40.3742 5.462 41.0462 5.102 41.0462 4.472C41.0462 3.848 40.3742 3.488 39.2642 3.488ZM39.2642 3.878C40.0742 3.878 40.5662 4.094 40.5662 4.472C40.5662 4.856 40.0742 5.072 39.2642 5.072C38.4542 5.072 37.9682 4.856 37.9682 4.472C37.9682 4.094 38.4542 3.878 39.2642 3.878ZM42.3057 2.894V3.302H47.2077V2.894H42.3057ZM42.9417 4.94V5.348H46.6677V4.94H42.9417ZM42.9417 3.776V5.066H43.4397V3.776H42.9417ZM44.7597 0.224C43.5957 0.224 42.8517 0.632 42.8517 1.31C42.8517 1.982 43.5957 2.39 44.7597 2.39C45.9177 2.39 46.6677 1.982 46.6677 1.31C46.6677 0.632 45.9177 0.224 44.7597 0.224ZM44.7597 0.632C45.6117 0.632 46.1577 0.884 46.1577 1.31C46.1577 1.736 45.6117 1.988 44.7597 1.988C43.9077 1.988 43.3617 1.736 43.3617 1.31C43.3617 0.884 43.9077 0.632 44.7597 0.632ZM49.5188 4.364V4.778H54.4328V4.364H49.5188ZM51.7148 3.068V4.484H52.2128V3.068H51.7148ZM50.0948 0.428V3.2H53.8448V0.428H53.3528V1.394H50.5868V0.428H50.0948ZM50.5868 1.796H53.3528V2.792H50.5868V1.796ZM55.0323 2.918V3.32H59.9343V2.918H55.0323ZM57.2343 2.216V3.086H57.7263V2.216H57.2343ZM55.6803 1.994V2.384H59.3583V1.994H55.6803ZM55.6803 0.2V2.204H56.1723V0.59H59.3343V0.2H55.6803ZM56.0283 1.088V1.472H59.1903V1.088H56.0283ZM57.4803 3.722C56.2983 3.722 55.6203 4.022 55.6203 4.592C55.6203 5.156 56.2983 5.456 57.4803 5.456C58.6623 5.456 59.3403 5.156 59.3403 4.592C59.3403 4.022 58.6623 3.722 57.4803 3.722ZM57.4803 4.1C58.3503 4.1 58.8363 4.274 58.8363 4.592C58.8363 4.916 58.3503 5.084 57.4803 5.084C56.6103 5.084 56.1243 4.916 56.1243 4.592C56.1243 4.274 56.6103 4.1 57.4803 4.1ZM62.397 5V4.61648L63.8374 3.03977C64.0064 2.85511 64.1456 2.6946 64.255 2.55824C64.3643 2.42045 64.4453 2.29119 64.4979 2.17045C64.5518 2.0483 64.5788 1.92045 64.5788 1.78693C64.5788 1.63352 64.5419 1.50071 64.468 1.38849C64.3956 1.27628 64.2962 1.18963 64.1697 1.12855C64.0433 1.06747 63.9013 1.03693 63.7436 1.03693C63.576 1.03693 63.4297 1.07173 63.3047 1.14134C63.1811 1.20952 63.0852 1.3054 63.017 1.42898C62.9503 1.55256 62.9169 1.69744 62.9169 1.86364H62.4141C62.4141 1.60795 62.473 1.38352 62.5909 1.19034C62.7088 0.997159 62.8693 0.846591 63.0724 0.738636C63.277 0.630682 63.5064 0.576704 63.7607 0.576704C64.0163 0.576704 64.2429 0.630682 64.4403 0.738636C64.6378 0.846591 64.7926 0.992187 64.9048 1.17543C65.017 1.35866 65.0732 1.5625 65.0732 1.78693C65.0732 1.94744 65.044 2.1044 64.9858 2.25781C64.929 2.4098 64.8295 2.57955 64.6875 2.76705C64.5469 2.95312 64.3516 3.1804 64.1016 3.44886L63.1214 4.49716V4.53125H65.1499V5H62.397ZM67.4531 5.05966C67.1321 5.05966 66.8587 4.9723 66.6328 4.79759C66.407 4.62145 66.2344 4.36648 66.1151 4.03267C65.9957 3.69744 65.9361 3.29261 65.9361 2.81818C65.9361 2.34659 65.9957 1.94389 66.1151 1.61009C66.2358 1.27486 66.4091 1.01918 66.6349 0.84304C66.8622 0.665483 67.1349 0.576704 67.4531 0.576704C67.7713 0.576704 68.0433 0.665483 68.2692 0.84304C68.4964 1.01918 68.6697 1.27486 68.7891 1.61009C68.9098 1.94389 68.9702 2.34659 68.9702 2.81818C68.9702 3.29261 68.9105 3.69744 68.7912 4.03267C68.6719 4.36648 68.4993 4.62145 68.2734 4.79759C68.0476 4.9723 67.7741 5.05966 67.4531 5.05966ZM67.4531 4.59091C67.7713 4.59091 68.0185 4.4375 68.1946 4.13068C68.3707 3.82386 68.4588 3.38636 68.4588 2.81818C68.4588 2.44034 68.4183 2.11861 68.3374 1.85298C68.2578 1.58736 68.1428 1.38494 67.9922 1.24574C67.843 1.10653 67.6634 1.03693 67.4531 1.03693C67.1378 1.03693 66.8913 1.19247 66.7138 1.50355C66.5362 1.81321 66.4474 2.25142 66.4474 2.81818C66.4474 3.19602 66.4872 3.51705 66.5668 3.78125C66.6463 4.04545 66.7607 4.24645 66.9098 4.38423C67.0604 4.52202 67.2415 4.59091 67.4531 4.59091ZM71.2031 5.05966C70.8821 5.05966 70.6087 4.9723 70.3828 4.79759C70.157 4.62145 69.9844 4.36648 69.8651 4.03267C69.7457 3.69744 69.6861 3.29261 69.6861 2.81818C69.6861 2.34659 69.7457 1.94389 69.8651 1.61009C69.9858 1.27486 70.1591 1.01918 70.3849 0.84304C70.6122 0.665483 70.8849 0.576704 71.2031 0.576704C71.5213 0.576704 71.7933 0.665483 72.0192 0.84304C72.2464 1.01918 72.4197 1.27486 72.5391 1.61009C72.6598 1.94389 72.7202 2.34659 72.7202 2.81818C72.7202 3.29261 72.6605 3.69744 72.5412 4.03267C72.4219 4.36648 72.2493 4.62145 72.0234 4.79759C71.7976 4.9723 71.5241 5.05966 71.2031 5.05966ZM71.2031 4.59091C71.5213 4.59091 71.7685 4.4375 71.9446 4.13068C72.1207 3.82386 72.2088 3.38636 72.2088 2.81818C72.2088 2.44034 72.1683 2.11861 72.0874 1.85298C72.0078 1.58736 71.8928 1.38494 71.7422 1.24574C71.593 1.10653 71.4134 1.03693 71.2031 1.03693C70.8878 1.03693 70.6413 1.19247 70.4638 1.50355C70.2862 1.81321 70.1974 2.25142 70.1974 2.81818C70.1974 3.19602 70.2372 3.51705 70.3168 3.78125C70.3963 4.04545 70.5107 4.24645 70.6598 4.38423C70.8104 4.52202 70.9915 4.59091 71.2031 4.59091ZM74.9531 5.05966C74.6321 5.05966 74.3587 4.9723 74.1328 4.79759C73.907 4.62145 73.7344 4.36648 73.6151 4.03267C73.4957 3.69744 73.4361 3.29261 73.4361 2.81818C73.4361 2.34659 73.4957 1.94389 73.6151 1.61009C73.7358 1.27486 73.9091 1.01918 74.1349 0.84304C74.3622 0.665483 74.6349 0.576704 74.9531 0.576704C75.2713 0.576704 75.5433 0.665483 75.7692 0.84304C75.9964 1.01918 76.1697 1.27486 76.2891 1.61009C76.4098 1.94389 76.4702 2.34659 76.4702 2.81818C76.4702 3.29261 76.4105 3.69744 76.2912 4.03267C76.1719 4.36648 75.9993 4.62145 75.7734 4.79759C75.5476 4.9723 75.2741 5.05966 74.9531 5.05966ZM74.9531 4.59091C75.2713 4.59091 75.5185 4.4375 75.6946 4.13068C75.8707 3.82386 75.9588 3.38636 75.9588 2.81818C75.9588 2.44034 75.9183 2.11861 75.8374 1.85298C75.7578 1.58736 75.6428 1.38494 75.4922 1.24574C75.343 1.10653 75.1634 1.03693 74.9531 1.03693C74.6378 1.03693 74.3913 1.19247 74.2138 1.50355C74.0362 1.81321 73.9474 2.25142 73.9474 2.81818C73.9474 3.19602 73.9872 3.51705 74.0668 3.78125C74.1463 4.04545 74.2607 4.24645 74.4098 4.38423C74.5604 4.52202 74.7415 4.59091 74.9531 4.59091ZM81.0416 0.278V0.5C81.0416 1.472 80.3636 2.24 78.8996 2.624L79.0916 3.014C80.7356 2.582 81.5636 1.628 81.5636 0.278H81.0416ZM79.1456 0.278V0.68H81.3356V0.278H79.1456ZM81.0416 1.196L78.8756 1.298L78.9596 1.7L81.0416 1.544V1.196ZM82.5236 0.0439998V2.87H83.0216V0.0439998H82.5236ZM82.8836 1.28V1.694H83.8256V1.28H82.8836ZM79.5776 3.122V3.518H82.5296V4.04H79.5896V5.198H80.0816V4.418H83.0216V3.122H79.5776ZM79.5896 5.006V5.396H83.2196V5.006H79.5896ZM84.3352 4.388V4.802H89.2492V4.388H84.3352ZM86.5312 3.224V4.562H87.0292V3.224H86.5312ZM84.9292 0.446V0.848H88.1512V1.688H84.9472V3.176H85.4392V2.09H88.6432V0.446H84.9292ZM84.9472 2.966V3.374H88.7692V2.966H84.9472ZM93.8027 0.0379999V5.474H94.3007V0.0379999H93.8027ZM90.1667 3.752V4.166H90.6167C91.5467 4.166 92.3627 4.13 93.3467 3.968L93.2927 3.56C92.3327 3.716 91.5227 3.752 90.6167 3.752H90.1667ZM90.1547 0.548V0.956H92.1587V2.078H90.1667V3.908H90.6647V2.486H92.6627V0.548H90.1547ZM99.3102 0.0379999V5.474H99.8082V0.0379999H99.3102ZM96.9462 0.458C96.1482 0.458 95.5722 1.196 95.5722 2.348C95.5722 3.506 96.1482 4.244 96.9462 4.244C97.7502 4.244 98.3262 3.506 98.3262 2.348C98.3262 1.196 97.7502 0.458 96.9462 0.458ZM96.9462 0.908C97.4802 0.908 97.8462 1.472 97.8462 2.348C97.8462 3.23 97.4802 3.806 96.9462 3.806C96.4182 3.806 96.0462 3.23 96.0462 2.348C96.0462 1.472 96.4182 0.908 96.9462 0.908ZM102.328 0.818V1.7C102.328 2.636 101.674 3.656 100.888 4.028L101.176 4.424C102.04 3.998 102.73 2.846 102.73 1.7V0.818H102.328ZM102.424 0.818V1.7C102.424 2.828 103.12 3.884 103.996 4.292L104.278 3.896C103.48 3.554 102.826 2.618 102.826 1.7V0.818H102.424ZM101.068 0.596V1.016H104.098V0.596H101.068ZM104.83 0.0439998V5.468H105.328V0.0439998H104.83ZM106.635 0.53V3.044H109.125V0.53H106.635ZM108.639 0.932V2.642H107.121V0.932H108.639ZM110.121 0.0379999V4.016H110.619V0.0379999H110.121ZM110.463 1.694V2.108H111.423V1.694H110.463ZM107.241 4.94V5.348H110.865V4.94H107.241ZM107.241 3.638V5.114H107.739V3.638H107.241ZM112.843 4.40341L112.809 4.63352C112.785 4.79545 112.748 4.96875 112.698 5.15341C112.65 5.33807 112.599 5.51207 112.547 5.67543C112.494 5.83878 112.451 5.96875 112.417 6.06534H112.033C112.052 5.97443 112.076 5.8544 112.106 5.70526C112.136 5.55611 112.165 5.3892 112.195 5.20455C112.227 5.02131 112.252 4.83381 112.272 4.64205L112.298 4.40341H112.843ZM119.25 0.0439998V2.852H119.754V0.0439998H119.25ZM116.214 3.116V3.512H119.256V4.052H116.232V5.24H116.718V4.424H119.754V3.116H116.214ZM116.232 5.012V5.408H119.952V5.012H116.232ZM115.542 0.41V0.806H118.452V0.41H115.542ZM115.446 2.672C116.4 2.666 117.66 2.63 118.74 2.468L118.71 2.102C117.654 2.234 116.358 2.258 115.392 2.258L115.446 2.672ZM116.076 0.59V2.438H116.556V0.59H116.076ZM117.432 0.59V2.438H117.918V0.59H117.432ZM122.021 2.834V4.46H122.513V2.834H122.021ZM124.025 2.834V4.46H124.523V2.834H124.025ZM120.821 4.364V4.778H125.735V4.364H120.821ZM123.269 0.386C122.117 0.386 121.295 0.932 121.295 1.784C121.295 2.63 122.117 3.176 123.269 3.176C124.415 3.176 125.237 2.63 125.237 1.784C125.237 0.932 124.415 0.386 123.269 0.386ZM123.269 0.782C124.139 0.782 124.757 1.178 124.757 1.784C124.757 2.384 124.139 2.78 123.269 2.78C122.399 2.78 121.775 2.384 121.775 1.784C121.775 1.178 122.399 0.782 123.269 0.782ZM130.049 0.0499997V4.118H130.547V0.0499997H130.049ZM130.391 1.826V2.246H131.351V1.826H130.391ZM126.353 0.704V1.106H129.557V0.704H126.353ZM127.955 1.406C127.181 1.406 126.653 1.808 126.653 2.42C126.653 3.026 127.181 3.428 127.955 3.428C128.723 3.428 129.251 3.026 129.251 2.42C129.251 1.808 128.723 1.406 127.955 1.406ZM127.955 1.796C128.441 1.796 128.777 2.042 128.777 2.42C128.777 2.792 128.441 3.038 127.955 3.038C127.463 3.038 127.127 2.792 127.127 2.42C127.127 2.042 127.463 1.796 127.955 1.796ZM127.703 0.0439998V0.914H128.201V0.0439998H127.703ZM127.169 4.94V5.348H130.793V4.94H127.169ZM127.169 3.794V5.114H127.667V3.794H127.169ZM135.774 0.278V0.5C135.774 1.472 135.096 2.24 133.632 2.624L133.824 3.014C135.468 2.582 136.296 1.628 136.296 0.278H135.774ZM133.878 0.278V0.68H136.068V0.278H133.878ZM135.774 1.196L133.608 1.298L133.692 1.7L135.774 1.544V1.196ZM137.256 0.0439998V2.87H137.754V0.0439998H137.256ZM137.616 1.28V1.694H138.558V1.28H137.616ZM134.31 3.122V3.518H137.262V4.04H134.322V5.198H134.814V4.418H137.754V3.122H134.31ZM134.322 5.006V5.396H137.952V5.006H134.322ZM139.068 4.388V4.802H143.982V4.388H139.068ZM141.264 3.224V4.562H141.762V3.224H141.264ZM139.662 0.446V0.848H142.884V1.688H139.68V3.176H140.172V2.09H143.376V0.446H139.662ZM139.68 2.966V3.374H143.502V2.966H139.68ZM148.535 0.0379999V5.474H149.033V0.0379999H148.535ZM144.899 3.752V4.166H145.349C146.279 4.166 147.095 4.13 148.079 3.968L148.025 3.56C147.065 3.716 146.255 3.752 145.349 3.752H144.899ZM144.887 0.548V0.956H146.891V2.078H144.899V3.908H145.397V2.486H147.395V0.548H144.887ZM150.767 1.67V2.078H154.451V1.67H150.767ZM150.101 2.804V3.212H155.021V2.804H150.101ZM150.767 0.242V1.874H151.259V0.242H150.767ZM150.731 4.928V5.336H154.481V4.928H150.731ZM150.731 3.752V5.036H151.223V3.752H150.731ZM160.98 0.0379999V5.474H161.484V0.0379999H160.98ZM161.364 2.18V2.6H162.372V2.18H161.364ZM157.542 3.704V4.124H157.968C158.988 4.124 159.702 4.094 160.536 3.938L160.482 3.518C159.672 3.668 158.97 3.704 157.968 3.704H157.542ZM157.542 0.566V3.89H158.034V0.974H160.062V0.566H157.542ZM162.827 2.564V2.942H167.747V2.564H162.827ZM163.409 3.38V3.734H166.643V4.196H163.427V5.174H163.919V4.538H167.129V3.38H163.409ZM163.427 5.042V5.402H167.303V5.042H163.427ZM163.451 0.2V0.554H166.625V0.992H163.463V1.916H163.955V1.328H167.111V0.2H163.451ZM163.463 1.796V2.156H167.213V1.796H163.463ZM172.23 0.236V0.536C172.23 1.31 171.276 1.958 170.286 2.108L170.484 2.51C171.612 2.318 172.668 1.574 172.668 0.536V0.236H172.23ZM172.32 0.236V0.536C172.32 1.562 173.382 2.318 174.498 2.51L174.696 2.108C173.718 1.958 172.752 1.292 172.752 0.536V0.236H172.32ZM172.23 3.404V5.468H172.722V3.404H172.23ZM170.04 3.098V3.512H174.942V3.098H170.04ZM178.597 3.38V3.674C178.597 4.196 178.189 4.778 177.505 5.024L177.757 5.396C178.537 5.096 178.981 4.382 178.981 3.674V3.38H178.597ZM178.705 3.38V3.674C178.705 4.394 179.059 5.138 179.839 5.444L180.049 5.066C179.401 4.802 179.077 4.22 179.077 3.674V3.38H178.705ZM180.601 3.38V3.674C180.601 4.142 180.271 4.772 179.629 5.066L179.839 5.444C180.613 5.114 180.973 4.31 180.973 3.674V3.38H180.601ZM180.703 3.38V3.674C180.703 4.424 181.135 5.108 181.927 5.396L182.179 5.024C181.489 4.79 181.087 4.232 181.087 3.674V3.38H180.703ZM181.189 0.0499997V3.146H181.693V0.0499997H181.189ZM178.783 0.362C177.961 0.362 177.367 0.878 177.367 1.628C177.367 2.378 177.961 2.888 178.783 2.888C179.605 2.888 180.193 2.378 180.193 1.628C180.193 0.878 179.605 0.362 178.783 0.362ZM178.783 0.776C179.323 0.776 179.713 1.124 179.713 1.628C179.713 2.132 179.323 2.474 178.783 2.474C178.243 2.474 177.853 2.132 177.853 1.628C177.853 1.124 178.243 0.776 178.783 0.776ZM183.385 3.296V5.396H187.027V3.296H186.529V3.926H183.877V3.296H183.385ZM183.877 4.31H186.529V4.994H183.877V4.31ZM182.761 2.516V2.918H187.663V2.516H182.761ZM184.963 0.104V0.344C184.963 1.028 184.021 1.61 183.043 1.742L183.223 2.132C184.339 1.964 185.389 1.286 185.389 0.344V0.104H184.963ZM185.041 0.104V0.344C185.041 1.274 186.097 1.964 187.201 2.132L187.387 1.742C186.421 1.61 185.467 1.016 185.467 0.344V0.104H185.041ZM192.228 0.0439998V5.468H192.726V0.0439998H192.228ZM188.628 0.572V3.932H189.12V0.572H188.628ZM188.628 3.638V4.07H189.072C189.93 4.07 190.788 4.004 191.73 3.812L191.67 3.386C190.752 3.578 189.894 3.638 189.072 3.638H188.628ZM197.472 0.0379999V5.474H197.976V0.0379999H197.472ZM197.856 2.18V2.6H198.864V2.18H197.856ZM194.034 3.704V4.124H194.46C195.48 4.124 196.194 4.094 197.028 3.938L196.974 3.518C196.164 3.668 195.462 3.704 194.46 3.704H194.034ZM194.034 0.566V3.89H194.526V0.974H196.554V0.566H194.034ZM202.213 2.834V4.46H202.705V2.834H202.213ZM204.217 2.834V4.46H204.715V2.834H204.217ZM201.013 4.364V4.778H205.927V4.364H201.013ZM203.461 0.386C202.309 0.386 201.487 0.932 201.487 1.784C201.487 2.63 202.309 3.176 203.461 3.176C204.607 3.176 205.429 2.63 205.429 1.784C205.429 0.932 204.607 0.386 203.461 0.386ZM203.461 0.782C204.331 0.782 204.949 1.178 204.949 1.784C204.949 2.384 204.331 2.78 203.461 2.78C202.591 2.78 201.967 2.384 201.967 1.784C201.967 1.178 202.591 0.782 203.461 0.782ZM207.882 0.968V1.202C207.882 1.934 207.342 2.594 206.544 2.852L206.784 3.242C207.69 2.936 208.29 2.144 208.29 1.202V0.968H207.882ZM207.972 0.968V1.202C207.972 2.09 208.596 2.822 209.508 3.104L209.736 2.714C208.938 2.48 208.38 1.874 208.38 1.202V0.968H207.972ZM206.682 0.698V1.1H209.574V0.698H206.682ZM207.882 0.0199997V0.842H208.38V0.0199997H207.882ZM209.412 1.586V2H210.636V1.586H209.412ZM210.492 0.0439998V3.326H210.99V0.0439998H210.492ZM209.208 3.47C208.08 3.47 207.396 3.836 207.396 4.466C207.396 5.09 208.08 5.456 209.208 5.456C210.33 5.456 211.014 5.09 211.014 4.466C211.014 3.836 210.33 3.47 209.208 3.47ZM209.208 3.86C210.024 3.86 210.522 4.082 210.522 4.466C210.522 4.844 210.024 5.066 209.208 5.066C208.386 5.066 207.894 4.844 207.894 4.466C207.894 4.082 208.386 3.86 209.208 3.86ZM213.48 0.512V1.484C213.48 2.51 212.826 3.548 212.022 3.932L212.328 4.34C213.216 3.89 213.888 2.732 213.888 1.484V0.512H213.48ZM213.564 0.512V1.484C213.564 2.69 214.242 3.806 215.124 4.238L215.424 3.842C214.62 3.47 213.972 2.474 213.972 1.484V0.512H213.564ZM215.988 0.0379999V5.474H216.486V0.0379999H215.988ZM221.461 3.494V5.474H221.953V3.494H221.461ZM219.259 3.32V3.734H224.161V3.32H219.259ZM221.455 0.974V1.112C221.455 1.79 220.543 2.384 219.565 2.516L219.739 2.912C220.879 2.738 221.893 2.048 221.893 1.112V0.974H221.455ZM221.521 0.974V1.112C221.521 2.036 222.529 2.744 223.663 2.912L223.843 2.516C222.871 2.384 221.953 1.784 221.953 1.112V0.974H221.521ZM219.733 0.71V1.118H223.687V0.71H219.733ZM221.461 0.0439998V0.854H221.953V0.0439998H221.461ZM228.445 0.0379999V5.468H228.949V0.0379999H228.445ZM228.811 2.24V2.654H229.813V2.24H228.811ZM227.059 0.626V0.704C227.059 2.138 226.309 3.296 224.809 4.058L225.085 4.442C226.837 3.56 227.545 2.168 227.545 0.626H227.059ZM225.061 0.626V1.034H227.317V0.626H225.061ZM234.452 0.824V1.232H236.108V0.824H234.452ZM234.452 2.072V2.486H236.108V2.072H234.452ZM233.462 0.362C232.658 0.362 232.064 0.902 232.064 1.652C232.064 2.408 232.658 2.942 233.462 2.942C234.26 2.942 234.86 2.408 234.86 1.652C234.86 0.902 234.26 0.362 233.462 0.362ZM233.462 0.788C233.99 0.788 234.386 1.142 234.386 1.652C234.386 2.162 233.99 2.516 233.462 2.516C232.934 2.516 232.544 2.162 232.544 1.652C232.544 1.142 232.934 0.788 233.462 0.788ZM235.946 0.0439998V3.254H236.444V0.0439998H235.946ZM234.662 3.38C233.54 3.38 232.85 3.764 232.85 4.418C232.85 5.078 233.54 5.456 234.662 5.456C235.778 5.456 236.468 5.078 236.468 4.418C236.468 3.764 235.778 3.38 234.662 3.38ZM234.662 3.776C235.478 3.776 235.976 4.016 235.976 4.418C235.976 4.826 235.478 5.066 234.662 5.066C233.84 5.066 233.342 4.826 233.342 4.418C233.342 4.016 233.84 3.776 234.662 3.776ZM241.561 0.854V1.268H242.503V0.854H241.561ZM241.561 2.006V2.42H242.503V2.006H241.561ZM239.017 0.362C238.201 0.362 237.601 0.89 237.601 1.646C237.601 2.396 238.201 2.918 239.017 2.918C239.833 2.918 240.433 2.396 240.433 1.646C240.433 0.89 239.833 0.362 239.017 0.362ZM239.017 0.782C239.557 0.782 239.947 1.136 239.947 1.646C239.947 2.156 239.557 2.504 239.017 2.504C238.477 2.504 238.087 2.156 238.087 1.646C238.087 1.136 238.477 0.782 239.017 0.782ZM241.213 0.0439998V3.254H241.711V0.0439998H241.213ZM239.983 3.428C238.879 3.428 238.201 3.806 238.201 4.442C238.201 5.084 238.879 5.456 239.983 5.456C241.087 5.456 241.765 5.084 241.765 4.442C241.765 3.806 241.087 3.428 239.983 3.428ZM239.983 3.83C240.787 3.83 241.279 4.052 241.279 4.442C241.279 4.832 240.787 5.06 239.983 5.06C239.179 5.06 238.687 4.832 238.687 4.442C238.687 4.052 239.179 3.83 239.983 3.83ZM245.917 1.448V1.862H247.141V1.448H245.917ZM246.985 0.0439998V3.278H247.483V0.0439998H246.985ZM245.701 3.44C244.579 3.44 243.889 3.818 243.889 4.454C243.889 5.096 244.579 5.462 245.701 5.462C246.817 5.462 247.507 5.096 247.507 4.454C247.507 3.818 246.817 3.44 245.701 3.44ZM245.701 3.83C246.517 3.83 247.015 4.058 247.015 4.454C247.015 4.844 246.517 5.072 245.701 5.072C244.885 5.072 244.387 4.844 244.387 4.454C244.387 4.058 244.885 3.83 245.701 3.83ZM244.405 0.59V1.028C244.405 1.808 243.847 2.534 243.043 2.828L243.301 3.224C244.201 2.888 244.813 2.03 244.813 1.028V0.59H244.405ZM244.501 0.59V1.028C244.501 1.94 245.083 2.756 245.965 3.074L246.217 2.678C245.431 2.402 244.903 1.73 244.903 1.028V0.59H244.501ZM243.193 0.44V0.848H246.091V0.44H243.193ZM248.544 4.364V4.778H253.458V4.364H248.544ZM250.74 3.068V4.484H251.238V3.068H250.74ZM249.12 0.428V3.2H252.87V0.428H252.378V1.394H249.612V0.428H249.12ZM249.612 1.796H252.378V2.792H249.612V1.796ZM254.058 2.564V2.942H258.978V2.564H254.058ZM254.64 3.38V3.734H257.874V4.196H254.658V5.174H255.15V4.538H258.36V3.38H254.64ZM254.658 5.042V5.402H258.534V5.042H254.658ZM254.682 0.2V0.554H257.856V0.992H254.694V1.916H255.186V1.328H258.342V0.2H254.682ZM254.694 1.796V2.156H258.444V1.796H254.694ZM4.422 7.044V12.468H4.902V7.044H4.422ZM2.448 8.988V9.402H3.486V8.988H2.448ZM3.336 7.17V12.192H3.804V7.17H3.336ZM1.404 7.884V8.574C1.404 9.57 0.984 10.56 0.228 11.016L0.534 11.388C1.332 10.884 1.788 9.762 1.788 8.574V7.884H1.404ZM1.506 7.884V8.574C1.506 9.708 1.944 10.776 2.736 11.256L3.042 10.89C2.298 10.458 1.89 9.516 1.89 8.574V7.884H1.506ZM0.378 7.674V8.088H2.856V7.674H0.378ZM8.24953 10.464C7.09153 10.464 6.35953 10.842 6.35953 11.466C6.35953 12.084 7.09153 12.456 8.24953 12.456C9.40153 12.456 10.1395 12.084 10.1395 11.466C10.1395 10.842 9.40153 10.464 8.24953 10.464ZM8.24953 10.854C9.10153 10.854 9.64153 11.088 9.64153 11.466C9.64153 11.838 9.10153 12.072 8.24953 12.072C7.39753 12.072 6.85153 11.838 6.85153 11.466C6.85153 11.088 7.39753 10.854 8.24953 10.854ZM6.40153 7.314V7.722H9.89353V7.314H6.40153ZM5.81953 9.57V9.972H10.7155V9.57H5.81953ZM7.82953 8.526V9.684H8.32153V8.526H7.82953ZM9.60553 7.314V7.776C9.60553 8.202 9.60553 8.598 9.45553 9.156L9.94753 9.216C10.0915 8.652 10.0915 8.214 10.0915 7.776V7.314H9.60553ZM11.3271 7.968V8.376H14.0151V7.968H11.3271ZM12.6711 8.736C11.9991 8.736 11.5071 9.246 11.5071 9.978C11.5071 10.704 11.9991 11.214 12.6711 11.214C13.3491 11.214 13.8411 10.704 13.8411 9.978C13.8411 9.246 13.3491 8.736 12.6711 8.736ZM12.6711 9.162C13.0911 9.162 13.3971 9.498 13.3971 9.978C13.3971 10.458 13.0911 10.794 12.6711 10.794C12.2571 10.794 11.9571 10.458 11.9571 9.978C11.9571 9.498 12.2571 9.162 12.6711 9.162ZM15.4491 7.044V12.468H15.9291V7.044H15.4491ZM14.5851 9.324V9.738H15.6111V9.324H14.5851ZM14.2911 7.164V12.204H14.7591V7.164H14.2911ZM12.4311 7.2V8.22H12.9231V7.2H12.4311ZM17.4766 9.642V10.05H21.2026V9.642H17.4766ZM16.8586 11.322V11.736H21.7726V11.322H16.8586ZM17.4766 7.542V9.822H17.9746V7.956H21.1486V7.542H17.4766ZM26.3201 7.044V10.026H26.8241V7.044H26.3201ZM22.6541 9.504V9.912H23.0921C24.1001 9.912 24.8321 9.882 25.7261 9.744L25.6721 9.33C24.8021 9.474 24.0761 9.504 23.0921 9.504H22.6541ZM22.6421 7.308V7.71H24.6161V8.388H22.6541V9.774H23.1401V8.778H25.1021V7.308H22.6421ZM23.3141 10.296V12.396H26.8241V10.296H26.3321V10.932H23.8061V10.296H23.3141ZM23.8061 11.328H26.3321V11.988H23.8061V11.328ZM31.8397 7.044V12.468H32.3377V7.044H31.8397ZM28.2397 7.572V10.932H28.7317V7.572H28.2397ZM28.2397 10.638V11.07H28.6837C29.5417 11.07 30.3997 11.004 31.3417 10.812L31.2817 10.386C30.3637 10.578 29.5057 10.638 28.6837 10.638H28.2397ZM37.0832 7.038V12.474H37.5872V7.038H37.0832ZM37.4672 9.18V9.6H38.4752V9.18H37.4672ZM33.6452 10.704V11.124H34.0712C35.0912 11.124 35.8052 11.094 36.6392 10.938L36.5852 10.518C35.7752 10.668 35.0732 10.704 34.0712 10.704H33.6452ZM33.6452 7.566V10.89H34.1372V7.974H36.1652V7.566H33.6452ZM39.4634 12.0341C39.3583 12.0341 39.2681 11.9964 39.1928 11.9212C39.1175 11.8459 39.0799 11.7557 39.0799 11.6506C39.0799 11.5455 39.1175 11.4553 39.1928 11.38C39.2681 11.3047 39.3583 11.267 39.4634 11.267C39.5685 11.267 39.6587 11.3047 39.734 11.38C39.8093 11.4553 39.8469 11.5455 39.8469 11.6506C39.8469 11.7202 39.8292 11.7841 39.7937 11.8423C39.7596 11.9006 39.7134 11.9474 39.6552 11.983C39.5984 12.017 39.5344 12.0341 39.4634 12.0341Z" fill="black"/>
</svg>
