<svg width="76" height="76" viewBox="0 0 76 76" fill="none" xmlns="http://www.w3.org/2000/svg">
<rect width="76" height="76" fill="#FFBC0D"/>
<rect x="25" y="11" width="10.6667" height="10.6667" rx="3" stroke="black" stroke-width="2"/>
<rect x="27.1667" y="13.1667" width="6.33333" height="6.33333" fill="black"/>
<rect x="40.2" y="11" width="10.6667" height="10.6667" rx="3" stroke="black" stroke-width="2"/>
<rect x="42.3667" y="13.1667" width="6.33333" height="6.33333" fill="black"/>
<rect x="25" y="26.2" width="10.6667" height="10.6667" rx="3" stroke="black" stroke-width="2"/>
<rect x="27.1667" y="28.3667" width="6.33333" height="6.33333" fill="black"/>
<rect x="39.2" y="25.2" width="3.8" height="3.8" fill="black"/>
<rect x="39.2" y="25.2" width="3.8" height="3.8" fill="black"/>
<rect x="43" y="29" width="5.06667" height="5.06667" fill="black"/>
<rect x="43" y="29" width="5.06667" height="5.06667" fill="black"/>
<rect x="39.2" y="34.0667" width="3.8" height="3.8" fill="black"/>
<rect x="39.2" y="34.0667" width="3.8" height="3.8" fill="black"/>
<rect x="48.0667" y="34.0667" width="3.8" height="3.8" fill="black"/>
<rect x="48.0667" y="34.0667" width="3.8" height="3.8" fill="black"/>
<rect x="48.0667" y="25.2" width="3.8" height="3.8" fill="black"/>
<rect x="48.0667" y="25.2" width="3.8" height="3.8" fill="black"/>
<rect x="42.9567" y="66.4783" width="6.33333" height="1.26667" transform="rotate(135 42.9567 66.4783)" fill="black"/>
<rect x="34.8957" y="65.5825" width="6.33333" height="1.26667" transform="rotate(45 34.8957 65.5825)" fill="black"/>
<path d="M17.9788 53.218V56.445H18.5598V53.218H17.9788ZM15.9768 53.526V53.813C15.9768 54.905 15.0948 55.738 13.4568 56.116L13.6598 56.592C15.5078 56.144 16.6068 55.122 16.6068 53.526H15.9768ZM13.7858 53.526V54.002H16.2428V53.526H13.7858ZM16.3828 54.128V54.59H18.0768V54.128H16.3828ZM16.3268 55.339V55.794H18.0418V55.339H16.3268ZM14.4858 56.739V57.208H17.9858V57.845H14.5068V59.301H15.0808V58.293H18.5598V56.739H14.4858ZM14.5068 59.021V59.483H18.7698V59.021H14.5068ZM24.6072 53.218V59.546H25.1672V53.218H24.6072ZM22.3042 55.486V55.969H23.5152V55.486H22.3042ZM23.3402 53.365V59.224H23.8862V53.365H23.3402ZM21.0862 54.198V55.003C21.0862 56.165 20.5962 57.32 19.7142 57.852L20.0712 58.286C21.0022 57.698 21.5342 56.389 21.5342 55.003V54.198H21.0862ZM21.2052 54.198V55.003C21.2052 56.326 21.7162 57.572 22.6402 58.132L22.9972 57.705C22.1292 57.201 21.6532 56.102 21.6532 55.003V54.198H21.2052ZM19.8892 53.953V54.436H22.7802V53.953H19.8892ZM31.5594 54.961V55.437H33.1554V54.961H31.5594ZM32.8264 53.225V57.859H33.4074V53.225H32.8264ZM29.3684 58.93V59.406H33.5824V58.93H29.3684ZM29.3684 57.453V59.175H29.9494V57.453H29.3684ZM29.8164 54.009V54.52C29.8164 55.416 29.1654 56.256 28.2204 56.592L28.5214 57.054C29.5784 56.662 30.2924 55.668 30.2924 54.52V54.009H29.8164ZM29.9284 54.009V54.513C29.9284 55.584 30.6074 56.536 31.6364 56.907L31.9304 56.452C31.0134 56.13 30.3974 55.332 30.3974 54.513V54.009H29.9284ZM28.4024 53.736V54.205H31.7834V53.736H28.4024ZM39.8556 54.709V55.192H41.4516V54.709H39.8556ZM38.1966 53.603V54.38C38.1966 55.346 37.5596 56.242 36.6216 56.592L36.9226 57.054C37.9796 56.627 38.6656 55.605 38.6656 54.38V53.603H38.1966ZM38.3086 53.603V54.401C38.3086 55.528 38.9876 56.508 39.9956 56.9L40.3106 56.452C39.3936 56.116 38.7776 55.283 38.7776 54.401V53.603H38.3086ZM41.2346 53.225V57.957H41.8156V53.225H41.2346ZM37.7486 58.93V59.406H41.9696V58.93H37.7486ZM37.7486 57.432V59.154H38.3296V57.432H37.7486ZM43.3201 56.242V56.725H43.7261C44.7411 56.725 45.3431 56.697 46.0711 56.557L46.0151 56.081C45.3081 56.221 44.7201 56.242 43.7261 56.242H43.3201ZM43.3201 53.68V56.501H43.8801V54.156H45.7701V53.68H43.3201ZM43.7051 54.94V55.395H45.6931V54.94H43.7051ZM47.8281 53.218V57.054H48.3811V53.218H47.8281ZM46.8061 54.87V55.346H48.0031V54.87H46.8061ZM46.4351 53.337V57.019H46.9811V53.337H46.4351ZM44.1391 57.39V57.866H47.8071V59.546H48.3811V57.39H44.1391ZM56.0683 53.218V56.494H56.6563V53.218H56.0683ZM52.5263 56.802V57.264H56.0753V57.894H52.5473V59.28H53.1143V58.328H56.6563V56.802H52.5263ZM52.5473 59.014V59.476H56.8873V59.014H52.5473ZM51.7423 53.645V54.107H55.1373V53.645H51.7423ZM51.6303 56.284C52.7433 56.277 54.2133 56.235 55.4733 56.046L55.4383 55.619C54.2063 55.773 52.6943 55.801 51.5673 55.801L51.6303 56.284ZM52.3653 53.855V56.011H52.9253V53.855H52.3653ZM53.9473 53.855V56.011H54.5143V53.855H53.9473ZM60.4568 53.442V53.792C60.4568 54.695 59.3438 55.451 58.1888 55.626L58.4198 56.095C59.7358 55.871 60.9678 55.003 60.9678 53.792V53.442H60.4568ZM60.5618 53.442V53.792C60.5618 54.989 61.8008 55.871 63.1028 56.095L63.3338 55.626C62.1928 55.451 61.0658 54.674 61.0658 53.792V53.442H60.5618ZM60.4568 57.138V59.546H61.0308V57.138H60.4568ZM57.9018 56.781V57.264H63.6208V56.781H57.9018Z" fill="black"/>
<path d="M17.9788 53.218V53.118H17.8788V53.218H17.9788ZM17.9788 56.445H17.8788V56.545H17.9788V56.445ZM18.5598 56.445V56.545H18.6598V56.445H18.5598ZM18.5598 53.218H18.6598V53.118H18.5598V53.218ZM15.9768 53.526V53.426H15.8768V53.526H15.9768ZM13.4568 56.116L13.4343 56.0186L13.318 56.0454L13.3648 56.1552L13.4568 56.116ZM13.6598 56.592L13.5678 56.6312L13.601 56.7091L13.6833 56.6892L13.6598 56.592ZM16.6068 53.526H16.7068V53.426H16.6068V53.526ZM13.7858 53.526V53.426H13.6858V53.526H13.7858ZM13.7858 54.002H13.6858V54.102H13.7858V54.002ZM16.2428 54.002V54.102H16.3428V54.002H16.2428ZM16.2428 53.526H16.3428V53.426H16.2428V53.526ZM16.3828 54.128V54.028H16.2828V54.128H16.3828ZM16.3828 54.59H16.2828V54.69H16.3828V54.59ZM18.0768 54.59V54.69H18.1768V54.59H18.0768ZM18.0768 54.128H18.1768V54.028H18.0768V54.128ZM16.3268 55.339V55.239H16.2268V55.339H16.3268ZM16.3268 55.794H16.2268V55.894H16.3268V55.794ZM18.0418 55.794V55.894H18.1418V55.794H18.0418ZM18.0418 55.339H18.1418V55.239H18.0418V55.339ZM14.4858 56.739V56.639H14.3858V56.739H14.4858ZM14.4858 57.208H14.3858V57.308H14.4858V57.208ZM17.9858 57.208H18.0858V57.108H17.9858V57.208ZM17.9858 57.845V57.945H18.0858V57.845H17.9858ZM14.5068 57.845V57.745H14.4068V57.845H14.5068ZM14.5068 59.301H14.4068V59.401H14.5068V59.301ZM15.0808 59.301V59.401H15.1808V59.301H15.0808ZM15.0808 58.293V58.193H14.9808V58.293H15.0808ZM18.5598 58.293V58.393H18.6598V58.293H18.5598ZM18.5598 56.739H18.6598V56.639H18.5598V56.739ZM14.5068 59.021V58.921H14.4068V59.021H14.5068ZM14.5068 59.483H14.4068V59.583H14.5068V59.483ZM18.7698 59.483V59.583H18.8698V59.483H18.7698ZM18.7698 59.021H18.8698V58.921H18.7698V59.021ZM17.8788 53.218V56.445H18.0788V53.218H17.8788ZM17.9788 56.545H18.5598V56.345H17.9788V56.545ZM18.6598 56.445V53.218H18.4598V56.445H18.6598ZM18.5598 53.118H17.9788V53.318H18.5598V53.118ZM15.8768 53.526V53.813H16.0768V53.526H15.8768ZM15.8768 53.813C15.8768 54.8348 15.0549 55.6446 13.4343 56.0186L13.4793 56.2134C15.1347 55.8314 16.0768 54.9752 16.0768 53.813H15.8768ZM13.3648 56.1552L13.5678 56.6312L13.7518 56.5528L13.5488 56.0768L13.3648 56.1552ZM13.6833 56.6892C14.6188 56.4624 15.3745 56.0881 15.8974 55.5598C16.4223 55.0294 16.7068 54.3493 16.7068 53.526H16.5068C16.5068 54.2987 16.2417 54.9276 15.7552 55.4192C15.2666 55.9129 14.5488 56.2736 13.6362 56.4948L13.6833 56.6892ZM16.6068 53.426H15.9768V53.626H16.6068V53.426ZM13.6858 53.526V54.002H13.8858V53.526H13.6858ZM13.7858 54.102H16.2428V53.902H13.7858V54.102ZM16.3428 54.002V53.526H16.1428V54.002H16.3428ZM16.2428 53.426H13.7858V53.626H16.2428V53.426ZM16.2828 54.128V54.59H16.4828V54.128H16.2828ZM16.3828 54.69H18.0768V54.49H16.3828V54.69ZM18.1768 54.59V54.128H17.9768V54.59H18.1768ZM18.0768 54.028H16.3828V54.228H18.0768V54.028ZM16.2268 55.339V55.794H16.4268V55.339H16.2268ZM16.3268 55.894H18.0418V55.694H16.3268V55.894ZM18.1418 55.794V55.339H17.9418V55.794H18.1418ZM18.0418 55.239H16.3268V55.439H18.0418V55.239ZM14.3858 56.739V57.208H14.5858V56.739H14.3858ZM14.4858 57.308H17.9858V57.108H14.4858V57.308ZM17.8858 57.208V57.845H18.0858V57.208H17.8858ZM17.9858 57.745H14.5068V57.945H17.9858V57.745ZM14.4068 57.845V59.301H14.6068V57.845H14.4068ZM14.5068 59.401H15.0808V59.201H14.5068V59.401ZM15.1808 59.301V58.293H14.9808V59.301H15.1808ZM15.0808 58.393H18.5598V58.193H15.0808V58.393ZM18.6598 58.293V56.739H18.4598V58.293H18.6598ZM18.5598 56.639H14.4858V56.839H18.5598V56.639ZM14.4068 59.021V59.483H14.6068V59.021H14.4068ZM14.5068 59.583H18.7698V59.383H14.5068V59.583ZM18.8698 59.483V59.021H18.6698V59.483H18.8698ZM18.7698 58.921H14.5068V59.121H18.7698V58.921ZM24.6072 53.218V53.118H24.5072V53.218H24.6072ZM24.6072 59.546H24.5072V59.646H24.6072V59.546ZM25.1672 59.546V59.646H25.2672V59.546H25.1672ZM25.1672 53.218H25.2672V53.118H25.1672V53.218ZM22.3042 55.486V55.386H22.2042V55.486H22.3042ZM22.3042 55.969H22.2042V56.069H22.3042V55.969ZM23.5152 55.969V56.069H23.6152V55.969H23.5152ZM23.5152 55.486H23.6152V55.386H23.5152V55.486ZM23.3402 53.365V53.265H23.2402V53.365H23.3402ZM23.3402 59.224H23.2402V59.324H23.3402V59.224ZM23.8862 59.224V59.324H23.9862V59.224H23.8862ZM23.8862 53.365H23.9862V53.265H23.8862V53.365ZM21.0862 54.198V54.098H20.9862V54.198H21.0862ZM19.7142 57.852L19.6626 57.7664L19.5635 57.8261L19.637 57.9155L19.7142 57.852ZM20.0712 58.286L19.994 58.3495L20.0501 58.4177L20.1246 58.3705L20.0712 58.286ZM21.5342 54.198H21.6342V54.098H21.5342V54.198ZM21.2052 54.198V54.098H21.1052V54.198H21.2052ZM22.6402 58.132L22.5884 58.2175L22.6619 58.262L22.717 58.1961L22.6402 58.132ZM22.9972 57.705L23.074 57.7691L23.1501 57.6781L23.0475 57.6185L22.9972 57.705ZM21.6532 54.198H21.7532V54.098H21.6532V54.198ZM19.8892 53.953V53.853H19.7892V53.953H19.8892ZM19.8892 54.436H19.7892V54.536H19.8892V54.436ZM22.7802 54.436V54.536H22.8802V54.436H22.7802ZM22.7802 53.953H22.8802V53.853H22.7802V53.953ZM24.5072 53.218V59.546H24.7072V53.218H24.5072ZM24.6072 59.646H25.1672V59.446H24.6072V59.646ZM25.2672 59.546V53.218H25.0672V59.546H25.2672ZM25.1672 53.118H24.6072V53.318H25.1672V53.118ZM22.2042 55.486V55.969H22.4042V55.486H22.2042ZM22.3042 56.069H23.5152V55.869H22.3042V56.069ZM23.6152 55.969V55.486H23.4152V55.969H23.6152ZM23.5152 55.386H22.3042V55.586H23.5152V55.386ZM23.2402 53.365V59.224H23.4402V53.365H23.2402ZM23.3402 59.324H23.8862V59.124H23.3402V59.324ZM23.9862 59.224V53.365H23.7862V59.224H23.9862ZM23.8862 53.265H23.3402V53.465H23.8862V53.265ZM20.9862 54.198V55.003H21.1862V54.198H20.9862ZM20.9862 55.003C20.9862 56.1428 20.505 57.2583 19.6626 57.7664L19.7659 57.9376C20.6875 57.3817 21.1862 56.1872 21.1862 55.003H20.9862ZM19.637 57.9155L19.994 58.3495L20.1485 58.2225L19.7915 57.7885L19.637 57.9155ZM20.1246 58.3705C21.0957 57.7573 21.6342 56.4078 21.6342 55.003H21.4342C21.4342 56.3702 20.9088 57.6387 20.0178 58.2015L20.1246 58.3705ZM21.6342 55.003V54.198H21.4342V55.003H21.6342ZM21.5342 54.098H21.0862V54.298H21.5342V54.098ZM21.1052 54.198V55.003H21.3052V54.198H21.1052ZM21.1052 55.003C21.1052 56.3453 21.6232 57.6325 22.5884 58.2175L22.6921 58.0465C21.8093 57.5115 21.3052 56.3067 21.3052 55.003H21.1052ZM22.717 58.1961L23.074 57.7691L22.9205 57.6409L22.5635 58.0679L22.717 58.1961ZM23.0475 57.6185C22.2197 57.1379 21.7532 56.0788 21.7532 55.003H21.5532C21.5532 56.1252 22.0388 57.2641 22.947 57.7915L23.0475 57.6185ZM21.7532 55.003V54.198H21.5532V55.003H21.7532ZM21.6532 54.098H21.2052V54.298H21.6532V54.098ZM19.7892 53.953V54.436H19.9892V53.953H19.7892ZM19.8892 54.536H22.7802V54.336H19.8892V54.536ZM22.8802 54.436V53.953H22.6802V54.436H22.8802ZM22.7802 53.853H19.8892V54.053H22.7802V53.853ZM31.5594 54.961V54.861H31.4594V54.961H31.5594ZM31.5594 55.437H31.4594V55.537H31.5594V55.437ZM33.1554 55.437V55.537H33.2554V55.437H33.1554ZM33.1554 54.961H33.2554V54.861H33.1554V54.961ZM32.8264 53.225V53.125H32.7264V53.225H32.8264ZM32.8264 57.859H32.7264V57.959H32.8264V57.859ZM33.4074 57.859V57.959H33.5074V57.859H33.4074ZM33.4074 53.225H33.5074V53.125H33.4074V53.225ZM29.3684 58.93V58.83H29.2684V58.93H29.3684ZM29.3684 59.406H29.2684V59.506H29.3684V59.406ZM33.5824 59.406V59.506H33.6824V59.406H33.5824ZM33.5824 58.93H33.6824V58.83H33.5824V58.93ZM29.3684 57.453V57.353H29.2684V57.453H29.3684ZM29.3684 59.175H29.2684V59.275H29.3684V59.175ZM29.9494 59.175V59.275H30.0494V59.175H29.9494ZM29.9494 57.453H30.0494V57.353H29.9494V57.453ZM29.8164 54.009V53.909H29.7164V54.009H29.8164ZM28.2204 56.592L28.1869 56.4978L28.0674 56.5403L28.1367 56.6466L28.2204 56.592ZM28.5214 57.054L28.4377 57.1086L28.4813 57.1755L28.5562 57.1478L28.5214 57.054ZM30.2924 54.009H30.3924V53.909H30.2924V54.009ZM29.9284 54.009V53.909H29.8284V54.009H29.9284ZM31.6364 56.907L31.6025 57.0011L31.6773 57.028L31.7204 56.9613L31.6364 56.907ZM31.9304 56.452L32.0144 56.5063L32.0833 56.3997L31.9636 56.3576L31.9304 56.452ZM30.3974 54.009H30.4974V53.909H30.3974V54.009ZM28.4024 53.736V53.636H28.3024V53.736H28.4024ZM28.4024 54.205H28.3024V54.305H28.4024V54.205ZM31.7834 54.205V54.305H31.8834V54.205H31.7834ZM31.7834 53.736H31.8834V53.636H31.7834V53.736ZM31.4594 54.961V55.437H31.6594V54.961H31.4594ZM31.5594 55.537H33.1554V55.337H31.5594V55.537ZM33.2554 55.437V54.961H33.0554V55.437H33.2554ZM33.1554 54.861H31.5594V55.061H33.1554V54.861ZM32.7264 53.225V57.859H32.9264V53.225H32.7264ZM32.8264 57.959H33.4074V57.759H32.8264V57.959ZM33.5074 57.859V53.225H33.3074V57.859H33.5074ZM33.4074 53.125H32.8264V53.325H33.4074V53.125ZM29.2684 58.93V59.406H29.4684V58.93H29.2684ZM29.3684 59.506H33.5824V59.306H29.3684V59.506ZM33.6824 59.406V58.93H33.4824V59.406H33.6824ZM33.5824 58.83H29.3684V59.03H33.5824V58.83ZM29.2684 57.453V59.175H29.4684V57.453H29.2684ZM29.3684 59.275H29.9494V59.075H29.3684V59.275ZM30.0494 59.175V57.453H29.8494V59.175H30.0494ZM29.9494 57.353H29.3684V57.553H29.9494V57.353ZM29.7164 54.009V54.52H29.9164V54.009H29.7164ZM29.7164 54.52C29.7164 55.3669 29.0988 56.1736 28.1869 56.4978L28.2539 56.6862C29.2321 56.3384 29.9164 55.4651 29.9164 54.52H29.7164ZM28.1367 56.6466L28.4377 57.1086L28.6052 56.9994L28.3042 56.5374L28.1367 56.6466ZM28.5562 57.1478C29.6515 56.7415 30.3924 55.7108 30.3924 54.52H30.1924C30.1924 55.6252 29.5054 56.5825 28.4867 56.9602L28.5562 57.1478ZM30.3924 54.52V54.009H30.1924V54.52H30.3924ZM30.2924 53.909H29.8164V54.109H30.2924V53.909ZM29.8284 54.009V54.513H30.0284V54.009H29.8284ZM29.8284 54.513C29.8284 55.6273 30.535 56.6162 31.6025 57.0011L31.6704 56.8129C30.6799 56.4558 30.0284 55.5407 30.0284 54.513H29.8284ZM31.7204 56.9613L32.0144 56.5063L31.8465 56.3977L31.5525 56.8527L31.7204 56.9613ZM31.9636 56.3576C31.0788 56.047 30.4974 55.2818 30.4974 54.513H30.2974C30.2974 55.3822 30.9481 56.213 31.8973 56.5464L31.9636 56.3576ZM30.4974 54.513V54.009H30.2974V54.513H30.4974ZM30.3974 53.909H29.9284V54.109H30.3974V53.909ZM28.3024 53.736V54.205H28.5024V53.736H28.3024ZM28.4024 54.305H31.7834V54.105H28.4024V54.305ZM31.8834 54.205V53.736H31.6834V54.205H31.8834ZM31.7834 53.636H28.4024V53.836H31.7834V53.636ZM39.8556 54.709V54.609H39.7556V54.709H39.8556ZM39.8556 55.192H39.7556V55.292H39.8556V55.192ZM41.4516 55.192V55.292H41.5516V55.192H41.4516ZM41.4516 54.709H41.5516V54.609H41.4516V54.709ZM38.1966 53.603V53.503H38.0966V53.603H38.1966ZM36.6216 56.592L36.5867 56.4983L36.4697 56.542L36.5379 56.6466L36.6216 56.592ZM36.9226 57.054L36.8389 57.1086L36.8838 57.1775L36.9601 57.1467L36.9226 57.054ZM38.6656 53.603H38.7656V53.503H38.6656V53.603ZM38.3086 53.603V53.503H38.2086V53.603H38.3086ZM39.9956 56.9L39.9594 56.9932L40.0324 57.0216L40.0775 56.9575L39.9956 56.9ZM40.3106 56.452L40.3925 56.5095L40.4674 56.4029L40.3451 56.3581L40.3106 56.452ZM38.7776 53.603H38.8776V53.503H38.7776V53.603ZM41.2346 53.225V53.125H41.1346V53.225H41.2346ZM41.2346 57.957H41.1346V58.057H41.2346V57.957ZM41.8156 57.957V58.057H41.9156V57.957H41.8156ZM41.8156 53.225H41.9156V53.125H41.8156V53.225ZM37.7486 58.93V58.83H37.6486V58.93H37.7486ZM37.7486 59.406H37.6486V59.506H37.7486V59.406ZM41.9696 59.406V59.506H42.0696V59.406H41.9696ZM41.9696 58.93H42.0696V58.83H41.9696V58.93ZM37.7486 57.432V57.332H37.6486V57.432H37.7486ZM37.7486 59.154H37.6486V59.254H37.7486V59.154ZM38.3296 59.154V59.254H38.4296V59.154H38.3296ZM38.3296 57.432H38.4296V57.332H38.3296V57.432ZM39.7556 54.709V55.192H39.9556V54.709H39.7556ZM39.8556 55.292H41.4516V55.092H39.8556V55.292ZM41.5516 55.192V54.709H41.3516V55.192H41.5516ZM41.4516 54.609H39.8556V54.809H41.4516V54.609ZM38.0966 53.603V54.38H38.2966V53.603H38.0966ZM38.0966 54.38C38.0966 55.3024 37.4874 56.1622 36.5867 56.4983L36.6566 56.6857C37.6319 56.3218 38.2966 55.3896 38.2966 54.38H38.0966ZM36.5379 56.6466L36.8389 57.1086L37.0064 56.9994L36.7054 56.5374L36.5379 56.6466ZM36.9601 57.1467C38.0567 56.7037 38.7656 55.6438 38.7656 54.38H38.5656C38.5656 55.5662 37.9026 56.5503 36.8852 56.9613L36.9601 57.1467ZM38.7656 54.38V53.603H38.5656V54.38H38.7656ZM38.6656 53.503H38.1966V53.703H38.6656V53.503ZM38.2086 53.603V54.401H38.4086V53.603H38.2086ZM38.2086 54.401C38.2086 55.5688 38.9126 56.5861 39.9594 56.9932L40.0319 56.8068C39.0627 56.4299 38.4086 55.4872 38.4086 54.401H38.2086ZM40.0775 56.9575L40.3925 56.5095L40.2288 56.3945L39.9138 56.8425L40.0775 56.9575ZM40.3451 56.3581C39.4627 56.0348 38.8776 55.2362 38.8776 54.401H38.6776C38.6776 55.3298 39.3246 56.1972 40.2762 56.5459L40.3451 56.3581ZM38.8776 54.401V53.603H38.6776V54.401H38.8776ZM38.7776 53.503H38.3086V53.703H38.7776V53.503ZM41.1346 53.225V57.957H41.3346V53.225H41.1346ZM41.2346 58.057H41.8156V57.857H41.2346V58.057ZM41.9156 57.957V53.225H41.7156V57.957H41.9156ZM41.8156 53.125H41.2346V53.325H41.8156V53.125ZM37.6486 58.93V59.406H37.8486V58.93H37.6486ZM37.7486 59.506H41.9696V59.306H37.7486V59.506ZM42.0696 59.406V58.93H41.8696V59.406H42.0696ZM41.9696 58.83H37.7486V59.03H41.9696V58.83ZM37.6486 57.432V59.154H37.8486V57.432H37.6486ZM37.7486 59.254H38.3296V59.054H37.7486V59.254ZM38.4296 59.154V57.432H38.2296V59.154H38.4296ZM38.3296 57.332H37.7486V57.532H38.3296V57.332ZM43.3201 56.242V56.142H43.2201V56.242H43.3201ZM43.3201 56.725H43.2201V56.825H43.3201V56.725ZM46.0711 56.557L46.09 56.6552L46.1813 56.6376L46.1704 56.5453L46.0711 56.557ZM46.0151 56.081L46.1144 56.0693L46.1018 55.9619L45.9957 55.9829L46.0151 56.081ZM43.3201 53.68V53.58H43.2201V53.68H43.3201ZM43.3201 56.501H43.2201V56.601H43.3201V56.501ZM43.8801 56.501V56.601H43.9801V56.501H43.8801ZM43.8801 54.156V54.056H43.7801V54.156H43.8801ZM45.7701 54.156V54.256H45.8701V54.156H45.7701ZM45.7701 53.68H45.8701V53.58H45.7701V53.68ZM43.7051 54.94V54.84H43.6051V54.94H43.7051ZM43.7051 55.395H43.6051V55.495H43.7051V55.395ZM45.6931 55.395V55.495H45.7931V55.395H45.6931ZM45.6931 54.94H45.7931V54.84H45.6931V54.94ZM47.8281 53.218V53.118H47.7281V53.218H47.8281ZM47.8281 57.054H47.7281V57.154H47.8281V57.054ZM48.3811 57.054V57.154H48.4811V57.054H48.3811ZM48.3811 53.218H48.4811V53.118H48.3811V53.218ZM46.8061 54.87V54.77H46.7061V54.87H46.8061ZM46.8061 55.346H46.7061V55.446H46.8061V55.346ZM48.0031 55.346V55.446H48.1031V55.346H48.0031ZM48.0031 54.87H48.1031V54.77H48.0031V54.87ZM46.4351 53.337V53.237H46.3351V53.337H46.4351ZM46.4351 57.019H46.3351V57.119H46.4351V57.019ZM46.9811 57.019V57.119H47.0811V57.019H46.9811ZM46.9811 53.337H47.0811V53.237H46.9811V53.337ZM44.1391 57.39V57.29H44.0391V57.39H44.1391ZM44.1391 57.866H44.0391V57.966H44.1391V57.866ZM47.8071 57.866H47.9071V57.766H47.8071V57.866ZM47.8071 59.546H47.7071V59.646H47.8071V59.546ZM48.3811 59.546V59.646H48.4811V59.546H48.3811ZM48.3811 57.39H48.4811V57.29H48.3811V57.39ZM43.2201 56.242V56.725H43.4201V56.242H43.2201ZM43.3201 56.825H43.7261V56.625H43.3201V56.825ZM43.7261 56.825C44.743 56.825 45.3526 56.797 46.09 56.6552L46.0522 56.4588C45.3336 56.597 44.7392 56.625 43.7261 56.625V56.825ZM46.1704 56.5453L46.1144 56.0693L45.9158 56.0927L45.9718 56.5687L46.1704 56.5453ZM45.9957 55.9829C45.2988 56.1209 44.719 56.142 43.7261 56.142V56.342C44.7212 56.342 45.3174 56.3211 46.0345 56.1791L45.9957 55.9829ZM43.7261 56.142H43.3201V56.342H43.7261V56.142ZM43.2201 53.68V56.501H43.4201V53.68H43.2201ZM43.3201 56.601H43.8801V56.401H43.3201V56.601ZM43.9801 56.501V54.156H43.7801V56.501H43.9801ZM43.8801 54.256H45.7701V54.056H43.8801V54.256ZM45.8701 54.156V53.68H45.6701V54.156H45.8701ZM45.7701 53.58H43.3201V53.78H45.7701V53.58ZM43.6051 54.94V55.395H43.8051V54.94H43.6051ZM43.7051 55.495H45.6931V55.295H43.7051V55.495ZM45.7931 55.395V54.94H45.5931V55.395H45.7931ZM45.6931 54.84H43.7051V55.04H45.6931V54.84ZM47.7281 53.218V57.054H47.9281V53.218H47.7281ZM47.8281 57.154H48.3811V56.954H47.8281V57.154ZM48.4811 57.054V53.218H48.2811V57.054H48.4811ZM48.3811 53.118H47.8281V53.318H48.3811V53.118ZM46.7061 54.87V55.346H46.9061V54.87H46.7061ZM46.8061 55.446H48.0031V55.246H46.8061V55.446ZM48.1031 55.346V54.87H47.9031V55.346H48.1031ZM48.0031 54.77H46.8061V54.97H48.0031V54.77ZM46.3351 53.337V57.019H46.5351V53.337H46.3351ZM46.4351 57.119H46.9811V56.919H46.4351V57.119ZM47.0811 57.019V53.337H46.8811V57.019H47.0811ZM46.9811 53.237H46.4351V53.437H46.9811V53.237ZM44.0391 57.39V57.866H44.2391V57.39H44.0391ZM44.1391 57.966H47.8071V57.766H44.1391V57.966ZM47.7071 57.866V59.546H47.9071V57.866H47.7071ZM47.8071 59.646H48.3811V59.446H47.8071V59.646ZM48.4811 59.546V57.39H48.2811V59.546H48.4811ZM48.3811 57.29H44.1391V57.49H48.3811V57.29ZM56.0683 53.218V53.118H55.9683V53.218H56.0683ZM56.0683 56.494H55.9683V56.594H56.0683V56.494ZM56.6563 56.494V56.594H56.7563V56.494H56.6563ZM56.6563 53.218H56.7563V53.118H56.6563V53.218ZM52.5263 56.802V56.702H52.4263V56.802H52.5263ZM52.5263 57.264H52.4263V57.364H52.5263V57.264ZM56.0753 57.264H56.1753V57.164H56.0753V57.264ZM56.0753 57.894V57.994H56.1753V57.894H56.0753ZM52.5473 57.894V57.794H52.4473V57.894H52.5473ZM52.5473 59.28H52.4473V59.38H52.5473V59.28ZM53.1143 59.28V59.38H53.2143V59.28H53.1143ZM53.1143 58.328V58.228H53.0143V58.328H53.1143ZM56.6563 58.328V58.428H56.7563V58.328H56.6563ZM56.6563 56.802H56.7563V56.702H56.6563V56.802ZM52.5473 59.014V58.914H52.4473V59.014H52.5473ZM52.5473 59.476H52.4473V59.576H52.5473V59.476ZM56.8873 59.476V59.576H56.9873V59.476H56.8873ZM56.8873 59.014H56.9873V58.914H56.8873V59.014ZM51.7423 53.645V53.545H51.6423V53.645H51.7423ZM51.7423 54.107H51.6423V54.207H51.7423V54.107ZM55.1373 54.107V54.207H55.2373V54.107H55.1373ZM55.1373 53.645H55.2373V53.545H55.1373V53.645ZM51.6303 56.284L51.5311 56.2969L51.5426 56.3846L51.6309 56.384L51.6303 56.284ZM55.4733 56.046L55.4881 56.1449L55.5806 56.131L55.573 56.0378L55.4733 56.046ZM55.4383 55.619L55.538 55.6108L55.5294 55.5068L55.4259 55.5198L55.4383 55.619ZM51.5673 55.801V55.701H51.4534L51.4681 55.8139L51.5673 55.801ZM52.3653 53.855V53.755H52.2653V53.855H52.3653ZM52.3653 56.011H52.2653V56.111H52.3653V56.011ZM52.9253 56.011V56.111H53.0253V56.011H52.9253ZM52.9253 53.855H53.0253V53.755H52.9253V53.855ZM53.9473 53.855V53.755H53.8473V53.855H53.9473ZM53.9473 56.011H53.8473V56.111H53.9473V56.011ZM54.5143 56.011V56.111H54.6143V56.011H54.5143ZM54.5143 53.855H54.6143V53.755H54.5143V53.855ZM55.9683 53.218V56.494H56.1683V53.218H55.9683ZM56.0683 56.594H56.6563V56.394H56.0683V56.594ZM56.7563 56.494V53.218H56.5563V56.494H56.7563ZM56.6563 53.118H56.0683V53.318H56.6563V53.118ZM52.4263 56.802V57.264H52.6263V56.802H52.4263ZM52.5263 57.364H56.0753V57.164H52.5263V57.364ZM55.9753 57.264V57.894H56.1753V57.264H55.9753ZM56.0753 57.794H52.5473V57.994H56.0753V57.794ZM52.4473 57.894V59.28H52.6473V57.894H52.4473ZM52.5473 59.38H53.1143V59.18H52.5473V59.38ZM53.2143 59.28V58.328H53.0143V59.28H53.2143ZM53.1143 58.428H56.6563V58.228H53.1143V58.428ZM56.7563 58.328V56.802H56.5563V58.328H56.7563ZM56.6563 56.702H52.5263V56.902H56.6563V56.702ZM52.4473 59.014V59.476H52.6473V59.014H52.4473ZM52.5473 59.576H56.8873V59.376H52.5473V59.576ZM56.9873 59.476V59.014H56.7873V59.476H56.9873ZM56.8873 58.914H52.5473V59.114H56.8873V58.914ZM51.6423 53.645V54.107H51.8423V53.645H51.6423ZM51.7423 54.207H55.1373V54.007H51.7423V54.207ZM55.2373 54.107V53.645H55.0373V54.107H55.2373ZM55.1373 53.545H51.7423V53.745H55.1373V53.545ZM51.6309 56.384C52.7448 56.377 54.2207 56.335 55.4881 56.1449L55.4585 55.9471C54.2059 56.135 52.7418 56.177 51.6297 56.184L51.6309 56.384ZM55.573 56.0378L55.538 55.6108L55.3386 55.6272L55.3736 56.0542L55.573 56.0378ZM55.4259 55.5198C54.2005 55.6729 52.6938 55.701 51.5673 55.701V55.901C52.6948 55.901 54.2121 55.8731 55.4507 55.7182L55.4259 55.5198ZM51.4681 55.8139L51.5311 56.2969L51.7295 56.2711L51.6665 55.7881L51.4681 55.8139ZM52.2653 53.855V56.011H52.4653V53.855H52.2653ZM52.3653 56.111H52.9253V55.911H52.3653V56.111ZM53.0253 56.011V53.855H52.8253V56.011H53.0253ZM52.9253 53.755H52.3653V53.955H52.9253V53.755ZM53.8473 53.855V56.011H54.0473V53.855H53.8473ZM53.9473 56.111H54.5143V55.911H53.9473V56.111ZM54.6143 56.011V53.855H54.4143V56.011H54.6143ZM54.5143 53.755H53.9473V53.955H54.5143V53.755ZM60.4568 53.442V53.342H60.3568V53.442H60.4568ZM58.1888 55.626L58.1738 55.5271L58.0387 55.5476L58.099 55.6702L58.1888 55.626ZM58.4198 56.095L58.33 56.1392L58.363 56.2061L58.4365 56.1936L58.4198 56.095ZM60.9678 53.442H61.0678V53.342H60.9678V53.442ZM60.5618 53.442V53.342H60.4618V53.442H60.5618ZM63.1028 56.095L63.0858 56.1936L63.1594 56.2062L63.1925 56.1392L63.1028 56.095ZM63.3338 55.626L63.4235 55.6702L63.4837 55.5478L63.3489 55.5272L63.3338 55.626ZM61.0658 53.442H61.1658V53.342H61.0658V53.442ZM60.4568 57.138V57.038H60.3568V57.138H60.4568ZM60.4568 59.546H60.3568V59.646H60.4568V59.546ZM61.0308 59.546V59.646H61.1308V59.546H61.0308ZM61.0308 57.138H61.1308V57.038H61.0308V57.138ZM57.9018 56.781V56.681H57.8018V56.781H57.9018ZM57.9018 57.264H57.8018V57.364H57.9018V57.264ZM63.6208 57.264V57.364H63.7208V57.264H63.6208ZM63.6208 56.781H63.7208V56.681H63.6208V56.781ZM60.3568 53.442V53.792H60.5568V53.442H60.3568ZM60.3568 53.792C60.3568 54.2003 60.1045 54.589 59.6951 54.9026C59.2871 55.2151 58.7363 55.4419 58.1738 55.5271L58.2037 55.7249C58.7962 55.6351 59.3794 55.3964 59.8167 55.0614C60.2525 54.7275 60.5568 54.2867 60.5568 53.792H60.3568ZM58.099 55.6702L58.33 56.1392L58.5095 56.0508L58.2785 55.5818L58.099 55.6702ZM58.4365 56.1936C59.1092 56.0791 59.7634 55.7997 60.2515 55.3902C60.7403 54.9802 61.0678 54.4345 61.0678 53.792H60.8678C60.8678 54.3605 60.5792 54.8543 60.123 55.237C59.6661 55.6203 59.0463 55.8869 58.403 55.9964L58.4365 56.1936ZM61.0678 53.792V53.442H60.8678V53.792H61.0678ZM60.9678 53.342H60.4568V53.542H60.9678V53.342ZM60.4618 53.442V53.792H60.6618V53.442H60.4618ZM60.4618 53.792C60.4618 54.4278 60.7913 54.9734 61.2796 55.3848C61.7674 55.7959 62.4197 56.079 63.0858 56.1936L63.1197 55.9964C62.4838 55.887 61.8656 55.6171 61.4084 55.2319C60.9517 54.8471 60.6618 54.3532 60.6618 53.792H60.4618ZM63.1925 56.1392L63.4235 55.6702L63.244 55.5818L63.0131 56.0508L63.1925 56.1392ZM63.3489 55.5272C62.794 55.442 62.243 55.2103 61.8328 54.8949C61.4206 54.5778 61.1658 54.189 61.1658 53.792H60.9658C60.9658 54.277 61.2744 54.7177 61.7109 55.0534C62.1495 55.3907 62.7325 55.635 63.3186 55.7248L63.3489 55.5272ZM61.1658 53.792V53.442H60.9658V53.792H61.1658ZM61.0658 53.342H60.5618V53.542H61.0658V53.342ZM60.3568 57.138V59.546H60.5568V57.138H60.3568ZM60.4568 59.646H61.0308V59.446H60.4568V59.646ZM61.1308 59.546V57.138H60.9308V59.546H61.1308ZM61.0308 57.038H60.4568V57.238H61.0308V57.038ZM57.8018 56.781V57.264H58.0018V56.781H57.8018ZM57.9018 57.364H63.6208V57.164H57.9018V57.364ZM63.7208 57.264V56.781H63.5208V57.264H63.7208ZM63.6208 56.681H57.9018V56.881H63.6208V56.681Z" fill="black"/>
<path d="M9.88809 47.279V47.762H15.6211V47.279H9.88809ZM12.4431 45.641V47.496H13.0241V45.641H12.4431ZM10.3851 42.82V43.296H15.0821V42.82H10.3851ZM10.3991 45.368V45.837H15.0751V45.368H10.3991ZM11.3721 43.205V45.452H11.9531V43.205H11.3721ZM13.5281 43.205V45.452H14.1021V43.205H13.5281ZM20.9265 42.225V46.845H21.5145V42.225H20.9265ZM17.4475 47.93V48.406H21.7035V47.93H17.4475ZM17.4475 46.369V48.091H18.0215V46.369H17.4475ZM18.1195 42.659C17.1745 42.659 16.4675 43.303 16.4675 44.22C16.4675 45.13 17.1745 45.781 18.1195 45.781C19.0645 45.781 19.7645 45.13 19.7645 44.22C19.7645 43.303 19.0645 42.659 18.1195 42.659ZM18.1195 43.163C18.7355 43.163 19.2045 43.597 19.2045 44.22C19.2045 44.836 18.7355 45.27 18.1195 45.27C17.5035 45.27 17.0345 44.836 17.0345 44.22C17.0345 43.597 17.5035 43.163 18.1195 43.163ZM23.502 45.627V46.096H27.849V45.627H23.502ZM22.767 47.251V47.734H28.5V47.251H22.767ZM23.502 42.757V45.774H24.09V43.233H27.779V42.757H23.502ZM23.901 44.171V44.633H27.646V44.171H23.901ZM29.1994 45.158V45.599H34.9394V45.158H29.1994ZM29.8784 46.11V46.523H33.6514V47.062H29.8994V48.203H30.4734V47.461H34.2184V46.11H29.8784ZM29.8994 48.049V48.469H34.4214V48.049H29.8994ZM29.9274 42.4V42.813H33.6304V43.324H29.9414V44.402H30.5154V43.716H34.1974V42.4H29.9274ZM29.9414 44.262V44.682H34.3164V44.262H29.9414ZM39.2246 42.862V43.373C39.2246 44.269 38.5736 45.109 37.6286 45.445L37.9296 45.907C38.9866 45.515 39.7006 44.528 39.7006 43.373V42.862H39.2246ZM39.3366 42.862V43.373C39.3366 44.43 40.0156 45.382 41.0446 45.76L41.3386 45.298C40.4216 44.976 39.8056 44.185 39.8056 43.373V42.862H39.3366ZM40.9956 43.863V44.346H42.4026V43.863H40.9956ZM37.8106 42.652V43.121H41.1916V42.652H37.8106ZM38.5946 46.348V46.824H42.2346V48.546H42.8156V46.348H38.5946ZM42.2346 42.218V46.005H42.8156V42.218H42.2346ZM48.6531 42.218V45.697H49.2411V42.218H48.6531ZM44.3761 45.088V45.564H44.8871C46.0631 45.564 46.9171 45.529 47.9601 45.368L47.8971 44.885C46.8821 45.053 46.0351 45.088 44.8871 45.088H44.3761ZM44.3621 42.526V42.995H46.6651V43.786H44.3761V45.403H44.9431V44.241H47.2321V42.526H44.3621ZM45.1461 46.012V48.462H49.2411V46.012H48.6671V46.754H45.7201V46.012H45.1461ZM45.7201 47.216H48.6671V47.986H45.7201V47.216ZM54.7776 42.218V48.546H55.3586V42.218H54.7776ZM55.2186 44.815V45.305H56.3946V44.815H55.2186ZM50.4586 43.226V43.702H54.1896V43.226H50.4586ZM52.3486 44.227C51.4596 44.227 50.8086 44.829 50.8086 45.683C50.8086 46.537 51.4596 47.139 52.3486 47.139C53.2446 47.139 53.8886 46.537 53.8886 45.683C53.8886 44.829 53.2446 44.227 52.3486 44.227ZM52.3486 44.71C52.9226 44.71 53.3356 45.109 53.3356 45.683C53.3356 46.25 52.9226 46.656 52.3486 46.656C51.7746 46.656 51.3616 46.25 51.3616 45.683C51.3616 45.109 51.7746 44.71 52.3486 44.71ZM52.0476 42.295V43.443H52.6286V42.295H52.0476ZM59.425 44.479V44.962H60.636V44.479H59.425ZM58.242 42.813V44.017C58.242 45.102 57.724 46.236 56.856 46.747L57.22 47.188C58.144 46.621 58.697 45.34 58.697 44.017V42.813H58.242ZM58.354 42.813V43.996C58.354 45.228 58.865 46.488 59.775 47.048L60.111 46.593C59.278 46.089 58.802 45.011 58.802 43.996V42.813H58.354ZM61.749 42.218V48.546H62.309V42.218H61.749ZM60.468 42.351V48.231H61.014V42.351H60.468ZM64.7725 45.473V47.37H65.3465V45.473H64.7725ZM67.1105 45.473V47.37H67.6915V45.473H67.1105ZM63.3725 47.258V47.741H69.1055V47.258H63.3725ZM66.2285 42.617C64.8845 42.617 63.9255 43.254 63.9255 44.248C63.9255 45.235 64.8845 45.872 66.2285 45.872C67.5655 45.872 68.5245 45.235 68.5245 44.248C68.5245 43.254 67.5655 42.617 66.2285 42.617ZM66.2285 43.079C67.2435 43.079 67.9645 43.541 67.9645 44.248C67.9645 44.948 67.2435 45.41 66.2285 45.41C65.2135 45.41 64.4855 44.948 64.4855 44.248C64.4855 43.541 65.2135 43.079 66.2285 43.079Z" fill="black"/>
</svg>
