<svg width="94" height="162" viewBox="0 0 94 162" fill="none" xmlns="http://www.w3.org/2000/svg">
<g filter="url(#filter0_i_16_4)">
<rect y="38" width="94" height="94" fill="#575252" fill-opacity="0.85"/>
</g>
<g filter="url(#filter1_d_16_4)">
<rect x="13" y="67" width="68" height="87" fill="white"/>
</g>
<path d="M40.5965 91.9091V97H39.9801V92.5554H39.9502L38.7073 93.3807V92.7543L39.9801 91.9091H40.5965ZM42.0607 97V96.5526L43.7411 94.7131C43.9383 94.4976 44.1007 94.3104 44.2283 94.1513C44.3559 93.9905 44.4504 93.8397 44.5117 93.6989C44.5746 93.5563 44.6061 93.4072 44.6061 93.2514C44.6061 93.0724 44.563 92.9175 44.4769 92.7866C44.3924 92.6557 44.2764 92.5546 44.1289 92.4833C43.9814 92.4121 43.8157 92.3764 43.6317 92.3764C43.4362 92.3764 43.2655 92.417 43.1196 92.4982C42.9755 92.5778 42.8636 92.6896 42.784 92.8338C42.7062 92.978 42.6672 93.147 42.6672 93.3409H42.0806C42.0806 93.0426 42.1493 92.7808 42.2869 92.5554C42.4244 92.33 42.6117 92.1544 42.8487 92.0284C43.0873 91.9025 43.355 91.8395 43.6516 91.8395C43.9499 91.8395 44.2142 91.9025 44.4446 92.0284C44.6749 92.1544 44.8555 92.3242 44.9865 92.538C45.1174 92.7518 45.1828 92.9896 45.1828 93.2514C45.1828 93.4387 45.1489 93.6218 45.0809 93.8008C45.0146 93.9781 44.8986 94.1761 44.7329 94.3949C44.5688 94.612 44.341 94.8771 44.0493 95.1903L42.9059 96.4134V96.4531H45.2723V97H42.0607ZM48.0191 97.0696C47.691 97.0696 47.3985 97.0133 47.1416 96.9006C46.8864 96.7879 46.6834 96.6313 46.5326 96.4308C46.3835 96.2286 46.3023 95.9941 46.289 95.7273H46.9154C46.9287 95.8913 46.985 96.033 47.0845 96.1523C47.1839 96.27 47.314 96.3612 47.4747 96.4258C47.6355 96.4904 47.8136 96.5227 48.0092 96.5227C48.2279 96.5227 48.4218 96.4846 48.5909 96.4084C48.7599 96.3321 48.8925 96.2261 48.9886 96.0902C49.0847 95.9543 49.1328 95.7969 49.1328 95.6179C49.1328 95.4306 49.0864 95.2657 48.9936 95.1232C48.9008 94.979 48.7649 94.8664 48.5859 94.7852C48.4069 94.704 48.1882 94.6634 47.9296 94.6634H47.522V94.1165H47.9296C48.1318 94.1165 48.3091 94.08 48.4616 94.0071C48.6157 93.9342 48.7359 93.8314 48.822 93.6989C48.9099 93.5663 48.9538 93.4105 48.9538 93.2315C48.9538 93.0592 48.9157 92.9092 48.8394 92.7816C48.7632 92.654 48.6555 92.5546 48.5163 92.4833C48.3787 92.4121 48.2163 92.3764 48.0291 92.3764C47.8534 92.3764 47.6877 92.4087 47.5319 92.4734C47.3778 92.5363 47.2518 92.6283 47.1541 92.7493C47.0563 92.8686 47.0033 93.0128 46.995 93.1818H46.3984C46.4083 92.915 46.4887 92.6813 46.6395 92.4808C46.7903 92.2786 46.9875 92.1212 47.2311 92.0085C47.4764 91.8958 47.7457 91.8395 48.039 91.8395C48.3539 91.8395 48.624 91.9033 48.8494 92.0309C49.0748 92.1568 49.2479 92.3234 49.3689 92.5305C49.4899 92.7377 49.5504 92.9614 49.5504 93.2017C49.5504 93.4884 49.475 93.7328 49.3242 93.935C49.175 94.1372 48.972 94.2772 48.7152 94.3551V94.3949C49.0367 94.4479 49.2877 94.5846 49.4684 94.805C49.649 95.0238 49.7393 95.2947 49.7393 95.6179C49.7393 95.8946 49.6639 96.1432 49.5131 96.3636C49.3639 96.5824 49.1601 96.7547 48.9016 96.8807C48.6431 97.0066 48.3489 97.0696 48.0191 97.0696ZM50.6367 95.956V95.4489L52.8739 91.9091H53.2418V92.6946H52.9932L51.3029 95.3693V95.4091H54.3157V95.956H50.6367ZM53.033 97V95.8018V95.5657V91.9091H53.6196V97H53.033Z" fill="black"/>
<path d="M35.0207 79.841V80.107C35.0207 80.94 33.9357 81.668 32.8227 81.829L33.0467 82.291C34.3207 82.074 35.5247 81.241 35.5247 80.107V79.841H35.0207ZM35.1677 79.841V80.107C35.1677 81.241 36.3647 82.074 37.6457 82.291L37.8627 81.829C36.7567 81.668 35.6647 80.94 35.6647 80.107V79.841H35.1677ZM35.0417 83.131V85.546H35.6157V83.131H35.0417ZM32.4867 82.823V83.299H38.2057V82.823H32.4867ZM33.0187 79.61V80.079H37.6527V79.61H33.0187ZM38.9192 82.452V82.928H44.6522V82.452H38.9192ZM41.5372 82.746V84.202H42.1182V82.746H41.5372ZM39.6542 79.512V81.738H43.9102V79.512H39.6542ZM43.3362 79.981V81.269H40.2212V79.981H43.3362ZM39.6472 84.93V85.406H44.0152V84.93H39.6472ZM39.6472 83.593V85.098H40.2212V83.593H39.6472ZM50.3164 81.003V81.479H52.1364V81.003H50.3164ZM51.9544 79.225V83.908H52.5354V79.225H51.9544ZM48.4684 84.93V85.406H52.6894V84.93H48.4684ZM48.4684 83.453V85.175H49.0494V83.453H48.4684ZM47.6424 79.638V82.83H50.4984V79.638H49.9314V80.758H48.2164V79.638H47.6424ZM48.2164 81.213H49.9314V82.354H48.2164V81.213ZM54.0538 80.142V80.618H59.1918V80.142H54.0538ZM53.7738 84.328V84.811H59.5068V84.328H53.7738ZM56.3428 83.327V84.517H56.9168V83.327H56.3428ZM56.6228 81.045C55.3488 81.045 54.5578 81.486 54.5578 82.249C54.5578 83.012 55.3488 83.453 56.6228 83.453C57.9038 83.453 58.6948 83.012 58.6948 82.249C58.6948 81.486 57.9038 81.045 56.6228 81.045ZM56.6228 81.5C57.5468 81.5 58.1068 81.78 58.1068 82.249C58.1068 82.718 57.5468 82.991 56.6228 82.991C55.7058 82.991 55.1388 82.718 55.1388 82.249C55.1388 81.78 55.7058 81.5 56.6228 81.5ZM56.3428 79.323V80.436H56.9168V79.323H56.3428Z" fill="black"/>
<rect x="13" y="57" width="69" height="7" rx="2" fill="#403636"/>
<rect x="14" y="63" width="67" height="1" fill="white"/>
<rect x="14" y="57" width="67" height="1" fill="white"/>
<path d="M24.0279 6.6V8.3H30.9279V6.6H24.0279ZM24.0279 11.8V13.525H30.9279V11.8H24.0279ZM19.9029 4.675C16.5529 4.675 14.0779 6.925 14.0779 10.05C14.0779 13.2 16.5529 15.425 19.9029 15.425C23.2279 15.425 25.7279 13.2 25.7279 10.05C25.7279 6.925 23.2279 4.675 19.9029 4.675ZM19.9029 6.45C22.1029 6.45 23.7529 7.925 23.7529 10.05C23.7529 12.175 22.1029 13.65 19.9029 13.65C17.7029 13.65 16.0779 12.175 16.0779 10.05C16.0779 7.925 17.7029 6.45 19.9029 6.45ZM30.2529 3.35V16.725H32.3279V3.35H30.2529ZM24.9029 17.25C20.2279 17.25 17.3529 18.85 17.3529 21.575C17.3529 24.325 20.2279 25.9 24.9029 25.9C29.5529 25.9 32.4279 24.325 32.4279 21.575C32.4279 18.85 29.5529 17.25 24.9029 17.25ZM24.9029 18.9C28.3029 18.9 30.3779 19.9 30.3779 21.575C30.3779 23.275 28.3029 24.275 24.9029 24.275C21.4779 24.275 19.4029 23.275 19.4029 21.575C19.4029 19.9 21.4779 18.9 24.9029 18.9ZM45.876 4.15V5.4C45.876 8.625 41.901 11.325 37.776 11.95L38.601 13.625C43.301 12.825 47.701 9.725 47.701 5.4V4.15H45.876ZM46.251 4.15V5.4C46.251 9.675 50.676 12.825 55.326 13.625L56.151 11.95C52.076 11.325 48.051 8.55 48.051 5.4V4.15H46.251ZM45.876 17.35V25.95H47.926V17.35H45.876ZM36.751 16.075V17.8H57.176V16.075H36.751ZM59.724 14.1V15.775H80.149V14.1H59.724ZM69.924 17.725C65.099 17.725 62.174 19.225 62.174 21.825C62.174 24.425 65.099 25.9 69.924 25.9C74.749 25.9 77.674 24.425 77.674 21.825C77.674 19.225 74.749 17.725 69.924 17.725ZM69.924 19.375C73.474 19.375 75.574 20.25 75.574 21.825C75.574 23.375 73.474 24.275 69.924 24.275C66.399 24.275 64.274 23.375 64.274 21.825C64.274 20.25 66.399 19.375 69.924 19.375ZM68.599 5.4V6.075C68.599 8.625 64.924 10.65 60.874 11.1L61.624 12.725C66.299 12.175 70.449 9.7 70.449 6.075V5.4H68.599ZM69.474 5.4V6.075C69.474 9.7 73.599 12.175 78.274 12.725L79.024 11.1C74.974 10.65 71.299 8.625 71.299 6.075V5.4H69.474ZM61.599 4.5V6.175H78.324V4.5H61.599Z" fill="white"/>
<defs>
<filter id="filter0_i_16_4" x="0" y="38" width="94" height="98" filterUnits="userSpaceOnUse" color-interpolation-filters="sRGB">
<feFlood flood-opacity="0" result="BackgroundImageFix"/>
<feBlend mode="normal" in="SourceGraphic" in2="BackgroundImageFix" result="shape"/>
<feColorMatrix in="SourceAlpha" type="matrix" values="0 0 0 0 0 0 0 0 0 0 0 0 0 0 0 0 0 0 127 0" result="hardAlpha"/>
<feOffset dy="4"/>
<feGaussianBlur stdDeviation="2"/>
<feComposite in2="hardAlpha" operator="arithmetic" k2="-1" k3="1"/>
<feColorMatrix type="matrix" values="0 0 0 0 0 0 0 0 0 0 0 0 0 0 0 0 0 0 0.25 0"/>
<feBlend mode="normal" in2="shape" result="effect1_innerShadow_16_4"/>
</filter>
<filter id="filter1_d_16_4" x="9" y="67" width="76" height="95" filterUnits="userSpaceOnUse" color-interpolation-filters="sRGB">
<feFlood flood-opacity="0" result="BackgroundImageFix"/>
<feColorMatrix in="SourceAlpha" type="matrix" values="0 0 0 0 0 0 0 0 0 0 0 0 0 0 0 0 0 0 127 0" result="hardAlpha"/>
<feOffset dy="4"/>
<feGaussianBlur stdDeviation="2"/>
<feComposite in2="hardAlpha" operator="out"/>
<feColorMatrix type="matrix" values="0 0 0 0 0 0 0 0 0 0 0 0 0 0 0 0 0 0 0.25 0"/>
<feBlend mode="normal" in2="BackgroundImageFix" result="effect1_dropShadow_16_4"/>
<feBlend mode="normal" in="SourceGraphic" in2="effect1_dropShadow_16_4" result="shape"/>
</filter>
</defs>
</svg>
